<?xml version="1.0" encoding="UTF-8" standalone="no"?>
<svg
   xmlns:dc="http://purl.org/dc/elements/1.1/"
   xmlns:cc="http://creativecommons.org/ns#"
   xmlns:rdf="http://www.w3.org/1999/02/22-rdf-syntax-ns#"
   xmlns:svg="http://www.w3.org/2000/svg"
   xmlns="http://www.w3.org/2000/svg"
   xmlns:sodipodi="http://sodipodi.sourceforge.net/DTD/sodipodi-0.dtd"
   xmlns:inkscape="http://www.inkscape.org/namespaces/inkscape"
   width="92.5"
   height="111.5"
   viewBox="0 0 74 89.2"
   version="1.1"
   id="svg2"
   inkscape:version="0.48.3.1 r9886"
   sodipodi:docname="iso-gamelena-trans.svg"
   inkscape:export-filename="/home/rodrigo/Downloads/iso-gamelena-trans.png"
   inkscape:export-xdpi="90"
   inkscape:export-ydpi="90">
  <metadata
     id="metadata38">
    <rdf:RDF>
      <cc:Work
         rdf:about="">
        <dc:format>image/svg+xml</dc:format>
        <dc:type
           rdf:resource="http://purl.org/dc/dcmitype/StillImage" />
        <dc:title></dc:title>
      </cc:Work>
    </rdf:RDF>
  </metadata>
  <defs
     id="defs36" />
  <sodipodi:namedview
     pagecolor="#ffffff"
     bordercolor="#666666"
     borderopacity="1"
     objecttolerance="10"
     gridtolerance="10"
     guidetolerance="10"
     inkscape:pageopacity="0"
     inkscape:pageshadow="2"
     inkscape:window-width="1120"
     inkscape:window-height="632"
     id="namedview34"
     showgrid="false"
     inkscape:zoom="2.0313043"
     inkscape:cx="91.901598"
     inkscape:cy="82.81377"
     inkscape:window-x="97"
     inkscape:window-y="57"
     inkscape:window-maximized="0"
     inkscape:current-layer="svg2"
     borderlayer="true" />
  <path
     style="fill:#0082cc"
     inkscape:connector-curvature="0"
     d="M 0.14821873,-0.06671137 C 2.9682187,4.9032886 6.7582187,9.2632886 11.408219,12.583288 c 0.27,1.7 0.61,3.4 0.95,5.09 1.51,0.8 3.02,1.61 4.53,2.43 4.49,6.72 10.64,12.37 18.25,15.34 8.16,-2.36 16.81,-3.31 25.23,-1.89 -7.85,1.43 -15.8,3.24 -22.85,7.11 -7.82,3.98 -14.82,11.21 -15.41,20.38 -0.77,10.75 5.32,20.199998 10.93,28.829998 -8.6,-9.29 -17.73,-20.439998 -17.25,-33.829998 0.36,-9.51 8.46,-16.57 16.9,-19.53 -16.9,-3.8 -32.29000027,-18.54 -32.54000027,-36.57999937 z"
     id="path6" />
  <path
     style="fill:#67757c"
     inkscape:connector-curvature="0"
     d="m 11.128219,6.1132886 c 3.59,8.9199994 11.64,14.6699994 19.87,18.9399994 -4.8,-1.33 -9.61,-2.78 -14.11,-4.95 -1.51,-0.82 -3.02,-1.63 -4.53,-2.43 -0.34,-1.69 -0.68,-3.39 -0.95,-5.09 -0.32,-2.14 -0.28,-4.3099994 -0.28,-6.4699994 z"
     id="path8" />
  <path
     style="fill:#0082cc"
     inkscape:connector-curvature="0"
     d="m 44.918219,32.623288 c 3.14,-2.12 6.48,-4.57 10.45,-4.57 3.04,0.26 5.63,2.08 8.44,3.1 -0.56,0.46 -1.12,0.91 -1.69,1.37 -5.61,-1.84 -11.56,-1.24 -17.2,0.1 z"
     id="path12" />
  <path
     style="fill:#67757c"
     inkscape:connector-curvature="0"
     d="m 37.518219,40.663288 c 7.05,-3.87 15,-5.68 22.85,-7.11 2.14,0.04 4.26,0.45 6.38,0.76 -6.81,2.09 -14.23,2.41 -20.43,6.3 -0.44,0.24 -1.31,0.71 -1.75,0.94 -7.05,4.64 -10.6,13.25 -11.23,21.42 -0.49,5.27 1.43,10.3 3.99,14.79 -3.41,-3.23 -6.44,-7.09 -7.55,-11.75 -2.45,-9.08 1.06,-18.97 7.74,-25.35 z"
     id="path14" />
  <path
     style="fill:#0082cc"
     inkscape:connector-curvature="0"
     d="m 44.568219,41.553288 c 0.44,-0.23 1.31,-0.7 1.75,-0.94 16.63,5.88 29.55,23.23 27.41,41.279998 -1.91,-4.519998 -4.19,-8.999998 -7.74,-12.479998 -1.93,-2.15 -4.68,-3.87 -5.26,-6.9 -2.21,-8.87 -8.49,-16.22 -16.16,-20.96 z"
     id="path30" />
  <path
     style="fill:#67757c"
     inkscape:connector-curvature="0"
     d="m 40.168219,46.983288 c 6.31,2.45 12.19,5.88 17.53,10.04 0.42,3.89 0.19,7.81 -0.47,11.66 -2.26,-9.4 -9.4,-16.37 -17.06,-21.7 z"
     id="path32" />
</svg>
