<?xml version="1.0" encoding="UTF-8" standalone="no"?>
<svg
   xmlns:dc="http://purl.org/dc/elements/1.1/"
   xmlns:cc="http://creativecommons.org/ns#"
   xmlns:rdf="http://www.w3.org/1999/02/22-rdf-syntax-ns#"
   xmlns:svg="http://www.w3.org/2000/svg"
   xmlns="http://www.w3.org/2000/svg"
   xmlns:sodipodi="http://sodipodi.sourceforge.net/DTD/sodipodi-0.dtd"
   xmlns:inkscape="http://www.inkscape.org/namespaces/inkscape"
   width="230pt"
   height="130pt"
   viewBox="0 0 230 130"
   version="1.1"
   id="svg2"
   inkscape:version="0.48.3.1 r9886"
   sodipodi:docname="logo-gamelena-trans.svg"
   inkscape:export-filename="/home/rodrigo/Downloads/logo-gamelena-trans2.png"
   inkscape:export-xdpi="90"
   inkscape:export-ydpi="90">
  <metadata
     id="metadata38">
    <rdf:RDF>
      <cc:Work
         rdf:about="">
        <dc:format>image/svg+xml</dc:format>
        <dc:type
           rdf:resource="http://purl.org/dc/dcmitype/StillImage" />
        <dc:title></dc:title>
      </cc:Work>
    </rdf:RDF>
  </metadata>
  <defs
     id="defs36" />
  <sodipodi:namedview
     pagecolor="#ffffff"
     bordercolor="#666666"
     borderopacity="1"
     objecttolerance="10"
     gridtolerance="10"
     guidetolerance="10"
     inkscape:pageopacity="0"
     inkscape:pageshadow="2"
     inkscape:window-width="1120"
     inkscape:window-height="632"
     id="namedview34"
     showgrid="false"
     inkscape:zoom="2.0313043"
     inkscape:cx="173.62249"
     inkscape:cy="82.81377"
     inkscape:window-x="163"
     inkscape:window-y="143"
     inkscape:window-maximized="0"
     inkscape:current-layer="svg2" />
  <path
     style="fill:#0082cc"
     inkscape:connector-curvature="0"
     d="m 19.84,19.86 c 2.82,4.97 6.61,9.33 11.26,12.65 0.27,1.7 0.61,3.4 0.95,5.09 1.51,0.8 3.02,1.61 4.53,2.43 4.49,6.72 10.64,12.37 18.25,15.34 8.16,-2.36 16.81,-3.31 25.23,-1.89 -7.85,1.43 -15.8,3.24 -22.85,7.11 C 49.39,64.57 42.39,71.8 41.8,80.97 41.03,91.72 47.12,101.17 52.73,109.8 44.13,100.51 35,89.36 35.48,75.97 35.84,66.46 43.94,59.4 52.38,56.44 35.48,52.64 20.09,37.9 19.84,19.86 z"
     id="path6" />
  <path
     style="fill:#67757c"
     inkscape:connector-curvature="0"
     d="M 30.82,26.04 C 34.41,34.96 42.46,40.71 50.69,44.98 45.89,43.65 41.08,42.2 36.58,40.03 35.07,39.21 33.56,38.4 32.05,37.6 31.71,35.91 31.37,34.21 31.1,32.51 30.78,30.37 30.82,28.2 30.82,26.04 z"
     id="path8" />
  <path
     style="fill:#67757c"
     inkscape:connector-curvature="0"
     d="m 153.5,47 c 0.94,0 2.81,0 3.75,0 0,0.94 0,2.81 0,3.75 -0.94,0 -2.81,0 -3.75,0 0,-0.94 0,-2.81 0,-3.75 z"
     id="path10" />
  <path
     style="fill:#0082cc"
     inkscape:connector-curvature="0"
     d="m 64.61,52.55 c 3.14,-2.12 6.48,-4.57 10.45,-4.57 3.04,0.26 5.63,2.08 8.44,3.1 -0.56,0.46 -1.12,0.91 -1.69,1.37 -5.61,-1.84 -11.56,-1.24 -17.2,0.1 z"
     id="path12" />
  <path
     style="fill:#67757c"
     inkscape:connector-curvature="0"
     d="m 57.21,60.59 c 7.05,-3.87 15,-5.68 22.85,-7.11 2.14,0.04 4.26,0.45 6.38,0.76 -6.81,2.09 -14.23,2.41 -20.43,6.3 -0.44,0.24 -1.31,0.71 -1.75,0.94 -7.05,4.64 -10.6,13.25 -11.23,21.42 -0.49,5.27 1.43,10.3 3.99,14.79 -3.41,-3.23 -6.44,-7.09 -7.55,-11.75 -2.45,-9.08 1.06,-18.97 7.74,-25.35 z"
     id="path14" />
  <path
     style="fill:#67757c"
     inkscape:connector-curvature="0"
     d="m 93.75,53.75 c 4.16,0 8.33,0 12.49,0 0.01,0.75 0.02,2.25 0.03,3.01 -2.83,3.64 -5.58,7.33 -8.37,11 2.78,-0.01 5.57,-0.01 8.35,-0.01 0,0.81 0,2.44 0,3.25 -4.33,0 -8.67,0 -13.01,-0.01 0,-0.69 -0.01,-2.07 -0.02,-2.77 2.72,-3.66 5.47,-7.31 8.21,-10.97 -2.56,0 -5.12,0 -7.68,0 0,-0.87 0,-2.62 0,-3.5 z"
     id="path16" />
  <path
     style="fill:#67757c"
     inkscape:connector-curvature="0"
     d="m 108.58,53.77 c 0.98,-0.01 2.93,-0.02 3.91,-0.03 1.09,3.87 2.14,7.75 3.2,11.63 1.37,-3.72 2.14,-7.71 4.01,-11.23 0.64,-0.2 1.91,-0.6 2.55,-0.8 1.35,4.01 2.62,8.04 3.92,12.07 1.09,-3.89 2.15,-7.79 3.22,-11.69 0.99,0.01 2.97,0.04 3.95,0.05 -1.76,5.76 -3.56,11.5 -5.37,17.23 -0.79,0 -2.38,0 -3.17,0 -1.25,-3.79 -2.54,-7.57 -3.89,-11.32 -1.26,3.77 -2.52,7.54 -3.77,11.32 -0.81,0 -2.43,0 -3.24,0 -1.78,-5.74 -3.57,-11.48 -5.32,-17.23 z"
     id="path18" />
  <path
     style="fill:#67757c"
     inkscape:connector-curvature="0"
     d="m 135.48,58.4 c 1.36,-4.92 8.41,-6.33 11.83,-2.75 2.21,2.08 2.09,5.3 2.38,8.07 -2.9,0.03 -5.79,0.04 -8.69,0.04 0,-0.68 0,-2.03 0,-2.71 1.75,-0.06 3.5,-0.13 5.26,-0.21 -0.91,-1.74 -1.76,-4.41 -4.25,-4.08 -4.26,0.38 -3.96,6.1 -2.99,9.11 1.55,3.38 5.66,1.98 8.2,0.74 0.73,0.76 1.45,1.52 2.18,2.28 -3.16,2.06 -7.3,3.45 -10.87,1.54 -4.12,-2.38 -4.14,-7.98 -3.05,-12.03 z"
     id="path20" />
  <path
     style="fill:#67757c"
     inkscape:connector-curvature="0"
     d="m 153.5,53.75 c 0.94,0 2.81,0 3.75,0 0,5.75 0,11.5 0,17.25 -0.94,0 -2.81,0 -3.75,0 0,-5.75 0,-11.5 0,-17.25 z"
     id="path22" />
  <path
     style="fill:#67757c"
     inkscape:connector-curvature="0"
     d="m 163.15,56.21 c 2.95,-3.73 8.53,-2.92 11.92,-0.25 -0.83,0.76 -1.66,1.51 -2.48,2.27 -2.02,-0.83 -4.73,-2.14 -6.45,-0.02 -1.62,2.5 -1.67,6.21 0.1,8.64 1.86,2.02 4.49,0.6 6.53,-0.25 0.77,0.81 1.53,1.62 2.31,2.44 -3.14,2.17 -7.64,3.38 -10.89,0.76 -3.65,-3.33 -3.89,-9.69 -1.04,-13.59 z"
     id="path24" />
  <path
     style="fill:#67757c"
     inkscape:connector-curvature="0"
     d="m 177.87,57.74 c 1.87,-5.27 10.57,-5.47 12.82,-0.43 1.16,3.03 1.12,6.48 0.3,9.58 -0.62,2.63 -3.37,3.57 -5.46,4.73 0.03,-0.84 0.07,-2.51 0.1,-3.35 2.44,-2.52 3,-6.37 1.61,-9.56 -0.94,-2.23 -4.56,-2.32 -5.66,-0.17 -1.52,3.13 -0.87,6.91 1.31,9.56 0.02,0.85 0.05,2.56 0.06,3.41 -1.91,-1.09 -4.38,-1.94 -5.08,-4.28 -0.96,-3.04 -0.94,-6.45 0,-9.49 z"
     id="path26" />
  <path
     style="fill:#67757c"
     inkscape:connector-curvature="0"
     d="m 195.77,53.49 c 1.3,0.32 2.62,0.64 3.92,0.98 3.04,-0.91 6.38,-1.15 8.96,1.03 3.16,-2.17 8.51,-2.97 10.66,0.96 1.45,4.67 0.4,9.72 0.68,14.54 -1.17,0 -2.34,-0.01 -3.51,-0.01 -0.13,-4.23 0.53,-8.57 -0.51,-12.71 -1.45,-2.11 -4.98,-1.34 -5.95,0.77 -0.58,3.95 -0.19,7.97 -0.25,11.94 -1.27,0.01 -2.52,0.01 -3.78,0.01 -0.06,-3.97 0.27,-7.96 -0.17,-11.92 -0.58,-2.96 -5.48,-2.74 -6.11,0.09 -0.49,3.92 -0.14,7.88 -0.19,11.82 -1.26,0 -2.52,0.01 -3.77,0.01 0,-5.84 -0.02,-11.67 0.02,-17.51 z"
     id="path28" />
  <path
     style="fill:#0082cc"
     inkscape:connector-curvature="0"
     d="m 64.26,61.48 c 0.44,-0.23 1.31,-0.7 1.75,-0.94 16.63,5.88 29.55,23.23 27.41,41.28 -1.91,-4.52 -4.19,-9 -7.74,-12.48 C 83.75,87.19 81,85.47 80.42,82.44 78.21,73.57 71.93,66.22 64.26,61.48 z"
     id="path30" />
  <path
     style="fill:#67757c"
     inkscape:connector-curvature="0"
     d="m 59.86,66.91 c 6.31,2.45 12.19,5.88 17.53,10.04 0.42,3.89 0.19,7.81 -0.47,11.66 -2.26,-9.4 -9.4,-16.37 -17.06,-21.7 z"
     id="path32" />
</svg>
