<?xml version="1.0" standalone="no"?>
<!DOCTYPE svg PUBLIC "-//W3C//DTD SVG 1.1//EN" "http://www.w3.org/Graphics/SVG/1.1/DTD/svg11.dtd" >
<svg xmlns="http://www.w3.org/2000/svg">
<metadata></metadata>
<defs>
<font id="resagokrlight" horiz-adv-x="374" >
<font-face units-per-em="2048" ascent="1638" descent="-410" />
<missing-glyph horiz-adv-x="647" />
<glyph unicode="&#xfb01;" horiz-adv-x="1056" d="M68 870v52h137v139q0 107 68.5 171t179.5 64q64 0 174 -39l73 -26l-16 -47l-90 28q-57 17 -102 17q-94 0 -144.5 -46.5t-50.5 -133.5q0 -17 10 -127h342v-52h-342v-870h-102v870h-137zM811 1217v63q0 27 33 27h53q33 0 33 -27v-63q0 -17 -7 -24t-26 -7h-53q-19 0 -26 7 t-7 24zM819 0v956h103v-956h-103z" />
<glyph unicode="&#xfb02;" horiz-adv-x="1056" d="M68 870v52h137v139q0 107 68.5 171t179.5 64q64 0 174 -39l73 -26l-16 -47l-90 28q-57 17 -102 17q-94 0 -144.5 -46.5t-50.5 -133.5q0 -17 10 -127h342v-52h-342v-870h-102v870h-137zM819 340v956h103v-1296l-84 -4q0 11 -9.5 152t-9.5 192z" />
<glyph unicode="&#xfb03;" horiz-adv-x="1740" d="M68 870v52h137v139q0 107 68.5 171t179.5 64q64 0 174 -39l73 -26l-16 -47l-90 28q-57 17 -102 17q-94 0 -144.5 -46.5t-50.5 -133.5q0 -17 10 -127h342v-52h-342v-870h-102v870h-137zM752 870v52h135v139q0 107 68.5 171t179.5 64q64 0 174 -39l73 -26l-16 -47l-90 28 q-57 17 -102 17q-94 0 -143.5 -46t-49.5 -134q0 -39 8 -127h359v-52h-359v-870h-102v870h-135zM1493 1217v63q0 27 33 27h53q35 0 35 -27v-63q0 -17 -8 -24t-27 -7h-53q-19 0 -26 7t-7 24zM1501 0v956h103v-956h-103z" />
<glyph unicode="&#xfb04;" horiz-adv-x="1740" d="M68 870v52h137v139q0 107 68.5 171t179.5 64q64 0 174 -39l73 -26l-16 -47l-90 28q-57 17 -102 17q-94 0 -144.5 -46.5t-50.5 -133.5q0 -17 10 -127h342v-52h-342v-870h-102v870h-137zM752 870v52h135v139q0 107 68.5 171t179.5 64q64 0 174 -39l73 -26l-16 -47l-90 28 q-57 17 -102 17q-94 0 -143.5 -46t-49.5 -134q0 -39 8 -127h359v-52h-359v-870h-102v870h-135zM1501 340v956h103v-1296l-84 -4q0 11 -9.5 152t-9.5 192z" />
<glyph horiz-adv-x="2048" />
<glyph horiz-adv-x="2048" />
<glyph unicode="&#xd;" horiz-adv-x="2048" />
<glyph unicode=" "  horiz-adv-x="647" />
<glyph unicode="&#x09;" horiz-adv-x="647" />
<glyph unicode="&#xa0;" horiz-adv-x="647" />
<glyph unicode="!" horiz-adv-x="339" d="M111 1296h137q-4 -58 -11.5 -168.5t-11.5 -179.5t-8 -163t-4 -171q0 -123 8 -204h-84q8 81 8 204q0 79 -3.5 172t-8 161t-11.5 178t-11 171zM119 16v52q0 19 8 26.5t27 7.5h51q19 0 27 -7.5t8 -26.5v-52q0 -18 -8 -25t-27 -7h-51q-19 0 -27 7t-8 25z" />
<glyph unicode="&#x22;" horiz-adv-x="391" d="M86 1249q0 55 4 68.5t19 13.5h45v-137q0 -65 -29 -221h-29q4 35 4 137q0 48 -7 88t-7 51zM256 1249q0 55 4 68.5t19 13.5h45v-137q0 -65 -29 -221h-29q4 35 4 137q0 48 -7 88t-7 51z" />
<glyph unicode="#" horiz-adv-x="1024" d="M78 375l6 51h207l35 444h-205l6 52h205l22 272h52l-23 -272h307l23 272h51l-23 -272h205l-6 -52h-207l-35 -444h205l-6 -51h-205l-22 -273h-52l23 273h-305l-25 -273h-51l23 273h-205zM342 426h307l35 444h-309z" />
<glyph unicode="$" horiz-adv-x="1040" d="M86 143l33 82q48 -17 128.5 -51.5t134.5 -51t114 -20.5v523l-31 14q-32 15 -88.5 39.5t-87.5 39t-72.5 39.5t-63 48.5t-37.5 59t-16 77.5q0 128 110 207.5t286 79.5v119h53v-119q157 0 325 -62l-32 -77q-38 12 -98.5 36.5t-103 36.5t-91.5 15v-457q24 -11 67 -29.5 t68 -30t63 -30t60.5 -33.5t51.5 -35.5t46 -42t33.5 -47t23.5 -55.5t7 -64q0 -136 -116 -219.5t-304 -83.5v-119h-53v119q-78 0 -167 18.5t-131 33t-112 40.5zM203 987q0 -23 4.5 -43t15 -37.5t21 -30.5t30.5 -27t34.5 -23t42 -22t44 -20t50.5 -20.5t51 -20.5v435 q-133 -4 -213 -56.5t-80 -134.5zM549 102q143 5 230 63.5t87 151.5q0 45 -17.5 83t-41.5 63t-69.5 52t-79 42t-92.5 40q-11 5 -17 7v-502z" />
<glyph unicode="%" horiz-adv-x="1695" d="M86 989q0 147 90.5 236.5t239.5 89.5t240.5 -90t91.5 -236t-91 -234.5t-241 -88.5q-149 0 -239.5 88.5t-90.5 234.5zM193 991q0 -134 61.5 -204t179.5 -70q101 0 154 70t53 202q0 134 -62 204.5t-180 70.5q-101 0 -153.5 -70t-52.5 -203zM293 129l1036 1061l47 -47 l-1034 -1061zM948 307q0 146 91.5 235t240.5 89t240.5 -89t91.5 -235t-91 -234.5t-241 -88.5t-241 88.5t-91 234.5zM1055 307q0 -134 61.5 -203t179.5 -69q101 0 155 70t54 202q0 134 -61.5 203.5t-179.5 69.5q-101 0 -155 -70.5t-54 -202.5z" />
<glyph unicode="&#x26;" horiz-adv-x="1419" d="M102 315q0 47 18.5 91.5t42 74.5t64 62t64.5 46.5t65 36.5t45 25q-80 75 -125 163t-45 169q0 120 85.5 183t246.5 63q70 0 160 -18.5t133 -39.5l-35 -61l-153 51q-57 17 -88 17q-120 0 -183 -41t-63 -119q0 -109 121 -240l503 -530q58 107 58 239q0 41 -7.5 82.5t-16 66 t-25.5 69t-23 63.5q-23 0 -99 -4t-91 -4l-4 59l219 -8l344 8l4 -67q-47 0 -141.5 8t-155.5 8q47 -139 47 -281q0 -157 -70 -278l105 -111q61 -61 147 -61q21 0 121 20l-6 -69q-62 -4 -78 -4q-88 0 -148 17t-104 58l-86 80q-133 -155 -375 -155q-213 0 -342 90.5t-129 240.5z M205 313q0 -126 101 -202t267 -76q214 0 336 141l-469 438q-136 -69 -185.5 -134t-49.5 -167z" />
<glyph unicode="'" horiz-adv-x="221" d="M86 1249q0 55 4 68.5t19 13.5h45v-137q0 -65 -29 -221h-29q4 35 4 137q0 48 -7 88t-7 51z" />
<glyph unicode="(" horiz-adv-x="512" d="M102 563q0 257 81 444t247 341l35 -37l-51 -47q-94 -88 -149.5 -284.5t-55.5 -416.5t55.5 -416t149.5 -284l51 -47l-35 -37q-166 154 -247 340.5t-81 443.5z" />
<glyph unicode=")" horiz-adv-x="512" d="M47 -184l51 47q94 88 149.5 284t55.5 416t-55.5 416.5t-149.5 284.5l-51 47l35 37q166 -154 247 -341t81 -444t-81 -443.5t-247 -340.5z" />
<glyph unicode="*" horiz-adv-x="655" d="M141 1235l9 31l122 -39l37 22l2 133h33l2 -133l37 -22l123 39l8 -31l-123 -47l-10 -41l72 -103l-27 -16l-78 96h-41l-78 -96l-26 16l71 103l-10 41z" />
<glyph unicode="+" horiz-adv-x="1056" d="M102 580v69h394v426h67v-426h393v-69h-393v-426h-67v426h-394z" />
<glyph unicode="," horiz-adv-x="339" d="M49 -221q105 113 105 194q0 26 -17.5 53.5t-17.5 39.5v10q0 26 35 26h51q35 0 35 -24v-70q0 -32 -47 -117.5t-107 -146.5z" />
<glyph unicode="-" horiz-adv-x="819" d="M102 571v68h615v-68h-615z" />
<glyph unicode="." horiz-adv-x="339" d="M119 16v52q0 19 8 26.5t27 7.5h51q19 0 27 -7.5t8 -26.5v-52q0 -18 -8 -25t-27 -7h-51q-19 0 -27 7t-8 25z" />
<glyph unicode="/" horiz-adv-x="827" d="M45 -31l678 1358l61 -31l-680 -1357z" />
<glyph unicode="0" horiz-adv-x="1040" d="M78 647q0 300 121.5 484t320.5 184q200 0 322.5 -183.5t122.5 -482.5t-122.5 -482t-322.5 -183t-321 182t-121 481zM186 649q0 -299 85.5 -456.5t248.5 -157.5t249.5 156.5t86.5 455.5t-86.5 458t-249.5 159t-248.5 -158t-85.5 -457z" />
<glyph unicode="1" horiz-adv-x="442" d="M68 1212v52l239 51v-1315h-102v1169q0 25 -16.5 40.5t-41.5 15.5q-4 0 -9 -1t-23.5 -4.5t-46.5 -7.5z" />
<glyph unicode="2" horiz-adv-x="929" d="M68 0v80q111 116 173 181.5t138 148t114 128t82.5 103t64 92.5t38.5 77.5t25 77t6 73.5q0 135 -82 219t-215 84q-65 0 -111 -17l-151 -55l-29 72q42 19 135 35t164 16h76q141 0 228 -91.5t87 -240.5q0 -50 -10.5 -97t-26 -87t-50.5 -90.5t-66 -89.5t-92 -103.5 t-109.5 -113t-136.5 -137.5t-156 -159v-4h663v-102h-759z" />
<glyph unicode="3" horiz-adv-x="894" d="M51 51l27 68l135 -51q90 -33 162 -33q154 0 247 103t93 272q0 117 -65.5 199.5t-157.5 82.5h-177v49h68q83 0 156 76.5t73 175.5q0 122 -64.5 196.5t-170.5 74.5q-37 0 -94 -17l-154 -51l-27 68q42 18 129.5 34.5t153.5 16.5q146 0 235 -80.5t89 -212.5q0 -80 -49 -162.5 t-132 -114.5v-4q113 0 200 -98.5t87 -239.5q0 -189 -116 -304t-306 -115h-33q-67 0 -165.5 23t-143.5 44z" />
<glyph unicode="4" horiz-adv-x="954" d="M35 221v70q67 87 117 161.5t101 173t83.5 195.5t53 220t20.5 255h102q0 -121 -20.5 -233t-54 -207t-90.5 -197.5t-116 -189t-145 -197.5h596v410h102v-410h121v-51h-121v-221h-102v221h-647z" />
<glyph unicode="5" horiz-adv-x="946" d="M102 55l29 70l152 -57q90 -33 170 -33q141 0 227 120t86 318q0 155 -59 250.5t-156 95.5q-42 0 -96 -16l-320 -117h-24v610h700v-102q-38 0 -233.5 17.5t-262.5 17.5h-153v-490l262 109q98 39 174 39q126 0 203.5 -115.5t77.5 -302.5q0 -218 -115 -351.5t-303 -133.5h-33 q-67 0 -174 25t-152 46z" />
<glyph unicode="6" horiz-adv-x="1013" d="M86 647q0 300 119 484t315 184h43q65 0 158.5 -23.5t142.5 -44.5l-28 -71l-127 51q-36 14 -94 25.5t-95 11.5q-137 0 -224.5 -151t-98.5 -402l260 104q96 39 174 39q137 0 222 -105t85 -270q0 -226 -114.5 -360.5t-303.5 -134.5q-196 0 -315 182t-119 481zM195 649 q0 -277 89 -445.5t236 -168.5q141 0 227.5 112.5t86.5 296.5q0 156 -65.5 248t-182.5 92q-47 0 -94 -14l-297 -98v-23z" />
<glyph unicode="7" horiz-adv-x="903" d="M68 1194v102h786v-51q-428 -454 -428 -1245h-102q0 296 112 628t332 601h-150q-66 0 -289 -17.5t-261 -17.5z" />
<glyph unicode="8" horiz-adv-x="1056" d="M94 317q0 71 29 134t81.5 112t101.5 82t112 66q-121 74 -176.5 151.5t-55.5 175.5q0 125 94 201t248 76q135 0 217 -70t82 -186q0 -91 -68 -177.5t-186 -150.5q19 -13 67 -44.5t70 -46t62.5 -45t60.5 -50t48 -51t41.5 -59t23.5 -62.5t10 -72q0 -143 -117 -230t-309 -87 h-34q-182 0 -292 91t-110 242zM145 317q0 -127 97 -204.5t254 -77.5h34q146 0 235 64.5t89 168.5q0 41 -11.5 77t-28 63t-47.5 56t-57.5 49t-70.5 50l-172 115q-63 -32 -111.5 -63.5t-100.5 -76.5t-81 -101.5t-29 -119.5zM270 1081q0 -83 29 -134t117 -111l108 -72 q118 59 185 139.5t67 155.5q0 92 -68.5 148.5t-179.5 56.5q-117 0 -187.5 -50.5t-70.5 -132.5z" />
<glyph unicode="9" horiz-adv-x="1013" d="M78 817q0 226 115 362t303 136q196 0 315 -183t119 -483t-119 -482.5t-315 -182.5h-43q-66 0 -160 22t-141 43l28 72l127 -51q35 -14 93 -24.5t96 -10.5q137 0 224.5 151t98.5 402l-262 -105q-96 -39 -172 -39q-137 0 -222 104t-85 269zM182 852q0 -156 65.5 -248 t182.5 -92q40 0 94 16l297 99v20q0 278 -89 447.5t-236 169.5q-141 0 -227.5 -113.5t-86.5 -298.5z" />
<glyph unicode=":" horiz-adv-x="339" d="M119 18v52q0 19 8 26.5t27 7.5h51q19 0 27 -7.5t8 -26.5v-52q0 -18 -8 -25t-27 -7h-51q-19 0 -27 7t-8 25zM119 836v51q0 19 8 27t27 8h51q19 0 27 -8t8 -27v-51q0 -18 -8 -25.5t-27 -7.5h-51q-19 0 -27 7.5t-8 25.5z" />
<glyph unicode=";" horiz-adv-x="339" d="M49 -221q105 113 105 194q0 26 -17.5 53.5t-17.5 39.5v10q0 26 35 26h51q35 0 35 -24v-70q0 -32 -47 -117.5t-107 -146.5zM119 836v51q0 19 8 27t27 8h51q19 0 27 -8t8 -27v-51q0 -18 -8 -25.5t-27 -7.5h-51q-19 0 -27 7.5t-8 25.5z" />
<glyph unicode="&#x3c;" horiz-adv-x="716" d="M102 639v29l430 462l52 -45q-212 -226 -344 -419v-29q142 -197 344 -416l-52 -45z" />
<glyph unicode="=" horiz-adv-x="1091" d="M102 418v69h887v-69h-887zM102 795v67h887v-67h-887z" />
<glyph unicode="&#x3e;" horiz-adv-x="716" d="M133 221q202 219 344 416v29q-132 193 -344 419l51 45l430 -462v-29l-430 -463z" />
<glyph unicode="?" horiz-adv-x="784" d="M16 1264q141 51 326 51q151 0 245.5 -70t94.5 -184q0 -126 -160 -219q-67 -38 -111.5 -72t-68 -58.5t-35.5 -55.5t-14 -51t-2 -56v-139h-55q-31 133 -31 206q0 50 6.5 79t33 65.5t76.5 73.5t140 92q66 42 92.5 77.5t26.5 90.5q0 73 -68.5 121.5t-173.5 48.5 q-37 0 -64.5 -2t-58.5 -9t-45 -11t-59 -18.5t-66 -21.5zM197 16v52q0 19 7 26.5t25 7.5h54q18 0 25 -7.5t7 -26.5v-52q0 -19 -6.5 -25.5t-25.5 -6.5h-54q-19 0 -25.5 6.5t-6.5 25.5z" />
<glyph unicode="@" horiz-adv-x="1824" d="M137 471q0 111 29.5 217t82 195.5t128 165t165 128t195.5 82t217 29.5q150 0 286 -58t234.5 -156.5t157 -234.5t58.5 -286q0 -206 -110 -343.5t-277 -137.5q-52 0 -103 40t-72 93l-243 -94q-102 -39 -168 -39q-80 0 -129 53.5t-49 140.5l24 488q6 107 69.5 169t176.5 62 q53 0 178 -39l178 -55l58 78h37l-11 -133l-23 -229q-24 -229 -24 -300q0 -89 32 -134.5t107 -45.5q80 0 149 57.5t108.5 154.5t39.5 210q0 186 -92.5 344.5t-251 251t-344.5 92.5q-155 0 -296.5 -60t-243.5 -162t-162 -243.5t-60 -296.5q0 -186 92.5 -344.5t251.5 -251 t345 -92.5q158 0 307 68l20 -48q-157 -71 -332 -71q-200 0 -369 98.5t-267.5 267.5t-98.5 369zM633 266q0 -60 34.5 -97.5t90.5 -37.5q43 0 100 21l256 88q-6 24 -6 53q0 85 29 563l-191 49q-76 21 -96 21q-94 0 -141.5 -47t-53.5 -164z" />
<glyph unicode="A" horiz-adv-x="1040" d="M35 0l416 1305q55 -9 96 -9h45l416 -1296l-103 -16l-139 434h-535q-32 -139 -51.5 -269.5t-19.5 -164.5zM246 469h502l-232 725h-47l-186 -586q-19 -60 -37 -139z" />
<glyph unicode="B" horiz-adv-x="1069" d="M137 0v1296h381q158 0 255 -76t97 -200q0 -90 -50 -165t-130 -118v-4q54 -11 108.5 -41t102.5 -76.5t77.5 -117t29.5 -150.5q0 -157 -115 -252.5t-303 -95.5h-453zM240 51h358q139 0 224 83t85 218q0 149 -87 243.5t-222 94.5h-358v-639zM240 741h258q129 0 204.5 74 t75.5 191q0 107 -66 173t-175 66h-297v-504z" />
<glyph unicode="C" horiz-adv-x="966" d="M72 647q0 300 126 484t330 184h31q68 0 179.5 -26t156.5 -48l-33 -80l-155 68q-82 35 -154 35q-163 0 -263 -169t-100 -446q0 -276 100 -445t263 -169q76 0 154 33l155 71l33 -82q-45 -22 -156.5 -47.5t-179.5 -25.5h-31q-204 0 -330 183t-126 480z" />
<glyph unicode="D" horiz-adv-x="1120" d="M137 0v1296h379q240 0 386.5 -178t146.5 -469q0 -292 -147 -470.5t-386 -178.5h-379zM240 51h276q190 0 306 164.5t116 431.5q0 270 -115.5 434t-306.5 164h-276v-1194z" />
<glyph unicode="E" horiz-adv-x="954" d="M137 0v1296h733v-84q-38 0 -242 16.5t-270 16.5h-118v-504h426v-49h-426v-641h118q66 0 270 16.5t242 16.5v-84h-733z" />
<glyph unicode="F" horiz-adv-x="954" d="M137 0v1296h768v-84q-38 0 -251 16.5t-279 16.5h-135v-571h493l-2 -60q-15 0 -91 4.5t-99 4.5h-301v-623h-103z" />
<glyph unicode="G" horiz-adv-x="1095" d="M72 647q0 301 125 484.5t329 183.5h33q72 0 204.5 -32t197.5 -64l-33 -80l-223 90q-95 35 -154 35q-163 0 -262 -164t-99 -451q0 -277 99 -445.5t262 -168.5q49 0 133 31l190 65v500h-131q-23 0 -98 -4t-90 -4l-4 59h434q-8 -67 -8 -98v-584h-66l-20 88l-174 -65 q-49 -18 -105 -28.5t-86 -10.5q-204 0 -329 182.5t-125 480.5z" />
<glyph unicode="H" horiz-adv-x="1142" d="M137 0v1296h103v-555h665v555h103v-1296h-103v692h-665v-692h-103z" />
<glyph unicode="I" d="M137 0v1296h103v-1296h-103z" />
<glyph unicode="J" horiz-adv-x="591" d="M68 23l24 43q51 -15 92 -15q91 0 139 49.5t48 141.5q0 88 -6.5 252t-6.5 266v536h103v-1058q0 -114 -59 -184t-154 -70q-70 0 -180 39z" />
<glyph unicode="K" horiz-adv-x="1120" d="M137 0v1296h103v-626l678 647l71 -72q-11 -8 -84 -60t-153 -114t-144 -123l-166 -155l641 -758l-96 -45l-270 319l-334 428l-143 -141v-596h-103z" />
<glyph unicode="L" horiz-adv-x="954" d="M137 0v1296h103v-1245h137q66 0 278 16.5t250 16.5v-84h-768z" />
<glyph unicode="M" horiz-adv-x="1501" d="M119 0l35 1296h32l564 -989l561 989h37l34 -1296l-102 -2l-29 1094h-2l-82 -150l-366 -651q-48 -83 -60 -137h-20l-492 860l-30 67h-2l-11 -520q0 -7 -1 -22t-1 -23q0 -99 11.5 -291.5t11.5 -226.5z" />
<glyph unicode="N" horiz-adv-x="1177" d="M117 0q0 40 10 250t10 307v739h45l768 -1067l21 -32h2v538q0 96 -17.5 308.5t-17.5 252.5h86v-1296h-37l-766 1067l-31 53h-2v-559v-561h-71z" />
<glyph unicode="O" horiz-adv-x="1126" d="M72 651q0 298 135 481t356 183t356.5 -183t135.5 -481q0 -301 -135.5 -484t-356.5 -183t-356 183t-135 484zM184 649q0 -298 108 -454t314 -156q164 0 250 156t86 452q0 298 -108.5 455.5t-313.5 157.5q-164 0 -250 -157t-86 -454z" />
<glyph unicode="P" horiz-adv-x="1091" d="M137 0v1296h420q211 0 339 -121.5t128 -320.5q0 -215 -128 -347t-339 -132h-317v-375h-103zM240 426h317q161 0 259.5 118t98.5 310q0 177 -98.5 284t-259.5 107h-317v-819z" />
<glyph unicode="Q" horiz-adv-x="1126" d="M72 651q0 298 135 481t356 183t356.5 -183t135.5 -481q0 -280 -118.5 -460t-315.5 -205q26 -68 65.5 -104t108.5 -36q75 0 143 7v-76h-111q-58 0 -103 16t-75 47.5t-49 64.5t-35 79q-225 0 -359 182.5t-134 484.5zM184 649q0 -193 43 -323h101q29 0 54 -5t44.5 -11.5 t38 -21t31 -24.5t26 -32.5t20.5 -33.5t18 -39t14.5 -38.5l14 -42t13.5 -39.5h4q164 0 250 156t86 452q0 298 -108.5 455.5t-313.5 157.5q-164 0 -250 -157t-86 -454zM250 268q90 -203 299 -227q-36 116 -60 155q-49 78 -139 78q-13 0 -51 -2.5t-49 -3.5z" />
<glyph unicode="R" horiz-adv-x="1091" d="M137 0v1296h434q195 0 308.5 -97t113.5 -259q0 -173 -106 -278.5t-291 -112.5v-4q133 -56 203 -156l260 -369l-103 -45l-245 363q-76 113 -148.5 161t-187.5 48h-135v-547h-103zM240 598h340q140 0 222.5 92.5t82.5 251.5q0 140 -84.5 221.5t-229.5 81.5h-331v-647z" />
<glyph unicode="S" horiz-adv-x="1036" d="M102 76l33 82q45 -16 110 -43t102.5 -41.5t91 -26.5t106.5 -12q151 0 244.5 70.5t93.5 187.5q0 27 -7 53t-16.5 47t-29 43t-35 37.5t-44.5 35t-47.5 30.5t-54.5 29.5t-54 27t-58 27t-56 26.5q-45 21 -68 32t-64 32t-63 36t-53.5 37.5t-48.5 43.5t-34.5 47t-25 55t-7.5 61 q0 145 108 233.5t285 88.5h57q156 0 324 -62l-33 -79q-37 12 -102.5 39t-111.5 39t-101 12q-146 0 -235 -62.5t-89 -163.5q0 -54 25.5 -98t77.5 -81t100.5 -62t124.5 -60q3 -1 5 -2t4.5 -2t4.5 -2q45 -21 68.5 -31.5t66 -32t66 -35.5t59 -37t55.5 -42.5t43.5 -46t36 -52.5 t21 -58t8.5 -66q0 -155 -114.5 -250.5t-301.5 -95.5h-49q-173 0 -418 92z" />
<glyph unicode="T" horiz-adv-x="1091" d="M51 1217v79h989v-79q-38 0 -207 14t-235 14v-1245h-102v1245q-66 0 -236.5 -14t-208.5 -14z" />
<glyph unicode="U" horiz-adv-x="1126" d="M119 332v964h102v-1032q0 -104 89.5 -166.5t236.5 -62.5h24q172 0 278.5 82t106.5 215v403q0 96 -18 308.5t-18 252.5h88v-964q0 -157 -120 -252.5t-317 -95.5h-51q-195 0 -298 89.5t-103 258.5z" />
<glyph unicode="V" horiz-adv-x="1075" d="M51 1296l103 19l389 -1213h47l186 586q30 94 76.5 341.5t46.5 285.5l125 -17l-418 -1306q-53 8 -94 8h-45z" />
<glyph unicode="W" horiz-adv-x="1712" d="M51 1296l103 19l344 -1213h47l250 801q10 31 10 84q0 57 -18.5 167t-18.5 142h139q-12 -123 -12 -129q0 -25 12 -73l281 -992h47l178 586q30 94 76.5 341.5t46.5 285.5l127 -17l-410 -1306q-55 8 -96 8h-43l-262 915l-289 -923q-55 8 -96 8h-45z" />
<glyph unicode="X" horiz-adv-x="1040" d="M51 0l430 643l-397 653l113 17l342 -576h4l116 174q211 314 211 402l109 -17l-406 -608l416 -688l-100 -35l-375 629h-4l-125 -186q-82 -121 -152.5 -248.5t-70.5 -175.5z" />
<glyph unicode="Y" horiz-adv-x="1056" d="M35 1296l108 17l410 -783h2l107 193q41 79 86.5 174t97 227.5t51.5 188.5l127 -17l-428 -796v-500h-100v430z" />
<glyph unicode="Z" horiz-adv-x="1056" d="M86 0v55l682 1057q12 20 48 72.5t40 58.5v2h-225q-66 0 -278.5 -16.5t-250.5 -16.5v84h871v-53l-682 -1059q-8 -12 -45 -66.5t-43 -64.5v-2h274q66 0 262 16.5t234 16.5v-84h-887z" />
<glyph unicode="[" horiz-adv-x="442" d="M137 -272v1638h238v-51h-135v-1536h135v-51h-238z" />
<glyph unicode="\" horiz-adv-x="827" d="M43 1296l61 31l678 -1358l-59 -30z" />
<glyph unicode="]" horiz-adv-x="442" d="M68 -221h135v1536h-135v51h237v-1638h-237v51z" />
<glyph unicode="^" horiz-adv-x="749" d="M123 1153l221 221h64l219 -221l-35 -37l-72 72q-62 66 -145 112q-24 -12 -71 -48t-75 -64l-69 -72z" />
<glyph unicode="_" horiz-adv-x="1091" d="M102 -240h887v-102h-887v102z" />
<glyph unicode="`" horiz-adv-x="477" d="M109 1354v18h73q30 0 67 -37t66 -88l62 -112l-35 -7z" />
<glyph unicode="a" horiz-adv-x="962" d="M59 248q0 122 92 197t236 75h346v187q0 104 -64.5 159.5t-187.5 55.5q-101 0 -196 -43l-115 -52l-29 78q45 19 145 43.5t195 24.5q173 0 264 -67t91 -195v-498q0 -45 13 -113.5t21 -91.5l-86 -16l-45 127l-245 -96q-100 -39 -142 -39q-132 0 -212.5 72t-80.5 192z M166 240q0 -86 49.5 -137.5t140.5 -51.5q64 0 105 15l272 98v305h-327q-112 0 -176 -62.5t-64 -166.5z" />
<glyph unicode="b" horiz-adv-x="1024" d="M137 0v1296h103v-458l211 84q130 51 194 51q136 0 218.5 -136.5t82.5 -359.5t-82.5 -359t-218.5 -136q-72 0 -194 51l-189 76q-8 4 -24 4q-20 0 -35.5 -29.5t-20.5 -59.5l-6 -30zM240 164l243 -86q76 -25 127 -25q106 0 166 115.5t60 308.5t-60 309.5t-166 116.5 q-61 0 -127 -24l-243 -86v-629z" />
<glyph unicode="c" horiz-adv-x="870" d="M68 477q0 223 119.5 359.5t314.5 136.5q71 0 163 -17t134 -38l-31 -78l-150 57q-67 25 -102 25q-151 0 -242.5 -122.5t-91.5 -322.5q0 -199 91.5 -320.5t242.5 -121.5q43 0 102 22l150 58l31 -76q-42 -21 -134 -38t-163 -17q-195 0 -314.5 135.5t-119.5 357.5z" />
<glyph unicode="d" horiz-adv-x="1024" d="M78 477q0 223 82.5 359.5t218.5 136.5q64 0 194 -51l211 -84v458h103v-1083q0 -45 13.5 -113t21.5 -92l-82 -16l-45 131l-222 -88q-130 -51 -194 -51q-136 0 -218.5 135t-82.5 358zM188 477q0 -191 60 -307.5t158 -116.5q66 0 135 25l243 86v629l-243 86q-66 24 -135 24 q-98 0 -158 -117.5t-60 -308.5z" />
<glyph unicode="e" horiz-adv-x="972" d="M68 481q0 221 120.5 356.5t317.5 135.5q177 0 285 -111t108 -293v-61l-719 12q0 -5 -1 -16t-1 -17q0 -203 97 -327.5t255 -124.5q62 0 168 47l142 63l34 -75q-210 -86 -360 -86q-200 0 -323 136.5t-123 360.5zM182 571l613 4q0 155 -84 251t-219 96q-125 0 -208 -95 t-102 -256z" />
<glyph unicode="f" horiz-adv-x="681" d="M68 870v52h137v139q0 107 68.5 171t179.5 64q64 0 174 -39l73 -26l-16 -47l-90 28q-57 17 -102 17q-94 0 -144.5 -46.5t-50.5 -133.5q0 -17 10 -127h256v-52h-256v-870h-102v870h-137z" />
<glyph unicode="g" horiz-adv-x="1024" d="M78 477q0 223 82.5 359.5t218.5 136.5q72 0 194 -51l222 -91l45 132l47 -7v-1001q0 -133 -89.5 -215t-236.5 -82l-368 2v84q31 0 158.5 -17.5t193.5 -17.5q117 0 178 55.5t61 159.5v195l-211 -84q-130 -51 -194 -51q-136 0 -218.5 135t-82.5 358zM188 477 q0 -191 60 -307.5t158 -116.5q66 0 135 25l243 86v624l-243 91q-66 24 -135 24q-98 0 -158 -117.5t-60 -308.5z" />
<glyph unicode="h" horiz-adv-x="1048" d="M137 0v1296l103 2v-460l245 96q99 39 207 39q112 0 171 -61t59 -177v-735h-103v715q0 95 -44.5 145.5t-129.5 50.5q-61 0 -119 -20l-286 -98v-793h-103z" />
<glyph unicode="i" d="M129 1217v63q0 27 33 27h53q33 0 33 -27v-63q0 -17 -7 -24t-26 -7h-53q-19 0 -26 7t-7 24zM137 0v956h103v-956h-103z" />
<glyph unicode="j" d="M-174 -303l20 47q15 -6 48.5 -12t50.5 -6q102 0 155.5 42.5t53.5 125.5q0 11 -8.5 143.5t-8.5 183.5v735h103v-1060q0 -107 -63.5 -172.5t-166.5 -65.5q-23 0 -83 11t-101 28zM129 1217v63q0 27 33 27h53q33 0 33 -27v-63q0 -17 -7 -24t-26 -7h-53q-19 0 -26 7t-7 24z " />
<glyph unicode="k" horiz-adv-x="937" d="M137 0v1296h103v-809l518 496l71 -72q-12 -10 -83.5 -56t-149 -106t-139.5 -124l-35 -37l483 -572l-96 -45l-98 117l-349 444l-122 -118v-414h-103z" />
<glyph unicode="l" d="M137 340v956h103v-1296l-86 -4q0 11 -8.5 152t-8.5 192z" />
<glyph unicode="m" horiz-adv-x="1595" d="M137 0v956l56 7l40 -132l218 103q83 39 190 39q163 0 201 -144l223 105q83 39 190 39q103 0 158 -61.5t55 -176.5v-735h-102v715q0 95 -40.5 145.5t-117.5 50.5q-54 0 -102 -20l-256 -105q4 -32 4 -51v-735h-102v715q0 95 -40.5 145.5t-117.5 50.5q-54 0 -102 -20 l-252 -105v-786h-103z" />
<glyph unicode="n" horiz-adv-x="1048" d="M137 0v956l56 7l38 -127l254 98q99 39 207 39q112 0 171 -61t59 -177v-735h-103v715q0 95 -44.5 145.5t-129.5 50.5q-61 0 -119 -20l-286 -98v-793h-103z" />
<glyph unicode="o" horiz-adv-x="1005" d="M68 477q0 223 120 359.5t316 136.5t315 -136.5t119 -359.5t-119 -358t-315 -135q-197 0 -316.5 135t-119.5 358zM176 479q0 -205 102.5 -322.5t268.5 -117.5q138 0 210 112t72 326q0 215 -94 328t-274 113q-125 0 -205 -118.5t-80 -320.5z" />
<glyph unicode="p" horiz-adv-x="1024" d="M137 -342v1298l47 7l45 -132l222 91q122 51 194 51q136 0 218.5 -136.5t82.5 -359.5t-82.5 -358t-218.5 -135q-64 0 -194 51l-211 84v-461h-103zM240 164l243 -86q69 -25 135 -25q98 0 158 116.5t60 307.5t-60 308.5t-158 117.5q-69 0 -135 -24l-243 -91v-624z" />
<glyph unicode="q" horiz-adv-x="1024" d="M78 477q0 223 82.5 359.5t218.5 136.5q72 0 194 -51l222 -91l45 132l47 -7v-1298h-103v461l-211 -84q-130 -51 -194 -51q-136 0 -218.5 135t-82.5 358zM188 477q0 -191 60 -307.5t158 -116.5q66 0 135 25l243 86v624l-243 91q-66 24 -135 24q-98 0 -158 -117.5 t-60 -308.5z" />
<glyph unicode="r" horiz-adv-x="614" d="M137 0v956l47 9l56 -203l69 72q7 7 28.5 29t28 28t24.5 23t26 22t24.5 17t27.5 15.5t27.5 9.5t32.5 7.5t35 1.5l-14 -133h-53q-93 0 -177 -84l-79 -80v-690h-103z" />
<glyph unicode="s" horiz-adv-x="911" d="M68 55l30 78q130 -52 208 -75t149 -23q129 0 206.5 48t77.5 128q0 36 -17 67.5t-41.5 54t-68.5 46.5t-79 39t-93 37q-45 18 -70.5 29t-66.5 30t-64.5 34.5t-52 38t-44 44.5t-26 51t-10.5 61q0 103 90.5 166.5t239.5 63.5q214 0 350 -51l-30 -78q-121 49 -183 63.5 t-135 14.5q-109 0 -176 -38t-67 -100q0 -41 25 -77.5t73.5 -67t96.5 -53t118 -49.5q53 -21 84 -34t76.5 -35.5t71.5 -43.5t53 -49.5t39 -62.5t12 -74q0 -114 -107 -184t-284 -70q-196 0 -385 71z" />
<glyph unicode="t" horiz-adv-x="706" d="M35 870v52h186v200l103 47v-247q104 0 218 8t115 8v-68h-333v-307q0 -51 -8.5 -191t-8.5 -151q0 -92 47.5 -131t161.5 -39q33 0 111 23l22 -49q-52 -19 -110.5 -30t-85.5 -11q-113 0 -172.5 60.5t-59.5 176.5v649h-186z" />
<glyph unicode="u" horiz-adv-x="1048" d="M127 221v735h102v-714q0 -95 46 -146t131 -51q57 0 118 21l287 98v792h102v-956l-57 -4l-39 125l-254 -98q-99 -39 -207 -39q-112 0 -170.5 60.5t-58.5 176.5z" />
<glyph unicode="v" horiz-adv-x="911" d="M43 958l104 15l320 -871h35l65 187q78 222 134.5 433t56.5 251l112 -17l-356 -964q-49 8 -82 8h-37z" />
<glyph unicode="w" horiz-adv-x="1488" d="M47 958l105 15l288 -871h33l227 619q11 33 11 57q0 32 -12.5 93t-12.5 85h133l-12 -96l248 -758h35l65 187q52 148 91 310.5t53 253t14 120.5l129 -17l-336 -964q-49 8 -82 8h-41l-233 705l-263 -713q-51 8 -84 8h-34z" />
<glyph unicode="x" horiz-adv-x="937" d="M59 0l367 463l-342 493l117 17l291 -422h4l20 27q25 32 62 78.5t58 72.5t48.5 62t42.5 58t30 47t21 43.5t6 33.5l95 -17l-353 -450l353 -506l-105 -35l-313 455h-2l-23 -29q-16 -20 -62.5 -79t-76 -97.5t-65.5 -88.5t-54 -86t-18 -56z" />
<glyph unicode="y" horiz-adv-x="929" d="M43 958l107 15l321 -826q10 -24 16.5 -42t10.5 -31.5t4 -14.5h4l82 230q54 149 97 310t61 254t18 120l123 -17l-404 -1099q-17 -47 -35.5 -79.5t-47.5 -61.5t-72.5 -43.5t-102.5 -14.5h-157v86q23 0 83 -17.5t85 -17.5h10q88 0 135 53t47 150q0 62 -27 135z" />
<glyph unicode="z" horiz-adv-x="946" d="M68 0v35l561 737q87 112 104 129l2 4h-168q-66 0 -261.5 -16.5t-233.5 -16.5v84h807v-24l-568 -748q-85 -105 -106 -129v-4h176q66 0 262 16.5t234 16.5v-84h-809z" />
<glyph unicode="{" horiz-adv-x="579" d="M102 539v14q7 7 44 41t59.5 57t44.5 56.5t22 58.5v371q0 31 6.5 61t24 61t43.5 54t69 38t97 15v-51q-52 0 -94.5 -44t-42.5 -108v-362q0 -24 -13 -51.5t-38 -57.5t-43.5 -50t-49 -48.5t-34.5 -32.5v-31q5 -5 34.5 -32.5t48.5 -48t44 -50t38 -57t13 -51.5v-361 q0 -63 42.5 -107t94.5 -44v-51q-54 0 -97 14.5t-69 37.5t-43.5 54t-24 60.5t-6.5 60.5v371q0 25 -22 58.5t-44.5 56.5t-59.5 57t-44 41z" />
<glyph unicode="|" d="M137 -342v1962h103v-1962h-103z" />
<glyph unicode="}" horiz-adv-x="579" d="M68 -221q52 0 94.5 44t42.5 107v361q0 24 13.5 52t38 57t44.5 49.5t49 47.5t35 33v31q-6 6 -35 33t-49 48t-44.5 50t-38 57t-13.5 52v362q0 64 -42.5 108t-94.5 44v51q67 0 116 -21.5t74.5 -57.5t37 -73t11.5 -77v-371q0 -25 22 -58.5t44.5 -56.5t59.5 -57t44 -41v-14 q-7 -7 -44 -41t-59.5 -57t-44.5 -56.5t-22 -58.5v-371q0 -40 -11.5 -77t-37 -72t-74.5 -56.5t-116 -21.5v51z" />
<glyph unicode="~" horiz-adv-x="1048" d="M139 696l135 103q50 39 111 39q34 0 74 -25.5t70.5 -55.5t68 -55.5t66.5 -25.5q43 0 73.5 20.5t85.5 77.5l27 29l61 -55l-135 -103q-52 -41 -110 -41q-33 0 -73 25.5t-71 56.5t-68.5 56.5t-66.5 25.5q-43 0 -74 -20.5t-86 -77.5l-26 -27z" />
<glyph horiz-adv-x="851" />
<glyph unicode="&#xa1;" horiz-adv-x="339" d="M111 -358q3 52 11 167.5t12 181.5t7.5 160.5t3.5 172.5q0 123 -8 204h84q-8 -81 -8 -204q0 -101 5 -206t16 -262t14 -214h-137zM119 870v52q0 18 8 25t27 7h51q19 0 27 -7t8 -25v-52q0 -19 -8 -26.5t-27 -7.5h-51q-19 0 -27 7.5t-8 26.5z" />
<glyph unicode="&#xa2;" horiz-adv-x="903" d="M86 639q0 213 109.5 348.5t291.5 147.5v213h50v-213q70 -3 155 -20t123 -36l-31 -75l-147 57q-48 18 -100 22v-886q45 4 100 24l147 55l31 -75q-38 -19 -123 -36t-155 -20v-213h-50v213q-182 12 -291.5 146.5t-109.5 347.5zM199 639q0 -182 78.5 -300t209.5 -138v878 q-131 -20 -209.5 -138.5t-78.5 -301.5z" />
<glyph unicode="&#xa3;" horiz-adv-x="1107" d="M68 0v51h51q54 0 87.5 59t33.5 156v383h-121v51h121v248q0 157 102.5 252.5t271.5 95.5h25q68 0 179 -24.5t155 -46.5l-35 -78l-154 65q-81 33 -161 33q-126 0 -203.5 -63.5t-77.5 -167.5v-314l412 17l-33 -78q-15 0 -92.5 5t-100.5 5h-186v-379q0 -106 43.5 -162.5 t126.5 -56.5h27q66 0 252.5 15.5t224.5 15.5v-82h-506q-117 0 -219 102h-2q-17 -24 -26 -34.5t-31 -30.5t-51 -28.5t-66 -8.5h-47z" />
<glyph unicode="&#xa4;" horiz-adv-x="716" d="M72 422l96 90q-43 58 -43 137q0 76 43 135l-96 93l59 59l90 -98q61 45 137 45q79 0 138 -43l90 96l59 -59l-96 -93q43 -58 43 -135q0 -78 -43 -137l96 -90l-59 -60l-90 97q-61 -45 -138 -45q-75 0 -137 45l-90 -97zM176 649q0 -75 53.5 -128.5t128.5 -53.5t129 53.5 t54 128.5t-54 128.5t-129 53.5t-128.5 -53.5t-53.5 -128.5z" />
<glyph unicode="&#xa5;" horiz-adv-x="1056" d="M35 1296l108 17l410 -783h2l107 193q41 79 86.5 174t97 227.5t51.5 188.5l127 -17l-428 -796v-94l240 4v-52l-240 4v-362h-100v362l-240 -4v52l240 -4v24z" />
<glyph unicode="&#xa6;" d="M137 385h103v-795h-103v795zM137 913v725h103v-725h-103z" />
<glyph unicode="&#xa7;" horiz-adv-x="1142" d="M68 485q0 130 90.5 219.5t238.5 116.5q-170 109 -170 256q0 103 90.5 166.5t239.5 63.5q206 0 350 -54l-30 -77q-120 49 -181.5 63t-134.5 14q-109 0 -176.5 -38t-67.5 -99q0 -43 18 -81t43 -64.5t71.5 -55.5t83.5 -47t98 -46q13 -6 20 -9q45 -21 68 -31.5t65.5 -32 t66.5 -36t59 -37.5t55 -42.5t44 -46.5t36.5 -53t21 -58t8.5 -66q0 -130 -90 -219.5t-237 -116.5q80 -52 123.5 -112.5t43.5 -141.5q0 -103 -90 -166.5t-239 -63.5q-211 0 -350 52l30 77q120 -49 182 -63t136 -14q109 0 175 37.5t66 99.5q0 32 -10 61t-23 51t-41 45.5 t-48 38.5t-61.5 37t-64.5 32.5t-72 33.5q-9 4 -13 6q-47 22 -68 31.5t-65.5 31.5t-66.5 35.5t-58.5 37.5t-55.5 42.5t-44 45.5t-36.5 53t-20.5 58t-9 66zM170 522q0 -27 7 -53t16.5 -47t29 -43t34.5 -37t44.5 -35t47.5 -31t54 -29.5t54 -27t58.5 -27.5t55.5 -26l103 -49 q136 9 217.5 78.5t81.5 177.5q0 27 -7 53t-16.5 47t-29 43t-35 37.5t-44.5 35t-47.5 30.5t-54.5 29.5t-54 27t-58 27t-56 26.5q-19 9 -52.5 26.5t-47.5 24.5q-136 -9 -218.5 -79.5t-82.5 -178.5z" />
<glyph unicode="&#xa8;" horiz-adv-x="1040" d="M256 1212v95h119v-95q0 -26 -60 -26q-59 0 -59 26zM666 1212v95h118v-95q0 -26 -59 -26t-59 26z" />
<glyph unicode="&#xa9;" horiz-adv-x="1722" d="M86 649q0 158 61.5 301.5t165.5 247.5t247.5 165.5t301.5 61.5t301.5 -61.5t247.5 -165.5t165.5 -247.5t61.5 -301.5t-61.5 -301.5t-165.5 -247.5t-247.5 -165.5t-301.5 -61.5t-301.5 61.5t-247.5 165.5t-165.5 247.5t-61.5 301.5zM137 649q0 -197 97 -364.5t264 -265 t364 -97.5t364 97.5t264 265t97 364.5t-97 364t-264 264t-364 97t-364 -97t-264 -264t-97 -364zM487 666q0 196 107.5 316t282.5 120q70 0 162 -18.5t135 -39.5l-31 -69l-148 53q-20 7 -56 14t-54 7q-125 0 -202 -105.5t-77 -277.5q0 -177 77 -285.5t202 -108.5q19 0 110 27 l148 49l31 -69q-43 -21 -135 -39.5t-162 -18.5q-175 0 -282.5 123t-107.5 322z" />
<glyph unicode="&#xaa;" horiz-adv-x="808" d="M68 725q0 106 73 171t193 65h252v137q0 74 -48 120t-126 46q-68 0 -156 -35l-111 -47l-28 59q48 25 132 49.5t163 24.5q125 0 200.5 -58.5t75.5 -154.5v-406q0 -60 29 -161v-3l-88 -14l-37 92l-168 -67q-76 -31 -121 -31q-106 0 -170.5 59t-64.5 154zM172 719 q0 -66 43 -107t113 -41q28 0 67 13l191 63v262h-230q-83 0 -133.5 -52t-50.5 -138z" />
<glyph unicode="&#xab;" horiz-adv-x="733" d="M68 573v23l247 274l39 -32q-11 -12 -41.5 -45.5t-37 -41t-27 -31.5t-30 -37.5t-25.5 -37t-33 -51.5v-23q83 -114 194 -237l-39 -33zM346 573v23l248 274l37 -32q-15 -16 -42 -46t-36.5 -40.5t-28 -32t-29 -36.5t-26.5 -38t-33 -51v-23q79 -109 195 -237l-37 -33z" />
<glyph unicode="&#xac;" horiz-adv-x="1056" d="M119 496v67h803v-563h-68v496h-735z" />
<glyph unicode="&#xad;" horiz-adv-x="598" d="M102 571v68h496v-68h-496z" />
<glyph unicode="&#xae;" horiz-adv-x="1740" d="M86 649q0 158 61.5 301.5t165.5 247.5t247.5 165.5t301.5 61.5t301.5 -61.5t247.5 -165.5t165.5 -247.5t61.5 -301.5t-61.5 -301.5t-165.5 -247.5t-247.5 -165.5t-301.5 -61.5t-301.5 61.5t-247.5 165.5t-165.5 247.5t-61.5 301.5zM137 649q0 -197 97 -364.5t264 -265 t364 -97.5t364 97.5t264 265t97 364.5t-97 364t-264 264t-364 97t-364 -97t-264 -264t-97 -364zM555 197v972h281q172 0 277.5 -74.5t105.5 -197.5q0 -118 -87 -195.5t-233 -91.5l-2 -4q142 -59 209 -157l162 -230l-97 -49l-153 227q-76 113 -148.5 161t-187.5 48h-25v-409 h-102zM657 657h170q129 0 208 66.5t79 175.5q0 98 -79 158.5t-208 60.5h-170v-461z" />
<glyph unicode="&#xaf;" horiz-adv-x="749" d="M102 1194v70h547v-70h-547z" />
<glyph unicode="&#xb0;" horiz-adv-x="460" d="M86 1157q0 57 41.5 98t101.5 41t103 -41t43 -98t-43 -97t-103 -40t-101.5 40t-41.5 97zM145 1157q0 -37 24.5 -62.5t59.5 -25.5t60.5 25.5t25.5 62.5t-25.5 62.5t-60.5 25.5t-59.5 -25.5t-24.5 -62.5z" />
<glyph unicode="&#xb1;" horiz-adv-x="1091" d="M102 0v68h887v-68h-887zM119 717v67h393v428h68v-428h393v-67h-393v-426h-68v426h-393z" />
<glyph unicode="&#xb2;" horiz-adv-x="614" d="M68 811v70q8 8 56 55.5t77 77.5t75.5 84.5t73.5 97t48.5 95t21.5 95.5q0 81 -40 124.5t-114 43.5q-31 0 -61 -10l-96 -35l-19 62q29 13 81 22t97 9h49q91 0 146 -56t55 -147q0 -45 -12.5 -85.5t-38.5 -82t-67.5 -89t-99 -105t-132.5 -131.5q-4 -3 -6 -5.5t-5.5 -5.5 t-6.5 -6h378v-78h-460z" />
<glyph unicode="&#xb3;" horiz-adv-x="583" d="M39 842l22 59l93 -35q52 -20 88 -20q88 0 134 54t46 157q0 64 -32 116t-75 52h-104v37h53q41 0 71 41t30 98q0 72 -29.5 110.5t-83.5 38.5q-27 0 -57 -10l-103 -37l-22 62q29 13 85.5 23.5t100.5 10.5q89 0 142 -49t53 -131q0 -46 -22.5 -91t-61.5 -66q72 -13 113.5 -73 t41.5 -136q0 -115 -72.5 -185.5t-191.5 -70.5h-20q-46 0 -108 15t-91 30z" />
<glyph unicode="&#xb4;" horiz-adv-x="477" d="M106 1135l62 112q29 51 66 88t67 37h74v-18l-234 -226z" />
<glyph unicode="&#xb5;" horiz-adv-x="1048" d="M127 -342v1298h102v-714q0 -95 46 -146t131 -51q57 0 118 21l287 98v792h102v-956l-57 -4l-39 125l-254 -98q-99 -39 -207 -39q-138 0 -194 92v-25l33 -272q4 -20 4 -35q0 -47 -8.5 -66.5t-36.5 -19.5h-27z" />
<glyph unicode="&#xb6;" horiz-adv-x="954" d="M68 1024q0 52 17.5 97t46.5 76.5t65 54.5t73 33.5t72 10.5h477v-1568h-51v1536h-375v-1536h-51v1024q-44 0 -90.5 17t-88.5 49.5t-68.5 86t-26.5 119.5z" />
<glyph unicode="&#xb7;" horiz-adv-x="323" d="M102 657v52q0 18 8 25t27 7h51q19 0 26 -6.5t7 -25.5v-52q0 -19 -7 -26.5t-26 -7.5h-51q-19 0 -27 7.5t-8 26.5z" />
<glyph unicode="&#xb8;" horiz-adv-x="989" d="M362 -317l13 49q50 -31 100 -31q43 0 68.5 29.5t25.5 76.5q0 25 -16.5 40.5t-44.5 15.5q-22 0 -47.5 -10t-34.5 -21l-25 2l35 166h41l-22 -102q27 12 65 12q53 0 86 -32t33 -83q0 -61 -45 -99t-117 -38q-64 0 -115 25z" />
<glyph unicode="&#xb9;" horiz-adv-x="350" d="M51 1518v47l180 43v-797h-98v678q0 37 -29 37q-5 0 -53 -8z" />
<glyph unicode="&#xba;" horiz-adv-x="872" d="M68 909q0 182 101.5 294t266.5 112q166 0 267.5 -112t101.5 -294q0 -178 -101.5 -287.5t-267.5 -109.5t-267 109t-101 288zM174 909q0 -168 76 -256t221 -88q112 0 170.5 88t58.5 256q0 172 -76 262.5t-221 90.5q-112 0 -170.5 -91t-58.5 -262z" />
<glyph unicode="&#xbb;" horiz-adv-x="733" d="M102 334q116 128 195 237v23q-17 28 -33 51t-26.5 38t-29 36.5t-28 32t-36.5 40.5t-42 46l39 32l248 -274v-23l-248 -272zM379 334q111 123 194 237v23q-17 28 -33 51.5t-25.5 37t-30 37.5t-27 31.5t-37 41t-41.5 45.5l39 32l248 -274v-23l-248 -272z" />
<glyph unicode="&#xbc;" horiz-adv-x="1363" d="M119 1245v47l180 43v-796h-98v678q0 36 -29 36q-5 0 -53 -8zM154 10l956 1297l41 -31l-956 -1296zM748 100v56v2q109 138 167 273.5t58 320.5h102q0 -90 -18 -169.5t-58.5 -156.5t-80 -134.5t-107.5 -144.5h352v244h101v-244h67v-47h-67v-123h-101v123h-415z" />
<glyph unicode="&#xbd;" horiz-adv-x="1398" d="M119 1245v47l180 43v-796h-98v678q0 36 -29 36q-5 0 -53 -8zM135 10l957 1297l41 -31l-957 -1296zM862 -23v70q7 7 55.5 55t77 77.5t75.5 85t74 98t48.5 95t21.5 95.5q0 81 -39.5 124.5t-113.5 43.5q-32 0 -62 -10l-96 -35l-18 61q29 13 81 22t97 9h49q91 0 146 -56 t55 -147q0 -104 -67.5 -192.5t-279.5 -295.5q-14 -15 -22 -22h379v-78h-461z" />
<glyph unicode="&#xbe;" horiz-adv-x="1501" d="M39 569l22 60l93 -35q54 -21 88 -21q88 0 134 54t46 157q0 64 -32 116t-75 52h-104v37h53q41 0 71 41t30 98q0 72 -29.5 111t-83.5 39q-27 0 -57 -10l-103 -37l-22 61q30 14 86 24.5t100 10.5q89 0 142 -49t53 -131q0 -46 -22.5 -91.5t-61.5 -66.5q72 -13 113.5 -73 t41.5 -136q0 -115 -72.5 -185.5t-191.5 -70.5h-20q-46 0 -108 15t-91 30zM289 10l956 1297l41 -31l-956 -1296zM885 100v56v2q109 138 167 273.5t58 320.5h102q0 -90 -18 -169.5t-58.5 -156.5t-80 -134.5t-107.5 -144.5h352v244h101v-244h67v-47h-67v-123h-101v123h-415z " />
<glyph unicode="&#xbf;" horiz-adv-x="851" d="M113 -123q0 61 41 118t118 101q67 38 111.5 72t68.5 59t35.5 55.5t14 50.5t2.5 56v139h55q31 -133 31 -206q0 -50 -6.5 -79t-33 -65.5t-76.5 -73.5t-140 -92q-66 -42 -92.5 -77.5t-26.5 -90.5q0 -73 68.5 -121.5t173.5 -48.5q37 0 64.5 2t58.5 9t45 11t59 18.5t66 21.5 l28 -62q-141 -51 -325 -51q-151 0 -245.5 70t-94.5 184zM479 870v52q0 19 7 25.5t26 6.5h53q19 0 26 -6.5t7 -25.5v-52q0 -19 -7 -26.5t-26 -7.5h-53q-19 0 -26 7.5t-7 26.5z" />
<glyph unicode="&#xc0;" horiz-adv-x="1040" d="M35 0l416 1305q55 -9 96 -9h45l416 -1296l-103 -16l-139 434h-535q-32 -139 -51.5 -269.5t-19.5 -164.5zM246 469h502l-232 725h-47l-186 -586q-19 -60 -37 -139zM311 1626v19h74q30 0 67 -37t66 -88l62 -113l-35 -6z" />
<glyph unicode="&#xc1;" horiz-adv-x="1040" d="M35 0l416 1305q55 -9 96 -9h45l416 -1296l-103 -16l-139 434h-535q-32 -139 -51.5 -269.5t-19.5 -164.5zM246 469h502l-232 725h-47l-186 -586q-19 -60 -37 -139zM457 1407l61 113q29 51 66 88t67 37h74v-19l-233 -225z" />
<glyph unicode="&#xc2;" horiz-adv-x="1040" d="M35 0l416 1305q55 -9 96 -9h45l416 -1296l-103 -16l-139 434h-535q-32 -139 -51.5 -269.5t-19.5 -164.5zM246 469h502l-232 725h-47l-186 -586q-19 -60 -37 -139zM283 1427l215 218h65l215 -218l-37 -36l-65 67q-63 67 -146 113q-24 -12 -70 -48t-75 -65l-66 -67z" />
<glyph unicode="&#xc3;" horiz-adv-x="1040" d="M35 0l416 1305q55 -9 96 -9h45l416 -1296l-103 -16l-139 434h-535q-32 -139 -51.5 -269.5t-19.5 -164.5zM199 1450l71 88q50 57 121 57q25 0 55.5 -12.5t48.5 -24t54 -36.5q73 -47 108 -47t65.5 21t45 42.5t31.5 52.5l59 -39l-72 -88q-53 -57 -122 -57q-23 0 -52.5 12.5 t-47.5 23.5t-52 34q-74 51 -111 51q-28 0 -50.5 -10t-40.5 -31.5t-26.5 -35t-23.5 -40.5zM246 469h502l-232 725h-47l-186 -586q-19 -60 -37 -139z" />
<glyph unicode="&#xc4;" horiz-adv-x="1040" d="M35 0l416 1305q55 -9 96 -9h45l416 -1296l-103 -16l-139 434h-535q-32 -139 -51.5 -269.5t-19.5 -164.5zM246 469h502l-232 725h-47l-186 -586q-19 -60 -37 -139zM264 1485v94h119v-94q0 -27 -59 -27q-60 0 -60 27zM674 1485v94h119v-94q0 -27 -60 -27q-59 0 -59 27z" />
<glyph unicode="&#xc5;" horiz-adv-x="1040" d="M35 0l416 1305l2 6q-42 19 -68.5 56.5t-26.5 82.5q0 63 47.5 108.5t114.5 45.5t114.5 -45.5t47.5 -108.5q0 -45 -26 -82.5t-68 -56.5l4 -15l416 -1296l-103 -16l-139 434h-535q-32 -139 -51.5 -269.5t-19.5 -164.5zM246 469h502l-232 725h-47l-186 -586q-19 -60 -37 -139 zM410 1450q0 -47 32.5 -79t77.5 -32q50 0 80.5 31.5t30.5 79.5q0 47 -33 79t-78 32q-50 0 -80 -31.5t-30 -79.5z" />
<glyph unicode="&#xc6;" horiz-adv-x="1517" d="M35 0l418 1307q65 -11 102 -11h879v-84q-38 0 -234 16.5t-262 16.5h-84v-504h358v-49h-358v-641h84q66 0 262 16.5t234 16.5v-84h-682v418h-519q-34 -145 -57.5 -276t-23.5 -158zM246 469h506v772l-271 -12l-198 -621q-19 -60 -37 -139z" />
<glyph unicode="&#xc7;" horiz-adv-x="966" d="M72 647q0 300 126 484t330 184h31q68 0 179.5 -26t156.5 -48l-33 -80l-155 68q-82 35 -154 35q-163 0 -263 -169t-100 -446q0 -276 100 -445t263 -169q76 0 154 33l155 71l33 -82q-43 -23 -156 -48t-184 -25l-18 -84q23 10 65 10q53 0 86 -31t33 -82q0 -61 -45 -99 t-117 -38q-64 0 -115 25l13 49q50 -31 100 -31q42 0 68 29.5t26 77.5q0 25 -16.5 39t-44.5 14q-22 0 -47.5 -10t-34.5 -21l-25 4l31 148q-200 6 -321 187.5t-121 475.5z" />
<glyph unicode="&#xc8;" horiz-adv-x="954" d="M137 0v1296h733v-84q-38 0 -242 16.5t-270 16.5h-118v-504h426v-49h-426v-641h118q66 0 270 16.5t242 16.5v-84h-733zM297 1626v19h74q30 0 67 -37t66 -88l61 -113l-35 -6z" />
<glyph unicode="&#xc9;" horiz-adv-x="954" d="M137 0v1296h733v-84q-38 0 -242 16.5t-270 16.5h-118v-504h426v-49h-426v-641h118q66 0 270 16.5t242 16.5v-84h-733zM420 1407l61 113q29 51 66 88t67 37h74v-19l-233 -225z" />
<glyph unicode="&#xca;" horiz-adv-x="954" d="M137 0v1296h733v-84q-38 0 -242 16.5t-270 16.5h-118v-504h426v-49h-426v-641h118q66 0 270 16.5t242 16.5v-84h-733zM244 1427l215 218h65l215 -218l-37 -36l-65 67q-64 68 -145 113q-24 -12 -70.5 -48t-75.5 -65l-65 -67z" />
<glyph unicode="&#xcb;" horiz-adv-x="954" d="M137 0v1296h733v-84q-38 0 -242 16.5t-270 16.5h-118v-504h426v-49h-426v-641h118q66 0 270 16.5t242 16.5v-84h-733zM227 1485v94h119v-94q0 -27 -59 -27q-60 0 -60 27zM637 1485v94h119v-94q0 -27 -60 -27q-59 0 -59 27z" />
<glyph unicode="&#xcc;" d="M-31 1626v19h74q30 0 67 -37t66 -88l62 -113l-35 -6zM137 0v1296h103v-1296h-103z" />
<glyph unicode="&#xcd;" d="M115 1407l61 113q29 51 66 88t67 37h74v-19l-233 -225zM137 0v1296h103v-1296h-103z" />
<glyph unicode="&#xce;" d="M-59 1427l215 218h65l215 -218l-37 -36l-65 67q-63 67 -146 113q-24 -12 -70 -48t-75 -65l-66 -67zM137 0v1296h103v-1296h-103z" />
<glyph unicode="&#xcf;" d="M-76 1485v94h119v-94q0 -27 -59 -27q-60 0 -60 27zM137 0v1296h103v-1296h-103zM334 1485v94h119v-94q0 -27 -60 -27q-59 0 -59 27z" />
<glyph unicode="&#xd0;" horiz-adv-x="1171" d="M51 623v51h137v622h381q240 0 386.5 -178t146.5 -469q0 -292 -147 -470.5t-386 -178.5h-381v623h-137zM291 51h278q190 0 305 164t115 432q0 270 -115 434t-305 164h-278v-571h20q74 0 141 2t98 4l30 2l-2 -59h-287v-572z" />
<glyph unicode="&#xd1;" horiz-adv-x="1177" d="M117 0q0 40 10 250t10 307v739h45l768 -1067l21 -32h2v538q0 96 -17.5 308.5t-17.5 252.5h86v-1296h-37l-766 1067l-31 53h-2v-559v-561h-71zM260 1450l72 88q50 57 121 57q25 0 55.5 -13t47.5 -24t54 -36q73 -47 109 -47q27 0 50 10.5t40.5 30.5t28 36t22.5 39l60 -39 l-72 -88q-53 -57 -123 -57q-23 0 -52.5 12.5t-47.5 23.5t-52 34q-74 51 -110 51q-28 0 -50.5 -10t-40.5 -31.5t-26.5 -35t-23.5 -40.5z" />
<glyph unicode="&#xd2;" horiz-adv-x="1126" d="M72 651q0 298 135 481t356 183t356.5 -183t135.5 -481q0 -301 -135.5 -484t-356.5 -183t-356 183t-135 484zM184 649q0 -298 108 -454t314 -156q164 0 250 156t86 452q0 298 -108.5 455.5t-313.5 157.5q-164 0 -250 -157t-86 -454zM369 1645v18h73q30 0 67 -37t66 -88 l62 -113l-35 -6z" />
<glyph unicode="&#xd3;" horiz-adv-x="1126" d="M72 651q0 298 135 481t356 183t356.5 -183t135.5 -481q0 -301 -135.5 -484t-356.5 -183t-356 183t-135 484zM184 649q0 -298 108 -454t314 -156q164 0 250 156t86 452q0 298 -108.5 455.5t-313.5 157.5q-164 0 -250 -157t-86 -454zM492 1425l61 113q29 51 66 88t67 37h74 v-18l-234 -226z" />
<glyph unicode="&#xd4;" horiz-adv-x="1126" d="M72 651q0 298 135 481t356 183t356.5 -183t135.5 -481q0 -301 -135.5 -484t-356.5 -183t-356 183t-135 484zM184 649q0 -298 108 -454t314 -156q164 0 250 156t86 452q0 298 -108.5 455.5t-313.5 157.5q-164 0 -250 -157t-86 -454zM315 1446l215 217h66l215 -217l-37 -37 l-65 68q-61 65 -146 112q-24 -12 -70 -47.5t-75 -64.5l-66 -68z" />
<glyph unicode="&#xd5;" horiz-adv-x="1126" d="M72 651q0 298 135 481t356 183t356.5 -183t135.5 -481q0 -301 -135.5 -484t-356.5 -183t-356 183t-135 484zM184 649q0 -298 108 -454t314 -156q164 0 250 156t86 452q0 298 -108.5 455.5t-313.5 157.5q-164 0 -250 -157t-86 -454zM233 1468l72 88q51 58 121 58 q25 0 56 -13.5t47.5 -24t54.5 -36.5q73 -47 108 -47t65.5 21.5t45 42.5t31.5 53l59 -39l-72 -88q-54 -58 -123 -58q-23 0 -52.5 12.5t-46.5 23t-52 34.5q-74 51 -111 51q-28 0 -50.5 -10t-40.5 -31t-27 -35t-23 -40z" />
<glyph unicode="&#xd6;" horiz-adv-x="1126" d="M72 651q0 298 135 481t356 183t356.5 -183t135.5 -481q0 -301 -135.5 -484t-356.5 -183t-356 183t-135 484zM184 649q0 -298 108 -454t314 -156q164 0 250 156t86 452q0 298 -108.5 455.5t-313.5 157.5q-164 0 -250 -157t-86 -454zM299 1503v94h119v-94q0 -26 -60 -26 q-59 0 -59 26zM709 1503v94h118v-94q0 -26 -59 -26t-59 26z" />
<glyph unicode="&#xd7;" horiz-adv-x="954" d="M141 358l289 291l-289 289l47 49l289 -291l291 291l47 -49l-289 -289l289 -291l-47 -47l-291 289l-289 -289z" />
<glyph unicode="&#xd8;" horiz-adv-x="1126" d="M72 651q0 298 135 481t356 183q203 0 334 -156l90 123l41 -31l-98 -135q125 -184 125 -465q0 -301 -135.5 -484t-356.5 -183q-204 0 -334 155l-79 -110l-44 28l91 125q-125 183 -125 469zM184 649q0 -241 70 -387l592 823q-110 175 -326 175q-164 0 -250 -157t-86 -454z M281 211q108 -172 325 -172q164 0 250 156t86 452q0 243 -70 389z" />
<glyph unicode="&#xd9;" horiz-adv-x="1126" d="M119 332v964h102v-1032q0 -104 89.5 -166.5t236.5 -62.5h24q172 0 278.5 82t106.5 215v403q0 96 -18 308.5t-18 252.5h88v-964q0 -157 -120 -252.5t-317 -95.5h-51q-195 0 -298 89.5t-103 258.5zM352 1626v19h74q30 0 67 -37t66 -88l62 -113l-35 -6z" />
<glyph unicode="&#xda;" horiz-adv-x="1126" d="M119 332v964h102v-1032q0 -104 89.5 -166.5t236.5 -62.5h24q172 0 278.5 82t106.5 215v403q0 96 -18 308.5t-18 252.5h88v-964q0 -157 -120 -252.5t-317 -95.5h-51q-195 0 -298 89.5t-103 258.5zM498 1407l61 113q29 51 66 88t67 37h74v-19l-234 -225z" />
<glyph unicode="&#xdb;" horiz-adv-x="1126" d="M119 332v964h102v-1032q0 -104 89.5 -166.5t236.5 -62.5h24q172 0 278.5 82t106.5 215v403q0 96 -18 308.5t-18 252.5h88v-964q0 -157 -120 -252.5t-317 -95.5h-51q-195 0 -298 89.5t-103 258.5zM324 1427l215 218h65l215 -218l-37 -36l-65 67q-63 67 -146 113 q-24 -12 -70 -48t-75 -65l-66 -67z" />
<glyph unicode="&#xdc;" horiz-adv-x="1126" d="M119 332v964h102v-1032q0 -104 89.5 -166.5t236.5 -62.5h24q172 0 278.5 82t106.5 215v403q0 96 -18 308.5t-18 252.5h88v-964q0 -157 -120 -252.5t-317 -95.5h-51q-195 0 -298 89.5t-103 258.5zM307 1485v94h119v-94q0 -27 -59 -27q-60 0 -60 27zM717 1485v94h119v-94 q0 -27 -60 -27q-59 0 -59 27z" />
<glyph unicode="&#xdd;" horiz-adv-x="1056" d="M35 1296l108 17l410 -783h2l107 193q41 79 86.5 174t97 227.5t51.5 188.5l127 -17l-428 -796v-500h-100v430zM485 1407l62 113q29 51 66 88t67 37h74v-19l-234 -225z" />
<glyph unicode="&#xde;" horiz-adv-x="1040" d="M137 0v1296h103v-135h266q211 0 339 -112t128 -297q0 -192 -128.5 -310t-338.5 -118h-266v-324h-103zM240 375h266q161 0 259.5 104t98.5 273q0 161 -98.5 259.5t-259.5 98.5h-266v-735z" />
<glyph unicode="&#xdf;" horiz-adv-x="1116" d="M102 752v67h68v258q0 107 72 172.5t192 65.5q150 0 242 -70.5t92 -187.5q0 -38 -24 -75.5t-58.5 -67.5t-68.5 -58t-58 -57t-24 -54q0 -79 54.5 -124t219.5 -117q54 -24 94 -47t80.5 -56.5t62 -77t21.5 -94.5q0 -110 -107.5 -177.5t-277.5 -67.5q-73 0 -121 5.5t-70 12 t-69 23.5l29 73q67 -34 116 -48.5t117 -14.5q105 0 188.5 50t83.5 118q0 69 -57 124.5t-197 110.5q-63 25 -102 45t-78 50.5t-57.5 71t-18.5 93.5q0 49 24.5 92t59 74t69 60t59 62.5t24.5 68.5q0 86 -61 138t-162 52q-88 0 -141.5 -42t-53.5 -111q0 -10 4 -68t4 -68v-956 h-102v752h-68z" />
<glyph unicode="&#xe0;" horiz-adv-x="962" d="M59 248q0 122 92 197t236 75h346v187q0 104 -64.5 159.5t-187.5 55.5q-101 0 -196 -43l-115 -52l-29 78q45 19 145 43.5t195 24.5q173 0 264 -67t91 -195v-498q0 -45 13 -113.5t21 -91.5l-86 -16l-45 127l-245 -96q-100 -39 -142 -39q-132 0 -212.5 72t-80.5 192z M166 240q0 -86 49.5 -137.5t140.5 -51.5q64 0 105 15l272 98v305h-327q-112 0 -176 -62.5t-64 -166.5zM297 1354v18h74q30 0 67 -37t66 -88l61 -112l-35 -7z" />
<glyph unicode="&#xe1;" horiz-adv-x="962" d="M59 248q0 122 92 197t236 75h346v187q0 104 -64.5 159.5t-187.5 55.5q-101 0 -196 -43l-115 -52l-29 78q45 19 145 43.5t195 24.5q173 0 264 -67t91 -195v-498q0 -45 13 -113.5t21 -91.5l-86 -16l-45 127l-245 -96q-100 -39 -142 -39q-132 0 -212.5 72t-80.5 192z M166 240q0 -86 49.5 -137.5t140.5 -51.5q64 0 105 15l272 98v305h-327q-112 0 -176 -62.5t-64 -166.5zM420 1135l61 112q29 51 66 88t67 37h74v-18l-233 -226z" />
<glyph unicode="&#xe2;" horiz-adv-x="962" d="M59 248q0 122 92 197t236 75h346v187q0 104 -64.5 159.5t-187.5 55.5q-101 0 -196 -43l-115 -52l-29 78q45 19 145 43.5t195 24.5q173 0 264 -67t91 -195v-498q0 -45 13 -113.5t21 -91.5l-86 -16l-45 127l-245 -96q-100 -39 -142 -39q-132 0 -212.5 72t-80.5 192z M166 240q0 -86 49.5 -137.5t140.5 -51.5q64 0 105 15l272 98v305h-327q-112 0 -176 -62.5t-64 -166.5zM246 1155l215 217h65l215 -217l-36 -37l-66 68q-62 66 -145 112q-24 -12 -71 -48t-75 -64l-65 -68z" />
<glyph unicode="&#xe3;" horiz-adv-x="962" d="M59 248q0 122 92 197t236 75h346v187q0 104 -64.5 159.5t-187.5 55.5q-101 0 -196 -43l-115 -52l-29 78q45 19 145 43.5t195 24.5q173 0 264 -67t91 -195v-498q0 -45 13 -113.5t21 -91.5l-86 -16l-45 127l-245 -96q-100 -39 -142 -39q-132 0 -212.5 72t-80.5 192z M162 1178l71 88q50 57 121 57q25 0 56 -13.5t47.5 -24t54.5 -36.5q73 -47 109 -47q27 0 50 10.5t40.5 31t28 36.5t22.5 39l59 -39l-71 -88q-53 -57 -123 -57q-50 0 -152 69q-74 51 -110 51q-28 0 -50.5 -10t-40.5 -31t-27.5 -35t-23.5 -40zM166 240q0 -86 49.5 -137.5 t140.5 -51.5q64 0 105 15l272 98v305h-327q-112 0 -176 -62.5t-64 -166.5z" />
<glyph unicode="&#xe4;" horiz-adv-x="962" d="M59 248q0 122 92 197t236 75h346v187q0 104 -64.5 159.5t-187.5 55.5q-101 0 -196 -43l-115 -52l-29 78q45 19 145 43.5t195 24.5q173 0 264 -67t91 -195v-498q0 -45 13 -113.5t21 -91.5l-86 -16l-45 127l-245 -96q-100 -39 -142 -39q-132 0 -212.5 72t-80.5 192z M166 240q0 -86 49.5 -137.5t140.5 -51.5q64 0 105 15l272 98v305h-327q-112 0 -176 -62.5t-64 -166.5zM227 1212v95h119v-95q0 -26 -59 -26q-60 0 -60 26zM637 1212v95h119v-95q0 -26 -60 -26q-59 0 -59 26z" />
<glyph unicode="&#xe5;" horiz-adv-x="962" d="M59 248q0 122 92 197t236 75h346v187q0 104 -64.5 159.5t-187.5 55.5q-101 0 -196 -43l-115 -52l-29 78q45 19 145 43.5t195 24.5q173 0 264 -67t91 -195v-498q0 -45 13 -113.5t21 -91.5l-86 -16l-45 127l-245 -96q-100 -39 -142 -39q-132 0 -212.5 72t-80.5 192z M166 240q0 -86 49.5 -137.5t140.5 -51.5q64 0 105 15l272 98v305h-327q-112 0 -176 -62.5t-64 -166.5zM332 1178q0 63 47.5 108t114.5 45t114 -45t47 -108t-47 -108.5t-114 -45.5t-114.5 45.5t-47.5 108.5zM391 1178q0 -43 30 -73t73 -30q46 0 74 28.5t28 74.5 q0 43 -29.5 72.5t-72.5 29.5q-46 0 -74.5 -28t-28.5 -74z" />
<glyph unicode="&#xe6;" horiz-adv-x="1628" d="M59 264q0 129 95.5 209t240.5 82l338 4v148q0 104 -64.5 159.5t-187.5 55.5q-101 0 -196 -43l-115 -52l-29 78q45 19 145 43.5t195 24.5q295 0 326 -207q54 99 144.5 153t211.5 54q177 0 285 -111t108 -293v-61l-720 4v-25q0 -203 97 -327.5t255 -124.5q62 0 168 47 l139 63l37 -75q-210 -86 -361 -86q-225 0 -340 170l-92 -35l-245 -96q-100 -39 -142 -39q-132 0 -212.5 77t-80.5 203zM166 256q0 -92 52 -148.5t138 -56.5q64 0 105 15l272 98v344l-327 -4q-107 -2 -173.5 -70t-66.5 -178zM840 563l612 12q0 155 -84 251t-219 96 q-124 0 -207 -98.5t-102 -260.5z" />
<glyph unicode="&#xe7;" horiz-adv-x="870" d="M68 477q0 223 119.5 359.5t314.5 136.5q71 0 163 -17t134 -38l-31 -78l-150 57q-67 25 -102 25q-151 0 -242.5 -122.5t-91.5 -322.5q0 -199 91.5 -320.5t242.5 -121.5q43 0 102 22l150 58l31 -76q-38 -19 -123.5 -35.5t-157.5 -19.5l-20 -93q29 13 65 13q54 0 86.5 -31 t32.5 -82q0 -62 -44 -100.5t-116 -38.5q-67 0 -116 24l12 50q50 -31 102 -31q43 0 68.5 29.5t25.5 76.5q0 25 -17.5 40.5t-45.5 15.5q-22 0 -46 -10t-34 -21l-27 2l33 156q-185 8 -297 142.5t-112 350.5z" />
<glyph unicode="&#xe8;" horiz-adv-x="972" d="M68 481q0 221 120.5 356.5t317.5 135.5q177 0 285 -111t108 -293v-61l-719 12q0 -5 -1 -16t-1 -17q0 -203 97 -327.5t255 -124.5q62 0 168 47l142 63l34 -75q-210 -86 -360 -86q-200 0 -323 136.5t-123 360.5zM182 571l613 4q0 155 -84 251t-219 96q-125 0 -208 -95 t-102 -256zM297 1354v18h74q30 0 67 -37t66 -88l61 -112l-35 -7z" />
<glyph unicode="&#xe9;" horiz-adv-x="972" d="M68 481q0 221 120.5 356.5t317.5 135.5q177 0 285 -111t108 -293v-61l-719 12q0 -5 -1 -16t-1 -17q0 -203 97 -327.5t255 -124.5q62 0 168 47l142 63l34 -75q-210 -86 -360 -86q-200 0 -323 136.5t-123 360.5zM182 571l613 4q0 155 -84 251t-219 96q-125 0 -208 -95 t-102 -256zM420 1135l61 112q29 51 66 88t67 37h74v-18l-233 -226z" />
<glyph unicode="&#xea;" horiz-adv-x="972" d="M68 481q0 221 120.5 356.5t317.5 135.5q177 0 285 -111t108 -293v-61l-719 12q0 -5 -1 -16t-1 -17q0 -203 97 -327.5t255 -124.5q62 0 168 47l142 63l34 -75q-210 -86 -360 -86q-200 0 -323 136.5t-123 360.5zM182 571l613 4q0 155 -84 251t-219 96q-125 0 -208 -95 t-102 -256zM246 1155l215 217h65l215 -217l-36 -37l-66 68q-62 66 -145 112q-24 -12 -71 -48t-75 -64l-65 -68z" />
<glyph unicode="&#xeb;" horiz-adv-x="972" d="M68 481q0 221 120.5 356.5t317.5 135.5q177 0 285 -111t108 -293v-61l-719 12q0 -5 -1 -16t-1 -17q0 -203 97 -327.5t255 -124.5q62 0 168 47l142 63l34 -75q-210 -86 -360 -86q-200 0 -323 136.5t-123 360.5zM182 571l613 4q0 155 -84 251t-219 96q-125 0 -208 -95 t-102 -256zM227 1212v95h119v-95q0 -26 -59 -26q-60 0 -60 26zM637 1212v95h119v-95q0 -26 -60 -26q-59 0 -59 26z" />
<glyph unicode="&#xec;" d="M-8 1354v18h74q30 0 67 -37t66 -88l61 -112l-35 -7zM137 0v956h103v-956h-103z" />
<glyph unicode="&#xed;" d="M115 1135l61 112q29 51 66 88t67 37h74v-18l-233 -226zM137 0v956h103v-956h-103z" />
<glyph unicode="&#xee;" d="M-35 1184l191 190h65l189 -190l-37 -37l-41 41q-63 67 -144 112q-24 -12 -70 -47.5t-75 -64.5l-41 -41zM137 0v956h103v-956h-103z" />
<glyph unicode="&#xef;" d="M-35 1212v95h121v-95q0 -26 -61 -26q-60 0 -60 26zM137 0v956h103v-956h-103zM291 1212v95h119v-95q0 -26 -60 -26q-59 0 -59 26z" />
<glyph unicode="&#xf0;" horiz-adv-x="997" d="M68 512q0 184 84.5 297t222.5 113q72 0 174 -39l256 -99q-14 122 -56.5 220.5t-111.5 148.5l-125 -92l-31 41l107 80q-97 31 -129 37l-142 26l9 70q56 -6 143 -29q103 -29 174 -65l123 90l31 -41l-105 -78q96 -69 163 -216t67 -329q0 -299 -119.5 -481t-315.5 -182 q-188 0 -303.5 145.5t-115.5 382.5zM174 496q0 -207 86 -334t227 -127q148 0 237 168.5t89 445.5q0 28 -4 90l-293 99q-61 18 -96 18q-120 0 -183 -92.5t-63 -267.5z" />
<glyph unicode="&#xf1;" horiz-adv-x="1048" d="M137 0v956l56 7l38 -127l254 98q99 39 207 39q112 0 171 -61t59 -177v-735h-103v715q0 95 -44.5 145.5t-129.5 50.5q-61 0 -119 -20l-286 -98v-793h-103zM197 1178l71 88q50 57 121 57q25 0 56 -13.5t47.5 -24t54.5 -36.5q73 -47 108 -47t65.5 21.5t45 42.5t31.5 53 l59 -39l-72 -88q-53 -57 -122 -57q-50 0 -152 69q-74 51 -111 51q-28 0 -50.5 -10t-40.5 -31t-27 -35t-23 -40z" />
<glyph unicode="&#xf2;" horiz-adv-x="1005" d="M68 477q0 223 120 359.5t316 136.5t315 -136.5t119 -359.5t-119 -358t-315 -135q-197 0 -316.5 135t-119.5 358zM176 479q0 -205 102.5 -322.5t268.5 -117.5q138 0 210 112t72 326q0 215 -94 328t-274 113q-125 0 -205 -118.5t-80 -320.5zM309 1354v18h74q30 0 67 -37 t66 -88l62 -112l-35 -7z" />
<glyph unicode="&#xf3;" horiz-adv-x="1005" d="M68 477q0 223 120 359.5t316 136.5t315 -136.5t119 -359.5t-119 -358t-315 -135q-197 0 -316.5 135t-119.5 358zM176 479q0 -205 102.5 -322.5t268.5 -117.5q138 0 210 112t72 326q0 215 -94 328t-274 113q-125 0 -205 -118.5t-80 -320.5zM430 1135l62 112q29 51 66 88 t67 37h73v-18l-233 -226z" />
<glyph unicode="&#xf4;" horiz-adv-x="1005" d="M68 477q0 223 120 359.5t316 136.5t315 -136.5t119 -359.5t-119 -358t-315 -135q-197 0 -316.5 135t-119.5 358zM176 479q0 -205 102.5 -322.5t268.5 -117.5q138 0 210 112t72 326q0 215 -94 328t-274 113q-125 0 -205 -118.5t-80 -320.5zM256 1155l215 217h66l215 -217 l-37 -37l-66 68q-62 66 -145 112q-24 -12 -71 -48t-75 -64l-65 -68z" />
<glyph unicode="&#xf5;" horiz-adv-x="1005" d="M68 477q0 223 120 359.5t316 136.5t315 -136.5t119 -359.5t-119 -358t-315 -135q-197 0 -316.5 135t-119.5 358zM174 1178l72 88q50 57 121 57q23 0 51 -11t47 -23t49 -33q2 -2 3.5 -2.5t3.5 -2t3 -2.5q73 -47 109 -47q27 0 50 10.5t40.5 31t28 36.5t22.5 39l60 -39 l-72 -88q-53 -57 -123 -57q-50 0 -152 69q-74 51 -110 51q-28 0 -50.5 -10t-40.5 -31t-27 -35t-23 -40zM176 479q0 -205 102.5 -322.5t268.5 -117.5q138 0 210 112t72 326q0 215 -94 328t-274 113q-125 0 -205 -118.5t-80 -320.5z" />
<glyph unicode="&#xf6;" horiz-adv-x="1005" d="M68 477q0 223 120 359.5t316 136.5t315 -136.5t119 -359.5t-119 -358t-315 -135q-197 0 -316.5 135t-119.5 358zM176 479q0 -205 102.5 -322.5t268.5 -117.5q138 0 210 112t72 326q0 215 -94 328t-274 113q-125 0 -205 -118.5t-80 -320.5zM240 1212v95h118v-95 q0 -26 -59 -26t-59 26zM649 1212v95h119v-95q0 -26 -59 -26q-60 0 -60 26z" />
<glyph unicode="&#xf7;" horiz-adv-x="921" d="M137 649v68h647v-68h-647zM401 256v51q0 19 7.5 27t25.5 8h53q18 0 25.5 -8t7.5 -27v-51q0 -19 -7.5 -27t-25.5 -8h-53q-18 0 -25.5 8t-7.5 27zM401 1059v51q0 19 7 26t26 7h53q19 0 26 -7t7 -26v-51q0 -19 -7.5 -27t-25.5 -8h-53q-18 0 -25.5 8t-7.5 27z" />
<glyph unicode="&#xf8;" horiz-adv-x="1005" d="M68 477q0 223 120 359.5t316 136.5q174 0 289 -109l75 90l39 -32l-80 -95q111 -133 111 -350q0 -223 -119 -358t-315 -135q-175 0 -289 108l-76 -92l-39 33l80 96q-112 134 -112 348zM176 479q0 -160 68 -274l495 596q-91 117 -278 117q-125 0 -205 -118.5t-80 -320.5z M274 162q101 -123 273 -123q138 0 210 112t72 326q0 175 -59 279z" />
<glyph unicode="&#xf9;" horiz-adv-x="1048" d="M127 221v735h102v-714q0 -95 46 -146t131 -51q57 0 118 21l287 98v792h102v-956l-57 -4l-39 125l-254 -98q-99 -39 -207 -39q-112 0 -170.5 60.5t-58.5 176.5zM326 1354v18h73q30 0 67 -37t66 -88l62 -112l-35 -7z" />
<glyph unicode="&#xfa;" horiz-adv-x="1048" d="M127 221v735h102v-714q0 -95 46 -146t131 -51q57 0 118 21l287 98v792h102v-956l-57 -4l-39 125l-254 -98q-99 -39 -207 -39q-112 0 -170.5 60.5t-58.5 176.5zM449 1135l61 112q29 51 66 88t67 37h74v-18l-234 -226z" />
<glyph unicode="&#xfb;" horiz-adv-x="1048" d="M127 221v735h102v-714q0 -95 46 -146t131 -51q57 0 118 21l287 98v792h102v-956l-57 -4l-39 125l-254 -98q-99 -39 -207 -39q-112 0 -170.5 60.5t-58.5 176.5zM272 1155l215 217h66l215 -217l-37 -37l-65 68q-61 65 -146 112q-24 -12 -70 -47.5t-75 -64.5l-66 -68z" />
<glyph unicode="&#xfc;" horiz-adv-x="1048" d="M127 221v735h102v-714q0 -95 46 -146t131 -51q57 0 118 21l287 98v792h102v-956l-57 -4l-39 125l-254 -98q-99 -39 -207 -39q-112 0 -170.5 60.5t-58.5 176.5zM256 1212v95h119v-95q0 -26 -60 -26q-59 0 -59 26zM666 1212v95h118v-95q0 -26 -59 -26t-59 26z" />
<glyph unicode="&#xfd;" horiz-adv-x="929" d="M43 958l107 15l321 -826q10 -24 16.5 -42t10.5 -31.5t4 -14.5h4l82 230q54 149 97 310t61 254t18 120l123 -17l-404 -1099q-17 -47 -35.5 -79.5t-47.5 -61.5t-72.5 -43.5t-102.5 -14.5h-157v86q23 0 83 -17.5t85 -17.5h10q88 0 135 53t47 150q0 62 -27 135zM397 1135 l62 112q29 51 66 88t67 37h74v-18l-234 -226z" />
<glyph unicode="&#xfe;" horiz-adv-x="1024" d="M137 0v1296h103v-458l211 84q130 51 194 51q136 0 218.5 -136.5t82.5 -359.5t-82.5 -359t-218.5 -136q-72 0 -194 51l-211 86v-461h-103v342zM240 164l243 -86q69 -25 135 -25q98 0 158 116.5t60 307.5t-60 308.5t-158 117.5q-69 0 -135 -24l-243 -91v-624z" />
<glyph unicode="&#xff;" horiz-adv-x="929" d="M43 958l107 15l321 -826q10 -24 16.5 -42t10.5 -31.5t4 -14.5h4l82 230q54 149 97 310t61 254t18 120l123 -17l-404 -1099q-17 -47 -35.5 -79.5t-47.5 -61.5t-72.5 -43.5t-102.5 -14.5h-157v86q23 0 83 -17.5t85 -17.5h10q88 0 135 53t47 150q0 62 -27 135zM205 1212v95 h119v-95q0 -26 -60 -26q-59 0 -59 26zM614 1212v95h119v-95q0 -26 -59 -26q-60 0 -60 26z" />
<glyph unicode="&#x152;" horiz-adv-x="1734" d="M72 651q0 298 133 481t350 183q126 0 225 -70t160 -198l-6 249h717v-84q-38 0 -242 16.5t-270 16.5h-103v-504h410v-49h-410v-641h103q66 0 270 16.5t242 16.5v-84h-717l6 252q-61 -129 -160 -198.5t-225 -69.5q-217 0 -350 183.5t-133 483.5zM184 649 q0 -297 106.5 -453.5t307.5 -156.5q160 0 244 156t84 452q0 298 -106.5 455.5t-307.5 157.5q-160 0 -244 -157t-84 -454z" />
<glyph unicode="&#x153;" horiz-adv-x="1697" d="M68 477q0 223 118 359.5t310 136.5q136 0 230.5 -67.5t139.5 -190.5q45 123 141 190.5t232 67.5q173 0 279 -111t106 -293v-61l-702 12v-33q0 -204 93.5 -328t250.5 -124q51 0 157 47l142 63l34 -75q-1 -1 -19 -8.5t-29.5 -12t-36.5 -13.5t-44.5 -15t-49 -13.5 t-55.5 -12.5t-57 -8t-61 -3q-139 0 -236.5 68.5t-144.5 191.5q-45 -124 -139.5 -192t-230.5 -68q-192 0 -310 135.5t-118 357.5zM176 479q0 -215 92 -327.5t269 -112.5q134 0 205 112.5t71 325.5q0 216 -91.5 328.5t-268.5 112.5q-134 0 -205.5 -113t-71.5 -326zM926 571 l594 4q0 156 -80.5 251.5t-212.5 95.5q-124 0 -203 -94.5t-98 -256.5z" />
<glyph unicode="&#x178;" horiz-adv-x="1056" d="M35 1296l108 17l410 -783h2l107 193q41 79 86.5 174t97 227.5t51.5 188.5l127 -17l-428 -796v-500h-100v430zM293 1485v94h119v-94q0 -27 -60 -27q-59 0 -59 27zM702 1485v94h119v-94q0 -27 -59 -27q-60 0 -60 27z" />
<glyph unicode="&#x2c6;" horiz-adv-x="698" d="M102 1155l215 217h66l215 -217l-37 -37l-65 68q-61 65 -146 112q-24 -12 -70 -47.5t-75 -64.5l-66 -68z" />
<glyph unicode="&#x2dc;" horiz-adv-x="962" d="M176 1178l72 88q50 57 121 57q23 0 51 -11t47 -23t49 -33q2 -2 3.5 -2.5t3.5 -2t3 -2.5q73 -47 109 -47q27 0 50 10.5t40.5 31t28 36.5t22.5 39l60 -39l-72 -88q-53 -57 -123 -57q-50 0 -152 69q-74 51 -110 51q-28 0 -50.5 -10t-40.5 -31t-27 -35t-23 -40z" />
<glyph unicode="&#x2000;" horiz-adv-x="831" />
<glyph unicode="&#x2001;" horiz-adv-x="1663" />
<glyph unicode="&#x2002;" horiz-adv-x="831" />
<glyph unicode="&#x2003;" horiz-adv-x="1663" />
<glyph unicode="&#x2004;" horiz-adv-x="554" />
<glyph unicode="&#x2005;" horiz-adv-x="415" />
<glyph unicode="&#x2006;" horiz-adv-x="277" />
<glyph unicode="&#x2007;" horiz-adv-x="277" />
<glyph unicode="&#x2008;" horiz-adv-x="207" />
<glyph unicode="&#x2009;" horiz-adv-x="332" />
<glyph unicode="&#x200a;" horiz-adv-x="92" />
<glyph unicode="&#x2010;" horiz-adv-x="819" d="M102 571v68h615v-68h-615z" />
<glyph unicode="&#x2011;" horiz-adv-x="819" d="M102 571v68h615v-68h-615z" />
<glyph unicode="&#x2012;" horiz-adv-x="819" d="M102 571v68h615v-68h-615z" />
<glyph unicode="&#x2013;" horiz-adv-x="989" d="M102 563v51h785v-51h-785z" />
<glyph unicode="&#x2014;" horiz-adv-x="2029" d="M102 563v51h1827v-51h-1827z" />
<glyph unicode="&#x2018;" horiz-adv-x="339" d="M76 1081v70q0 32 47 117.5t106 146.5l37 -35q-104 -112 -104 -194q0 -26 17.5 -53t17.5 -39v-11q0 -26 -35 -26h-51q-35 0 -35 24z" />
<glyph unicode="&#x2019;" horiz-adv-x="339" d="M49 1102q105 113 105 194q0 26 -17.5 53.5t-17.5 39.5v10q0 26 35 26h51q35 0 35 -24v-70q0 -32 -47 -117.5t-107 -146.5z" />
<glyph unicode="&#x201a;" horiz-adv-x="339" d="M49 -221q105 113 105 194q0 26 -17.5 53.5t-17.5 39.5v10q0 26 35 26h51q35 0 35 -24v-70q0 -32 -47 -117.5t-107 -146.5z" />
<glyph unicode="&#x201c;" horiz-adv-x="595" d="M76 1081v70q0 32 47 117.5t106 146.5l37 -35q-104 -112 -104 -194q0 -26 17.5 -53t17.5 -39v-11q0 -26 -35 -26h-51q-35 0 -35 24zM332 1081v70q0 32 47 117.5t106 146.5l37 -35q-104 -112 -104 -194q0 -26 17.5 -53t17.5 -39v-11q0 -26 -35 -26h-51q-35 0 -35 24z" />
<glyph unicode="&#x201d;" horiz-adv-x="595" d="M49 1102q105 113 105 194q0 26 -17.5 53.5t-17.5 39.5v10q0 26 35 26h51q35 0 35 -24v-70q0 -32 -47 -117.5t-107 -146.5zM305 1102q105 113 105 194q0 26 -17.5 53.5t-17.5 39.5v10q0 26 35 26h51q35 0 35 -24v-70q0 -32 -47 -117.5t-107 -146.5z" />
<glyph unicode="&#x201e;" horiz-adv-x="595" d="M49 -221q105 113 105 194q0 26 -17.5 53.5t-17.5 39.5v10q0 26 35 26h51q35 0 35 -24v-70q0 -32 -47 -117.5t-107 -146.5zM305 -221q105 113 105 194q0 26 -17.5 53.5t-17.5 39.5v10q0 26 35 26h51q35 0 35 -24v-70q0 -32 -47 -117.5t-107 -146.5z" />
<glyph unicode="&#x2022;" horiz-adv-x="614" d="M137 580q0 71 50 121.5t120 50.5t120 -50.5t50 -121.5q0 -70 -49.5 -120t-120.5 -50t-120.5 50t-49.5 120z" />
<glyph unicode="&#x2026;" horiz-adv-x="1024" d="M119 16v52q0 19 8 26.5t27 7.5h51q19 0 27 -7.5t8 -26.5v-52q0 -18 -8 -25t-27 -7h-51q-19 0 -27 7t-8 25zM426 16v52q0 19 8 26.5t27 7.5h51q19 0 27 -7.5t8 -26.5v-52q0 -18 -8 -25t-27 -7h-51q-19 0 -27 7t-8 25zM733 16v52q0 19 8 26.5t27 7.5h51q19 0 27 -7.5 t8 -26.5v-52q0 -18 -8 -25t-27 -7h-51q-19 0 -27 7t-8 25z" />
<glyph unicode="&#x202f;" horiz-adv-x="332" />
<glyph unicode="&#x2039;" horiz-adv-x="481" d="M68 573v23l247 274l66 -67q-16 -16 -41.5 -42t-32.5 -33.5t-22 -24t-23.5 -29t-21.5 -31.5t-31 -49v-23q8 -12 25.5 -36t22 -30t17.5 -22.5t20 -24.5l21 -24t29 -31.5t37 -37.5l-66 -64z" />
<glyph unicode="&#x203a;" horiz-adv-x="481" d="M102 365q30 31 48.5 50t35.5 40.5t23.5 29.5t28.5 39t34 47v23q-16 26 -25.5 41t-22 32.5t-16.5 23.5t-20 23t-20.5 22t-29 30t-36.5 37l66 67l246 -274v-23l-246 -272z" />
<glyph unicode="&#x205f;" horiz-adv-x="415" />
<glyph unicode="&#x20ac;" horiz-adv-x="1130" d="M78 563l24 51h134v33q0 82 4 121h-129l26 51h111q34 229 152 362.5t290 133.5h31q68 0 179.5 -26t156.5 -48l-33 -80l-156 68q-82 35 -153 35q-135 0 -227.5 -119.5t-122.5 -325.5h536l-27 -51h-516q-6 -58 -6 -119v-35h463l-27 -51h-434q15 -242 112.5 -385t248.5 -143 q75 0 153 33l156 71l33 -82q-45 -22 -156.5 -47.5t-179.5 -25.5h-31q-190 0 -311.5 157t-140.5 422h-160z" />
<glyph unicode="&#x2122;" horiz-adv-x="1433" d="M51 1231v65h524v-65h-4q-19 0 -98 8t-111 8v-608h-98v608q-34 0 -112.5 -8t-96.5 -8h-4zM639 639l18 657h50l276 -481l277 481h53l18 -657h-98l-14 487l-17 -30l-235 -416h-19l-235 414l-8 18l-7 -188v-27q0 -50 5.5 -145t5.5 -113h-70z" />
<glyph unicode="&#xe000;" horiz-adv-x="972" d="M0 0v973h973v-973h-973z" />
</font>
</defs>
</svg>
