<?xml version="1.0" standalone="no"?>
<!DOCTYPE svg PUBLIC "-//W3C//DTD SVG 1.1//EN" "http://www.w3.org/Graphics/SVG/1.1/DTD/svg11.dtd" >
<svg xmlns="http://www.w3.org/2000/svg">
<metadata>
This is a custom SVG webfont generated by Font Squirrel.
Copyright   : Copyright 19901993 Bitstream Inc  All rights reserved
</metadata>
<defs>
<font id="ZapfHumnstBTBold" horiz-adv-x="1024" >
<font-face units-per-em="2048" ascent="1638" descent="-410" />
<missing-glyph horiz-adv-x="561" />
<glyph unicode=" "  horiz-adv-x="561" />
<glyph unicode="&#x09;" horiz-adv-x="561" />
<glyph unicode="&#xa0;" horiz-adv-x="561" />
<glyph unicode="!" horiz-adv-x="668" d="M170 137q0 68 47.5 116t116.5 48q68 0 115 -47.5t47 -116.5q0 -68 -47.5 -116t-114.5 -48q-69 0 -116.5 47.5t-47.5 116.5zM174 1251q0 88 41.5 131t124.5 43t123.5 -43t40.5 -131q0 -18 -2 -41v-6l-127 -747h-72l-127 747v6q-2 23 -2 41z" />
<glyph unicode="&#x22;" horiz-adv-x="643" d="M86 879v557h164v-557h-164zM395 879v557h164v-557h-164z" />
<glyph unicode="#" horiz-adv-x="1575" d="M70 428l61 172h297l90 252h-315l61 172h316l155 436h191l-154 -436h250l156 436h190l-154 -436h291l-59 -172h-293l-90 -252h309l-61 -172h-307l-156 -434h-191l156 434h-252l-158 -434h-190l156 434h-299zM618 598h256l91 254h-256z" />
<glyph unicode="$" horiz-adv-x="1124" d="M94 956q0 163 110.5 264.5t303.5 115.5q-3 48 -6 88.5t-6 72.5q15 -3 30.5 -4.5t30.5 -1.5q17 0 32 1.5t27 4.5q-4 -43 -6 -73t-2 -56v-30q102 -5 188.5 -31t159.5 -74q-28 -51 -45 -98.5t-24 -93.5l-25 -3q-37 96 -100 146.5t-154 56.5v-424q238 -54 336 -142t98 -243 q0 -184 -115.5 -299.5t-318.5 -132.5q0 -65 1.5 -116.5t4.5 -90.5q-14 4 -28 6t-31 2q-15 0 -29.5 -2t-29.5 -6q6 75 9 125.5t3 75.5q-144 9 -244 41.5t-162 89.5q20 61 33 120.5t19 116.5l36 7q31 -118 108 -184t210 -89v469q-226 57 -320 146.5t-94 244.5zM319 1026 q0 -71 45.5 -113.5t143.5 -62.5v387q-84 -6 -136.5 -64.5t-52.5 -146.5zM608 98q89 12 145 74t56 145q0 90 -49.5 142.5t-151.5 70.5v-432z" />
<glyph unicode="%" horiz-adv-x="1659" d="M53 1036q0 153 92.5 240.5t253.5 87.5q158 0 252 -89.5t94 -238.5t-94 -238t-252 -89q-162 0 -254 87t-92 240zM262 1036q0 -136 33.5 -202t103.5 -66q71 0 104.5 65.5t33.5 204.5q0 138 -33.5 202.5t-104.5 64.5t-104 -64t-33 -205zM289 -190l966 1712h121l-968 -1712 h-119zM913 297q0 153 92 239.5t255 86.5q158 0 252 -88.5t94 -237.5t-94 -238.5t-252 -89.5q-163 0 -255 87t-92 241zM1122 291q0 -137 34 -202.5t104 -65.5t103.5 65t33.5 205q0 138 -33.5 203t-103.5 65q-72 0 -105 -64.5t-33 -205.5z" />
<glyph unicode="&#x26;" horiz-adv-x="1460" d="M74 315q0 132 89.5 237t272.5 187q-73 90 -111 177t-38 163q0 148 104.5 234t284.5 86q150 0 236.5 -69.5t86.5 -188.5q0 -85 -59 -161.5t-205 -176.5q73 -101 152 -197.5t164 -189.5q91 98 151.5 194t91.5 190q22 -33 48.5 -59.5t58.5 -46.5q-60 -104 -129 -193 t-148 -163q71 -81 138.5 -155.5t134.5 -145.5l-1 -37q-52 5 -100 7.5t-92 2.5t-91 -2.5t-103 -7.5l-99 133q-94 -79 -207 -121.5t-229 -42.5q-183 0 -292 94.5t-109 251.5zM348 410q0 -120 77 -202.5t185 -82.5q61 0 122 20t126 62q-105 120 -196 232.5t-168 217.5 q-79 -52 -112.5 -109.5t-33.5 -137.5zM545 1157q0 -53 33 -123t96 -151q72 48 112.5 115t40.5 137q0 80 -36 122.5t-105 42.5q-67 0 -104 -37.5t-37 -105.5z" />
<glyph unicode="'" horiz-adv-x="334" d="M86 879v557h164v-557h-164z" />
<glyph unicode="(" horiz-adv-x="676" d="M139 578q0 274 101 482t311 365l51 -55q-135 -158 -198.5 -350t-63.5 -442q0 -266 64.5 -459.5t203.5 -347.5l-57 -54q-214 169 -313 375t-99 486z" />
<glyph unicode=")" horiz-adv-x="676" d="M63 1372l58 53q213 -168 312 -374.5t99 -487.5q0 -273 -100.5 -480.5t-310.5 -365.5l-51 56q136 161 200 353t64 439q0 266 -65.5 460t-205.5 347z" />
<glyph unicode="*" d="M156 932q79 29 147.5 58.5t128.5 60.5q-70 29 -221 99q-37 17 -55 26q24 30 42 64.5t31 74.5q53 -46 114 -93.5t130 -96.5q-6 70 -16 145t-25 155h6q52 -4 76 -4q15 0 33 1t49 3q-12 -76 -20.5 -152.5t-14.5 -152.5q51 38 107 83.5t120 103.5q18 -40 38.5 -74.5 t45.5 -65.5q-79 -32 -145.5 -61t-124.5 -57q74 -37 140 -67t130 -56q-19 -24 -38 -57t-39 -78q-68 55 -125.5 100t-108.5 82q1 -6 2 -18q19 -187 33 -287q-32 2 -49 3t-31 1q-13 0 -31 -1t-53 -3q20 105 29.5 176.5t11.5 127.5q-46 -37 -99.5 -79t-137.5 -107 q-17 40 -36.5 76t-43.5 70z" />
<glyph unicode="+" horiz-adv-x="1706" d="M254 528v166h514v527h170v-527h514v-166h-514v-528h-170v528h-514z" />
<glyph unicode="," horiz-adv-x="561" d="M49 -358l129 501q23 89 57 128.5t87 39.5q61 0 102 -35.5t41 -89.5q0 -21 -9 -46t-24 -46l-332 -471z" />
<glyph unicode="-" horiz-adv-x="684" d="M90 393v219h504v-219h-504z" />
<glyph unicode="." horiz-adv-x="561" d="M115 143q0 70 47.5 117t118.5 47q70 0 117.5 -47t47.5 -117q0 -69 -48.5 -118.5t-116.5 -49.5q-69 0 -117.5 49.5t-48.5 118.5z" />
<glyph unicode="/" horiz-adv-x="575" d="M-49 -190l559 1726h104l-559 -1726h-104z" />
<glyph unicode="0" horiz-adv-x="1124" d="M63 666q0 356 122 527t376 171q264 0 381 -163.5t117 -534.5q0 -358 -122.5 -528.5t-377.5 -170.5q-261 0 -378.5 163.5t-117.5 535.5zM358 666q0 -360 45 -486.5t158 -126.5q114 0 158.5 126t44.5 487q0 360 -44.5 486t-158.5 126q-113 0 -158 -127.5t-45 -484.5z" />
<glyph unicode="1" horiz-adv-x="1124" d="M123 1135q150 49 296 114t290 146l39 -21q-8 -85 -11.5 -216.5t-3.5 -475.5q0 -284 3.5 -435t10.5 -247q-42 5 -80.5 7.5t-74.5 2.5t-74 -2.5t-81 -7.5q12 181 18 366t6 373q0 115 -4 211t-13 180q-58 -25 -114.5 -53.5t-110.5 -58.5z" />
<glyph unicode="2" horiz-adv-x="1124" d="M76 1110q69 132 178.5 194t273.5 62q231 0 357.5 -99t126.5 -278q0 -99 -40 -183t-128 -169q-44 -42 -193 -163t-239 -212q78 -2 121 -3t79 -1q96 0 199 4t217 12q-5 -51 -6.5 -79t-1.5 -54q0 -43 8 -135v-6q-137 5 -254.5 7.5t-224.5 2.5t-222.5 -2.5t-244.5 -7.5v109 q329 262 469.5 465.5t140.5 408.5q0 145 -50.5 216t-154.5 71q-107 0 -174.5 -81.5t-77.5 -223.5q-32 46 -72 82.5t-87 62.5z" />
<glyph unicode="3" horiz-adv-x="1124" d="M63 102q46 70 83 128t69 112q12 -141 70.5 -211t163.5 -70t163 77t58 218q0 148 -58.5 221.5t-175.5 73.5q-34 0 -49 -0.5t-26 -1.5l-1 100q18 -2 26.5 -2.5t16.5 -1.5q118 0 174 67.5t56 209.5q0 124 -43 188t-127 64q-79 0 -128 -70t-52 -188l6 -6q-62 51 -183 155 q70 101 172.5 150t241.5 49q195 0 303.5 -86.5t108.5 -243.5q0 -111 -64.5 -181.5t-216.5 -123.5v-14q173 -25 254.5 -102.5t81.5 -215.5q0 -193 -141.5 -310.5t-376.5 -117.5q-124 0 -226.5 33.5t-179.5 99.5z" />
<glyph unicode="4" horiz-adv-x="1124" d="M70 316q3 31 4.5 59t1.5 55t-1.5 53t-4.5 52q149 215 288.5 422t270.5 407q30 -4 63.5 -6t71.5 -2q37 0 70 2t63 6q-6 -330 -9 -522.5t-3 -243.5v-53q45 1 88 4t84 8q-5 -50 -6.5 -75t-1.5 -46q0 -37 7 -113q1 -4 1 -5q-34 4 -77 7t-97 5v-64q0 -90 3.5 -151.5 t10.5 -114.5q-41 5 -78.5 7.5t-73.5 2.5q-34 0 -70.5 -2.5t-78.5 -7.5q7 70 10.5 138t3.5 134v58q-22 0 -67 1t-66 1q-98 0 -199 -4t-208 -12zM207 539q84 0 185 1.5t218 4.5v596q-107 -145 -208 -295.5t-195 -306.5z" />
<glyph unicode="5" horiz-adv-x="1124" d="M68 74q29 53 58 111.5t58 121.5h25q20 -128 75 -188t154 -60q109 0 168.5 87t59.5 247q0 148 -55 224.5t-160 76.5q-51 0 -97.5 -20t-89.5 -62l-53 33q9 43 12.5 94t3.5 131q0 138 -5 254t-15 207q38 -2 81.5 -3t129.5 -1h139q161 0 233 1t127 3q-1 -19 -1.5 -42 t-0.5 -72q0 -53 0.5 -81t1.5 -55q-83 6 -155.5 8.5t-136.5 2.5q-65 0 -134.5 -2.5t-150.5 -7.5v1q-4 -112 -14 -335q57 28 112.5 41.5t118.5 13.5q192 0 308 -102t116 -271q0 -212 -146.5 -336.5t-398.5 -124.5q-117 0 -208 26t-160 79z" />
<glyph unicode="6" horiz-adv-x="1124" d="M84 553q0 367 185 589t487 222q45 0 85.5 -5.5t75.5 -16.5l15 -113q-40 23 -81.5 35t-84.5 12q-175 0 -280 -159t-111 -437q59 67 131 99t164 32q177 0 283 -109.5t106 -293.5q0 -191 -139.5 -315t-356.5 -124q-229 0 -354 152.5t-125 431.5zM375 375q0 -158 47 -237 t141 -79q97 0 142 75.5t45 240.5q0 164 -45 239.5t-142 75.5q-100 0 -144 -73.5t-44 -241.5z" />
<glyph unicode="7" horiz-adv-x="1124" d="M182 1077q2 23 3 49t1 78t-1 78.5t-2 48.5q86 -1 185.5 -1.5t293.5 -0.5q190 0 283 0.5t171 1.5v-22q-193 -319 -362.5 -646t-315.5 -663q-34 5 -64 7.5t-57 2.5t-54.5 -2.5t-61.5 -7.5q161 253 248.5 392t117.5 190l299 495q-66 2 -142 3t-220 1q-138 0 -203.5 -1 t-118.5 -3z" />
<glyph unicode="8" horiz-adv-x="1124" d="M74 373q0 149 72.5 242.5t213.5 125.5v15q-109 23 -171 99t-62 187q0 149 116 235.5t318 86.5q211 0 322.5 -82t111.5 -238q0 -116 -60 -191t-173 -99v-13q142 -32 214.5 -124.5t72.5 -243.5q0 -184 -132.5 -294t-355.5 -110q-232 0 -359.5 105.5t-127.5 298.5zM377 375 q0 -167 44 -243.5t140 -76.5q90 0 137 81.5t47 238.5q0 160 -46 239.5t-138 79.5q-93 0 -138.5 -79t-45.5 -240zM393 1030q0 -127 41.5 -188.5t126.5 -61.5q83 0 125.5 63t42.5 187q0 134 -39.5 192t-128.5 58q-84 0 -126 -62.5t-42 -187.5z" />
<glyph unicode="9" horiz-adv-x="1124" d="M68 924q0 191 139 314.5t356 123.5q231 0 356 -152t125 -434q0 -365 -185.5 -587t-485.5 -222q-45 0 -86 6t-76 17l-16 119q39 -28 79.5 -41t85.5 -13q177 0 282.5 159t111.5 437q-59 -66 -132 -98.5t-165 -32.5q-178 0 -283.5 109.5t-105.5 294.5zM379 956 q0 -166 44 -241.5t140 -75.5q100 0 144.5 74t44.5 243q0 158 -47.5 237t-141.5 79q-96 0 -140 -75t-44 -241z" />
<glyph unicode=":" horiz-adv-x="676" d="M166 143q0 70 49 119t119 49q68 0 117 -49t49 -119t-48.5 -119t-117.5 -49q-70 0 -119 49.5t-49 118.5zM166 805q0 70 49 119t119 49q68 0 117 -49t49 -119t-48.5 -119t-117.5 -49q-70 0 -119 49t-49 119z" />
<glyph unicode=";" horiz-adv-x="676" d="M86 -367l119 508q20 85 56 126.5t89 41.5q64 0 105 -36.5t41 -92.5q0 -19 -8.5 -43t-22.5 -45l-330 -479zM172 805q0 70 48.5 119t119.5 49q70 0 118 -48.5t48 -119.5q0 -70 -48.5 -119t-117.5 -49q-68 0 -118 49.5t-50 118.5z" />
<glyph unicode="&#x3c;" horiz-adv-x="1706" d="M264 530v160l1178 486v-185l-934 -381l934 -381v-182z" />
<glyph unicode="=" horiz-adv-x="1706" d="M254 322v165h1198v-165h-1198zM254 733v168h1198v-168h-1198z" />
<glyph unicode="&#x3e;" horiz-adv-x="1706" d="M264 47v182l934 381l-934 381v185l1178 -486v-160z" />
<glyph unicode="?" horiz-adv-x="901" d="M139 1346q46 39 111.5 59t146.5 20q166 0 268.5 -79t102.5 -203q0 -75 -30 -139.5t-99 -135.5l-125 -127q-34 -35 -48.5 -64t-14.5 -59q0 -42 24.5 -66t69.5 -24q28 0 57.5 7t56.5 20l-34 -96q-43 -6 -77.5 -9.5t-60.5 -3.5q-122 0 -197 68t-75 178q0 63 27.5 122 t83.5 116l92 96q47 49 66.5 87t19.5 79q0 57 -45.5 94t-116.5 37q-56 0 -99 -26.5t-73 -79.5h-25zM283 141q0 69 48 115.5t118 46.5q68 0 114.5 -46.5t46.5 -115.5t-48 -117.5t-116 -48.5t-115.5 48.5t-47.5 117.5z" />
<glyph unicode="@" horiz-adv-x="2048" d="M98 522q0 165 52 313.5t153 272.5q147 179 353.5 272t459.5 93q166 0 315 -45.5t255 -127.5q132 -102 198 -235.5t66 -300.5q0 -162 -65 -302t-185 -237q-69 -55 -150 -83.5t-168 -28.5q-106 0 -157 40.5t-51 125.5v4q-55 -87 -128 -127.5t-176 -40.5q-152 0 -232.5 86.5 t-80.5 249.5q0 233 138 395t333 162q89 0 149 -34.5t99 -107.5l55 107h154l-148 -586q-1 -5 -2 -12q-6 -28 -6 -37q0 -38 26.5 -61t69.5 -23q51 0 107.5 30.5t105.5 84.5q72 76 110 177.5t38 215.5q0 253 -187 411t-489 158q-138 0 -256 -31t-215 -94q-181 -113 -279 -291 t-98 -395q0 -312 209.5 -499t558.5 -187q166 0 323.5 49t291.5 142l67 -99q-149 -113 -318.5 -170t-355.5 -57q-192 0 -351 48t-281 142q-155 118 -231.5 275.5t-76.5 357.5zM741 444q0 -98 45.5 -151t128.5 -53q90 0 163.5 66.5t99.5 172.5l55 228q-14 84 -61.5 130 t-122.5 46q-127 0 -217.5 -128.5t-90.5 -310.5z" />
<glyph unicode="A" horiz-adv-x="1245" d="M-29 0q149 329 291.5 683.5t280.5 741.5q22 -3 42 -4.5t40 -1.5q19 0 37.5 1.5t35.5 4.5q124 -340 266 -696t304 -729q-39 4 -82.5 6t-93.5 2t-93 -2t-84 -6q-24 77 -52.5 163.5t-82.5 248.5q-42 2 -91.5 3t-147.5 1q-99 0 -148.5 -1t-91.5 -3q-59 -174 -89.5 -259 t-55.5 -153q-29 4 -49.5 6t-38.5 2q-28 0 -86 -7q-7 -1 -11 -1zM358 547h6q117 -4 177 -4q32 0 68.5 0.5t113.5 3.5q-40 122 -84.5 239.5t-93.5 229.5q-51 -109 -97.5 -226t-89.5 -243z" />
<glyph unicode="B" horiz-adv-x="1229" d="M152 0q11 89 16.5 202t5.5 314v182q0 316 -5 455t-17 246q90 -3 154.5 -4.5t103.5 -1.5q43 0 122.5 3t114.5 3q225 0 338 -80.5t113 -241.5q0 -143 -108.5 -228.5t-307.5 -98.5v-11q228 0 339.5 -86t111.5 -264q0 -184 -127.5 -286.5t-356.5 -102.5q-56 0 -175 4t-181 4 q-37 0 -124 -7q-12 -1 -17 -1zM469 786q7 0 21 -1t20 -1q146 0 216.5 67t70.5 206q0 112 -63.5 170.5t-184.5 58.5q-11 0 -24 -0.5t-41 -3.5q-8 -52 -11.5 -115t-3.5 -139v-242zM471 408q0 -70 2 -143t6 -146q25 -6 41 -8t31 -2q126 0 194 74t68 212q0 137 -72 209t-209 72 q-23 0 -36 -0.5t-25 -2.5v-265z" />
<glyph unicode="C" horiz-adv-x="1352" d="M72 705q0 328 215.5 525t576.5 197q114 0 226.5 -25t228.5 -77q-18 -56 -31.5 -117.5t-21.5 -130.5l-29 -4q-33 109 -131 169.5t-244 60.5q-221 0 -344 -155t-123 -435q0 -302 125.5 -460.5t364.5 -158.5q103 0 207.5 40t189.5 112l25 -6l-47 -172q-98 -48 -204.5 -71.5 t-224.5 -23.5q-359 0 -559 193t-200 539z" />
<glyph unicode="D" horiz-adv-x="1577" d="M152 0q11 89 16.5 202t5.5 314v182v111q0 227 -5.5 356.5t-16.5 233.5q39 -4 77.5 -6t81.5 -2q65 0 204.5 4t213.5 4q205 0 324 -30t207 -99q110 -87 169.5 -226.5t59.5 -312.5q0 -365 -211 -548t-631 -183q-75 0 -191 3t-157 3q-40 0 -111 -4q-24 -1 -36 -2zM477 633 q0 -204 1 -310t3 -198q38 -6 73.5 -9t66.5 -3q268 0 403 150.5t135 449.5q0 301 -125.5 434t-410.5 133q-19 0 -84 -2q-34 -1 -54 -2q-4 -136 -6 -293.5t-2 -349.5z" />
<glyph unicode="E" horiz-adv-x="1030" d="M152 0q13 108 18.5 247.5t5.5 450.5v103q0 232 -5.5 363t-18.5 235q96 -4 198 -6t213 -2q112 0 204.5 2t174.5 6q-5 -34 -6.5 -53t-1.5 -35t1.5 -33.5t6.5 -52.5q-153 10 -265 15.5t-195 6.5q-4 -37 -5.5 -79t-1.5 -124v-98l1 -139q65 2 221.5 7.5t236.5 8.5 q-5 -31 -6.5 -49.5t-1.5 -36.5q0 -27 7 -82q1 -4 1 -6q-188 11 -286.5 15t-172.5 4v-246q0 -132 2 -185t6 -89q94 3 208.5 10.5t250.5 19.5q-3 -20 -4.5 -39.5t-1.5 -40.5t3 -55.5t3 -42.5q-205 6 -315 8t-178 2q-92 0 -163.5 -2.5t-133.5 -7.5z" />
<glyph unicode="F" horiz-adv-x="1016" d="M150 0q12 135 18 297.5t6 400.5q0 188 -4.5 362.5t-13.5 338.5q87 -4 183 -6t208 -2q111 0 208 2t187 6q-3 -21 -4.5 -41t-1.5 -43q0 -22 1.5 -43.5t4.5 -46.5q-105 11 -198 16.5t-177 5.5q-14 0 -42.5 -1t-40.5 -1q-6 -36 -8.5 -86t-2.5 -168v-188q125 3 238 9t214 15 q-2 -21 -3.5 -42.5t-1.5 -43.5t1.5 -43.5t4.5 -41.5q-100 8 -211 13t-237 7l-1 -357q0 -113 4 -186t12 -133q-48 5 -90 7.5t-81 2.5q-40 0 -82 -2.5t-90 -7.5z" />
<glyph unicode="G" horiz-adv-x="1522" d="M72 698q0 339 214 533t591 194q157 0 287.5 -31t236.5 -94q-26 -69 -41.5 -129t-22.5 -114h-16q-66 125 -175.5 187.5t-260.5 62.5q-233 0 -359.5 -158t-126.5 -451q0 -292 125 -448t359 -156q68 0 126.5 11.5t110.5 35.5q3 48 4.5 94.5t1.5 94.5q0 85 -4 160t-12 143 q39 -4 80 -6t88 -2q42 0 78 2t69 6q-4 -71 -6 -149.5t-2 -170.5q0 -98 1 -148t3 -93q-171 -49 -321.5 -73t-290.5 -24q-344 0 -540.5 193.5t-196.5 529.5z" />
<glyph unicode="H" horiz-adv-x="1575" d="M152 0q12 138 18 301.5t6 396.5q0 216 -6 387.5t-18 313.5q43 -6 86 -9.5t86 -3.5t86 3.5t86 9.5q-9 -91 -13 -172t-4 -156v-241q127 -6 190.5 -7.5t116.5 -1.5q54 0 117.5 1.5t190.5 7.5v241q0 75 -4 156t-13 172q43 -6 86 -9.5t86 -3.5t86 3.5t86 9.5 q-12 -142 -18 -313.5t-6 -387.5q0 -233 6 -396.5t18 -301.5q-48 5 -90.5 7.5t-81.5 2.5t-81.5 -2.5t-89.5 -7.5q7 80 11.5 156.5t4.5 148.5l-1 373q-77 3 -153 4.5t-154 1.5q-77 0 -153 -1.5t-153 -4.5l-1 -373q0 -72 4 -148.5t12 -156.5q-48 5 -90 7.5t-81 2.5 q-40 0 -82 -2.5t-90 -7.5z" />
<glyph unicode="I" horiz-adv-x="662" d="M154 0q11 135 16.5 291t5.5 407q0 243 -5.5 407.5t-16.5 293.5q44 -6 88.5 -9.5t89.5 -3.5t89 3.5t87 9.5q-12 -131 -17.5 -296t-5.5 -405q0 -261 5.5 -415.5t16.5 -282.5q-49 5 -92.5 7.5t-82.5 2.5q-41 0 -84.5 -2.5t-93.5 -7.5z" />
<glyph unicode="J" horiz-adv-x="684" d="M-74 -240h13q81 0 133.5 21.5t81.5 64.5q26 40 37.5 135.5t11.5 321.5q0 260 -6.5 534.5t-18.5 561.5q39 -4 81.5 -6t90.5 -2q49 0 91.5 2t80.5 6q-10 -159 -15 -339t-5 -384q0 -82 3 -220t3 -194q0 -192 -32.5 -295t-108.5 -174q-61 -57 -154.5 -90t-198.5 -33 q-10 0 -28.5 1.5t-42.5 4.5z" />
<glyph unicode="K" horiz-adv-x="1239" d="M152 0q12 138 18 301.5t6 396.5q0 216 -6 387.5t-18 313.5q36 -5 77.5 -7.5t94.5 -2.5t94 2.5t77 7.5q-8 -91 -12 -172t-4 -156v-311q129 138 259.5 298t262.5 340q38 -5 68 -7t59 -2t60.5 2.5t64.5 7.5q-131 -136 -266.5 -281.5t-275.5 -302.5l577 -815 q-55 5 -103.5 7.5t-92.5 2.5q-45 0 -93.5 -2.5t-103.5 -7.5q-100 160 -204 317t-212 312v-324q0 -72 4 -148.5t12 -156.5q-48 5 -90 7.5t-81 2.5q-40 0 -82 -2.5t-90 -7.5z" />
<glyph unicode="L" horiz-adv-x="975" d="M152 0q12 141 18 305t6 393q0 220 -6 391t-18 310q43 -6 86 -9.5t86 -3.5t86 3.5t86 9.5q-13 -142 -19 -313t-6 -388q0 -212 3.5 -337t10.5 -215q126 3 241 10t226 18q-3 -20 -4.5 -41.5t-1.5 -44.5q0 -21 1.5 -42.5t4.5 -45.5q-143 8 -243 11t-181 3q-73 0 -161 -3 t-215 -11z" />
<glyph unicode="M" horiz-adv-x="1839" d="M72 0q25 158 43 271t24 161l131 967q20 -4 41.5 -6t46.5 -2t47.5 2t43.5 6q110 -245 228.5 -483.5t244.5 -473.5q121 227 238 466t229 491q22 -4 45 -6t49 -2t49.5 2t44.5 6l117 -979q19 -162 34 -254.5t31 -164.5q-50 4 -92.5 6.5t-81.5 2.5t-81.5 -2.5t-87.5 -7.5 q-1 7 -2 21q-9 215 -15 266l-66 653q-115 -220 -230 -453t-235 -487q-7 2 -15.5 3t-27.5 1q-17 0 -25 -1t-15 -3q-119 250 -233 476.5t-224 430.5l-49 -425l-2 -16q-37 -331 -38 -466q-23 5 -44 7.5t-39 2.5q-20 0 -40 -2.5t-44 -7.5z" />
<glyph unicode="N" horiz-adv-x="1516" d="M133 1398q25 -3 52 -5t59 -2q31 0 58 2t52 6q209 -234 422.5 -469t431.5 -471v241q0 67 -2 260t-6 438q19 -3 40 -5t44 -2q26 0 47.5 2t40.5 5q-9 -87 -12.5 -268.5t-3.5 -584.5v-113q0 -164 3.5 -260t12.5 -172q-24 5 -45.5 7.5t-42.5 2.5q-20 0 -42.5 -2.5t-47.5 -7.5 q-191 218 -409 457.5t-484 523.5v-598q0 -37 2 -142t6 -241q-26 5 -47 7.5t-41 2.5q-19 0 -40.5 -2.5t-46.5 -7.5q10 147 16 317t6 369q0 188 -6 367t-17 345z" />
<glyph unicode="O" horiz-adv-x="1692" d="M72 678q0 350 211 548.5t585 198.5q360 0 556 -189t196 -538q0 -330 -211 -527.5t-563 -197.5q-373 0 -573.5 183t-200.5 522zM401 698q0 -286 118 -447t327 -161q206 0 324 162t118 446q0 288 -118 450.5t-324 162.5q-208 0 -326.5 -163t-118.5 -450z" />
<glyph unicode="P" horiz-adv-x="1147" d="M152 0q12 138 18 301.5t6 396.5q0 216 -6 387.5t-18 313.5q37 -4 72.5 -6t70.5 -2q42 0 155 4t185 4q241 0 353 -88.5t112 -278.5q0 -217 -139 -322.5t-424 -105.5q-12 0 -34.5 1t-33.5 1v-301q0 -25 5 -93t17 -212q-48 5 -90 7.5t-82 2.5q-39 0 -80 -2.5t-87 -7.5z M469 717q163 0 235 71.5t72 233.5q0 133 -57 198.5t-174 65.5q-19 0 -58 -3q-4 -1 -6 -1q-6 -57 -9 -113.5t-3 -113.5v-338z" />
<glyph unicode="Q" horiz-adv-x="1692" d="M72 678q0 350 211.5 548.5t586.5 198.5q360 0 555 -188.5t195 -538.5q0 -262 -136.5 -445.5t-379.5 -246.5q115 -78 246.5 -157.5t277.5 -159.5q-70 -23 -140.5 -51.5t-139.5 -63.5q-148 119 -278.5 219t-248.5 182h-10q-349 0 -544 186t-195 517zM401 698 q0 -286 118 -447t327 -161q206 0 324 162t118 446q0 288 -118 450.5t-324 162.5q-208 0 -326.5 -163t-118.5 -450z" />
<glyph unicode="R" horiz-adv-x="1241" d="M150 0q13 142 19.5 305t6.5 393q0 217 -6.5 387t-19.5 316q29 -4 57 -6t53 -2q11 0 132.5 4t232.5 4q249 0 371 -87t122 -265q0 -140 -83.5 -230t-248.5 -129l461 -690q-49 5 -94.5 7.5t-87.5 2.5q-41 0 -86 -2.5t-96 -7.5q-89 159 -192 325t-220 341v-277q0 -89 4 -185 t12 -204q-44 5 -85 7.5t-80 2.5q-38 0 -80 -2.5t-92 -7.5zM469 729h8q169 0 245.5 72t76.5 229q0 132 -67 193t-212 61q-7 0 -21.5 -1t-22.5 -1q-4 -63 -5.5 -125.5t-1.5 -122.5v-305z" />
<glyph unicode="S" horiz-adv-x="1034" d="M76 70q18 63 35 133.5t32 148.5h27q27 -119 105.5 -184.5t193.5 -65.5q104 0 166.5 56.5t62.5 150.5q0 68 -40 117t-195 133q-238 127 -309.5 219.5t-71.5 229.5q0 186 132 301.5t349 115.5q95 0 175.5 -23.5t152.5 -72.5q-21 -60 -38 -116.5t-30 -108.5h-22 q-31 91 -104.5 143.5t-170.5 52.5q-90 0 -145 -49.5t-55 -130.5q0 -68 41 -116t182 -121q31 -17 90 -45q164 -81 209 -127q55 -57 81.5 -125t26.5 -152q0 -208 -140 -334.5t-374 -126.5q-123 0 -213 24t-153 73z" />
<glyph unicode="T" horiz-adv-x="1180" d="M47 1219q1 11 3.5 43.5t2.5 52.5t-4 59q-1 16 -2 25q166 -8 296.5 -11.5t246.5 -3.5q117 0 248.5 3t295.5 12q-2 -19 -4 -41t-2 -43q0 -22 1.5 -45.5t4.5 -50.5q-80 12 -166 18t-180 6h-40q-5 -78 -7 -169t-2 -271q0 -318 5.5 -493t16.5 -310q-49 5 -92.5 7.5t-82.5 2.5 t-80.5 -2.5t-87.5 -7.5q12 154 18 325t6 373q0 69 -2 215.5t-6 329.5h-43q-94 0 -180 -6t-164 -18z" />
<glyph unicode="U" horiz-adv-x="1544" d="M152 1399q39 -4 83 -6t93 -2q48 0 89 2t79 6q-16 -161 -23.5 -343t-7.5 -401q0 -177 9.5 -251t31.5 -130q33 -85 113 -131.5t194 -46.5q110 0 193.5 39.5t132.5 114.5q40 62 56.5 161.5t16.5 325.5q0 189 -6 353.5t-18 308.5q23 -4 48.5 -6t53.5 -2q30 0 55.5 2t46.5 6 q-9 -140 -13.5 -251.5t-4.5 -193.5q0 -48 2 -149t2 -154q0 -201 -29 -312t-96 -187q-78 -90 -198.5 -134.5t-284.5 -44.5q-180 0 -311 50t-197 143q-49 68 -69.5 177t-20.5 345v180q0 193 -5 311.5t-15 219.5z" />
<glyph unicode="V" horiz-adv-x="1227" d="M-20 1399q40 -4 82.5 -6t91.5 -2q48 0 90.5 2t81.5 6q65 -187 154.5 -434t211.5 -578q98 226 193 479t188 533q23 -4 46 -6t50 -2q28 0 52.5 2t46.5 6q-157 -344 -299.5 -694t-270.5 -705q-23 5 -44.5 7.5t-41.5 2.5q-19 0 -40.5 -2.5t-45.5 -6.5q-81 230 -225 599 t-321 799z" />
<glyph unicode="W" horiz-adv-x="1976" d="M0 1399q39 -4 81.5 -6t92.5 -2q49 0 91 2t81 6q59 -257 128 -513t147 -509q97 279 183 530.5t165 491.5q24 -4 48.5 -6t53.5 -2q30 0 55.5 2t49.5 6q72 -243 154.5 -494.5t174.5 -513.5q86 246 160.5 497.5t138.5 510.5q21 -4 44 -6t50 -2t49.5 2t43.5 6 q-109 -311 -224.5 -659.5t-239.5 -739.5q-28 5 -54.5 7.5t-51.5 2.5q-23 0 -49 -2.5t-57 -7.5q-71 237 -153 484t-177 507q-92 -234 -179.5 -482t-171.5 -509q-28 5 -54 7.5t-50 2.5t-49.5 -2.5t-54.5 -7.5q-88 337 -194.5 686.5t-231.5 712.5z" />
<glyph unicode="X" horiz-adv-x="1194" d="M19 0l436 647l-432 752q43 -4 89 -6t99 -2t99 2t87 6l254 -490q77 112 151 234t146 256q25 -4 51.5 -6t57.5 -2q30 0 56.5 2t49.5 6l-440 -619l456 -779q-50 4 -96.5 6.5t-89.5 2.5t-88.5 -2.5t-99.5 -7.5l-273 518q-72 -110 -147.5 -235t-165.5 -283q-27 5 -52 7.5 t-48 2.5q-24 0 -48.5 -2.5t-51.5 -7.5z" />
<glyph unicode="Y" horiz-adv-x="1133" d="M-27 1399q43 -4 90 -6t101 -2q52 0 99 2t89 6q73 -162 152.5 -319t167.5 -310q88 152 163 309t138 320q25 -4 52 -6t58 -2q30 0 57 2t52 6q-122 -187 -233.5 -383t-212.5 -401q-4 -55 -5.5 -109.5t-1.5 -110.5q0 -89 4.5 -188t11.5 -207q-47 5 -89 7.5t-80 2.5 q-39 0 -81.5 -2.5t-90.5 -7.5q10 104 15 207t5 205q0 32 -0.5 68.5t-3.5 102.5q-97 177 -207 374t-250 442z" />
<glyph unicode="Z" horiz-adv-x="1298" d="M43 1v44q210 316 396.5 617t350.5 587q-50 3 -103.5 4.5t-111.5 1.5q-112 0 -230.5 -5t-241.5 -15l4 44q2 22 2 42t-2 40t-4 38q169 -8 302 -11.5t250 -3.5q118 0 251 3.5t302 11.5v-37q-189 -293 -374 -594t-367 -612q30 -1 65 -1.5t105 -0.5q155 0 312 6t318 18 q-4 -35 -5.5 -53t-1.5 -35q0 -29 7 -84v-6q-134 7 -282 10.5t-313 3.5t-322 -3.5t-307 -9.5z" />
<glyph unicode="[" horiz-adv-x="682" d="M158 -248q9 207 13.5 412t4.5 411q0 207 -4.5 412t-13.5 412q54 -4 111.5 -6t123.5 -2t122 2t107 6q-4 -20 -6 -30.5t-2 -18.5q0 -9 2 -19.5t6 -29.5h-17q-117 4 -167 4l-57 -1q-9 -180 -13.5 -362.5t-5.5 -366.5q0 -180 5 -363t14 -365q16 -1 49.5 -2t50.5 -1 q25 0 55.5 1t85.5 3q-4 -16 -6 -27t-2 -20q0 -7 2 -17l6 -30q-90 5 -135.5 6.5t-85.5 1.5q-55 0 -114 -2.5t-129 -7.5z" />
<glyph unicode="\" horiz-adv-x="575" d="M-49 1536h104l559 -1726h-104z" />
<glyph unicode="]" horiz-adv-x="682" d="M59 -150h18q117 -4 167 -4l57 1q9 182 13.5 364t4.5 364t-4.5 364.5t-13.5 364.5q-16 1 -49.5 2t-50.5 1q-25 0 -55.5 -1t-85.5 -3q3 10 5.5 22t2.5 25q0 12 -2 24t-6 25q45 -5 96 -7.5t116 -2.5q58 0 119.5 2.5t132.5 7.5q-9 -207 -13.5 -412t-4.5 -412q0 -206 4.5 -411 t13.5 -412q-62 5 -121 7.5t-114 2.5q-74 0 -224 -7l-6 -1q5 11 7 23t2 26q0 13 -2.5 25t-6.5 22z" />
<glyph unicode="^" horiz-adv-x="2048" d="M418 899l497 561h218l495 -561h-207l-397 397l-399 -397h-207z" />
<glyph unicode="_" d="M0 -311h1024v-172h-1024v172z" />
<glyph unicode="`" d="M188 1409q0 42 28 70t71 28q32 0 64 -18.5t81 -69.5l293 -303h-94l-348 182q-53 28 -74 52.5t-21 58.5z" />
<glyph unicode="a" horiz-adv-x="1034" d="M70 260q0 97 52 160t163 100q36 12 104 33q160 48 219 88q1 6 1.5 13.5t0.5 21.5q0 93 -53 148t-141 55q-69 0 -125.5 -39t-104.5 -119q-15 48 -25 77t-20 54q91 79 180 117.5t185 38.5q184 0 282.5 -85t98.5 -243v-10l-6 -357v-39q0 -125 27.5 -160.5t107.5 -35.5h6v-51 q-52 -22 -108 -33.5t-107 -11.5q-74 0 -121 37.5t-63 109.5q-44 -74 -115.5 -114t-161.5 -40q-129 0 -202.5 76.5t-73.5 208.5zM346 287q0 -88 32 -132t95 -44q68 0 104.5 49t36.5 141v238q-142 -29 -205 -88t-63 -164z" />
<glyph unicode="b" horiz-adv-x="1186" d="M135 0q11 134 16 314.5t5 453.5t-5 453.5t-16 314.5q51 -8 86.5 -11t67.5 -3t68.5 3.5t82.5 10.5q-5 -94 -7.5 -172.5t-2.5 -151.5v-333q56 66 123 96.5t160 30.5q179 0 285 -131t106 -353q0 -251 -125.5 -400t-335.5 -149q-90 0 -160 34t-133 108q-52 -25 -96 -53.5 t-82 -61.5h-37zM418 463q0 -212 43 -299.5t143 -87.5q109 0 156 98.5t47 333.5q0 205 -43.5 290t-145.5 85q-107 0 -153.5 -95.5t-46.5 -324.5z" />
<glyph unicode="c" horiz-adv-x="958" d="M51 485q0 234 145 377.5t382 143.5q107 0 195.5 -23t154.5 -68q-32 -72 -50 -118.5t-30 -85.5l-27 12q-26 96 -81 143t-140 47q-120 0 -189 -107t-69 -294q0 -202 76.5 -308t222.5 -106q66 0 129.5 24t120.5 71l14 -9q-7 -50 -10.5 -74t-5.5 -42q-70 -46 -147.5 -68.5 t-166.5 -22.5q-241 0 -382.5 137t-141.5 371z" />
<glyph unicode="d" horiz-adv-x="1186" d="M82 479q0 246 112 386.5t308 140.5q85 0 151.5 -33t118.5 -101v254q0 126 -2.5 224t-7.5 186q35 -4 72 -6t79 -2t80 2t72 6q-10 -135 -14 -307.5t-4 -468.5q0 -237 4.5 -427.5t13.5 -331.5q-35 5 -71.5 8t-71.5 3q-37 0 -72.5 -3t-72.5 -9q1 23 2 52t1 87 q-47 -85 -118 -125.5t-175 -40.5q-201 0 -303 127.5t-102 378.5zM381 467q0 -192 46.5 -278.5t147.5 -86.5q97 0 148 97.5t51 281.5q0 199 -46.5 297.5t-141.5 98.5q-108 0 -156.5 -97.5t-48.5 -312.5z" />
<glyph unicode="e" horiz-adv-x="1042" d="M59 506q0 224 135 362t357 138q211 0 323.5 -117t112.5 -336q0 -26 -0.5 -40t-1.5 -25l-627 -1q0 -177 84.5 -281t227.5 -104q71 0 136 24t126 73l20 -15l-45 -116q-64 -45 -150.5 -69t-187.5 -24q-239 0 -374.5 141t-135.5 390zM358 588h347q0 11 1 27.5t1 21.5 q0 139 -40.5 210t-119.5 71q-90 0 -139.5 -81t-49.5 -231v-18z" />
<glyph unicode="f" horiz-adv-x="639" d="M19 862q2 12 4 25t2 26q0 12 -2 26.5t-4 27.5q28 -3 54.5 -4.5t51.5 -1.5h33q0 99 29 194.5t87 185.5q66 103 135 149t158 46q31 0 65 -5.5t70 -17.5q-12 -59 -22.5 -123.5t-20.5 -135.5q-49 38 -94 56.5t-88 18.5q-54 0 -87.5 -29.5t-33.5 -74.5q0 -33 28 -121.5 t40 -142.5h47q38 0 76 1.5t75 4.5q-2 -24 -2.5 -34.5t-1.5 -21.5q1 -9 1.5 -18.5t2.5 -30.5q-19 1 -55 1.5t-139 0.5v-12q-4 -200 -4 -295q0 -154 4.5 -293t13.5 -264q-41 5 -77 7.5t-70 2.5q-35 0 -71.5 -2.5t-77.5 -7.5q9 127 13.5 265.5t4.5 289.5q0 95 -4 295v12 q-14 1 -30 1.5t-46 0.5q-28 0 -41.5 -0.5t-23.5 -1.5z" />
<glyph unicode="g" horiz-adv-x="1051" d="M59 -295q0 90 52 151t157 97l2 16q-62 19 -96.5 61t-34.5 101q0 69 53 128t152 101v25q-131 26 -197.5 99.5t-66.5 191.5q0 149 114.5 239.5t307.5 90.5q18 0 136.5 -8.5t219.5 -8.5q41 0 87 1.5t97 4.5v-100q-63 3 -171 7q-22 1 -31 1q53 -34 79.5 -86t26.5 -123 q0 -159 -121.5 -248.5t-339.5 -89.5h-35q-40 -4 -65 -31t-25 -67q0 -93 291 -104h11q9 -1 25 -2q187 -9 241 -39q62 -36 94.5 -98t32.5 -144q0 -189 -156 -309.5t-405 -120.5q-205 0 -320 70.5t-115 193.5zM252 -242q0 -105 70.5 -168t189.5 -63q139 0 218 57t79 158 q0 91 -51.5 135.5t-163.5 50.5l-236 13q-50 -26 -78 -74t-28 -109zM358 682q0 -126 36.5 -185t115.5 -59q82 0 118 62t36 205q0 111 -36.5 165t-111.5 54t-116.5 -63t-41.5 -179z" />
<glyph unicode="h" horiz-adv-x="1161" d="M123 0q9 108 12.5 267.5t3.5 461.5q0 320 -3.5 499t-12.5 308q42 -8 78.5 -12t70.5 -4q36 0 73 4t77 12q-10 -84 -15.5 -180t-5.5 -207v-318q56 85 135 127.5t181 42.5q74 0 135.5 -25.5t103.5 -74.5q36 -41 51 -102t15 -197q0 -20 -1 -105.5t-1 -150.5q0 -113 3 -194.5 t9 -151.5q-42 5 -80 7.5t-71 2.5q-35 0 -71.5 -2.5t-79.5 -7.5q7 87 11 208t4 269q0 223 -35 287.5t-128 64.5t-133.5 -77t-40.5 -260q0 -96 3.5 -221t9.5 -271q-40 5 -77 7.5t-72 2.5q-34 0 -71 -2.5t-78 -7.5z" />
<glyph unicode="i" horiz-adv-x="569" d="M131 1348q0 65 45 110t111 45q64 0 108.5 -45.5t44.5 -109.5q0 -65 -45 -109.5t-110 -44.5t-109.5 44.5t-44.5 109.5zM134 0q7 157 10 272.5t3 216.5q0 116 -3.5 236.5t-9.5 253.5q35 -3 73 -4.5t78 -1.5t78.5 1.5t72.5 4.5q-7 -133 -10.5 -253.5t-3.5 -236.5 q0 -101 3.5 -217t10.5 -272q-39 5 -76.5 7.5t-74.5 2.5q-36 0 -73.5 -2.5t-77.5 -7.5z" />
<glyph unicode="j" horiz-adv-x="559" d="M-66 -489q131 7 178.5 97.5t47.5 430.5q0 371 -6 609.5t-16 330.5q34 -3 69.5 -4.5t71.5 -1.5q37 0 74 1.5t73 3.5q-4 -66 -6 -131t-2 -128q0 -385 7 -752q1 -59 1 -69q0 -229 -112 -336t-359 -115zM135 1348q0 64 45 109.5t109 45.5q65 0 109 -45t44 -110t-44.5 -109.5 t-108.5 -44.5q-65 0 -109.5 44.5t-44.5 109.5z" />
<glyph unicode="k" horiz-adv-x="1034" d="M125 1q10 156 15 364.5t5 478.5q0 227 -4.5 392t-15.5 300q36 -4 74 -6t82 -2t82.5 2t72.5 6q-9 -87 -13.5 -190.5t-4.5 -268.5v-174v-383q135 137 232.5 250t164.5 211q22 -4 45 -6t49 -2t47.5 2t40.5 6l11 -8l-349 -367l377 -606q-44 5 -84.5 7.5t-79.5 2.5 q-37 0 -78 -2.5t-88 -6.5q-58 114 -129.5 232.5t-158.5 245.5v-102q0 -145 2.5 -233t7.5 -144q-41 5 -78.5 7.5t-73.5 2.5q-34 0 -70.5 -2.5t-80.5 -6.5z" />
<glyph unicode="l" horiz-adv-x="559" d="M127 0q8 173 12 361t4 403q0 228 -4 416.5t-12 355.5q49 -8 84 -11t68 -3t70 3.5t83 10.5q-8 -173 -12 -361t-4 -403q0 -228 4 -416.5t12 -355.5q-34 7 -72 10.5t-79 3.5t-79 -3.5t-75 -10.5z" />
<glyph unicode="m" horiz-adv-x="1776" d="M125 0q6 164 9 288t3 204t-3 201.5t-9 287.5q33 -4 68 -6t75 -2q42 0 76.5 2t65.5 6v-137q63 82 135.5 119.5t165.5 37.5q103 0 176 -48.5t108 -141.5q60 97 140 143.5t186 46.5q74 0 133.5 -24.5t101.5 -73.5q42 -48 59 -125t17 -278v-127q0 -86 2.5 -178.5t7.5 -194.5 q-45 5 -82.5 7.5t-72.5 2.5t-71.5 -2.5t-77.5 -7.5q9 134 13.5 248t4.5 213q0 229 -36 299.5t-128 70.5q-91 0 -129.5 -70.5t-38.5 -250.5v-324q0 -47 7 -166q1 -14 1 -20q-43 5 -80.5 7.5t-72.5 2.5t-71.5 -2.5t-80.5 -6.5q8 115 12 222t4 203q0 268 -35 336.5t-128 68.5 q-90 0 -128 -70t-38 -251v-324q0 -48 7 -167q1 -13 0 -19q-38 5 -74.5 7.5t-72.5 2.5q-33 0 -69 -2.5t-80 -7.5z" />
<glyph unicode="n" horiz-adv-x="1165" d="M125 0q8 136 12 257t4 232q0 125 -4 248t-12 244q32 -4 66.5 -6t74.5 -2t73.5 2t63.5 6v-143q63 83 141 123t175 40q75 0 137 -25.5t105 -74.5q34 -40 48.5 -98.5t14.5 -200.5q0 -20 -1 -105.5t-1 -150.5q0 -96 3.5 -181t10.5 -165q-43 5 -80.5 7.5t-72.5 2.5t-71.5 -2.5 t-79.5 -7.5q7 87 11.5 208t4.5 269q0 223 -35.5 287.5t-128.5 64.5t-133.5 -77t-40.5 -260q0 -86 3 -209t8 -283q-38 5 -75 7.5t-72 2.5q-34 0 -71 -2.5t-78 -7.5z" />
<glyph unicode="o" horiz-adv-x="1139" d="M57 489q0 245 136 381t378 136q246 0 379 -134.5t133 -382.5q0 -243 -135.5 -378.5t-378.5 -135.5q-244 0 -378 135t-134 379zM358 489q0 -233 48.5 -328t162.5 -95q115 0 164 95.5t49 327.5q0 233 -49 329.5t-164 96.5q-114 0 -162.5 -95.5t-48.5 -330.5z" />
<glyph unicode="p" horiz-adv-x="1186" d="M129 -559q8 102 11 222t3 302q0 346 -3.5 595t-10.5 420q33 -3 69 -5t76 -2t75 2t67 6v-127q59 78 132 115t169 37q177 0 284 -141t107 -376q0 -242 -108 -378t-300 -136q-104 0 -171.5 35t-108.5 109v-213q0 -116 3 -232t9 -233q-37 7 -75.5 10.5t-80.5 3.5 q-40 0 -76.5 -3.5t-70.5 -10.5zM416 485q0 -196 48 -288.5t150 -92.5t147.5 89t45.5 292q0 199 -48 291t-151 92q-96 0 -144 -95.5t-48 -287.5z" />
<glyph unicode="q" horiz-adv-x="1186" d="M82 492q0 241 105.5 377.5t291.5 136.5q88 0 156.5 -36t132.5 -116v127q32 -4 67 -6t76 -2t77 2t68 6q-9 -140 -13.5 -311t-4.5 -400q0 -338 4.5 -519t14.5 -310q-35 7 -72.5 10.5t-79.5 3.5q-41 0 -79.5 -3.5t-75.5 -10.5q8 123 12 224.5t4 187.5v266 q-42 -72 -110.5 -109t-163.5 -37q-194 0 -302 137t-108 382zM383 492q0 -197 47.5 -293.5t144.5 -96.5q100 0 149.5 101t49.5 303q0 179 -48.5 269.5t-143.5 90.5q-103 0 -151 -90t-48 -284z" />
<glyph unicode="r" horiz-adv-x="780" d="M125 1q7 101 10.5 222.5t3.5 268.5q0 183 -3.5 294t-10.5 195q32 -4 67 -6t76 -2q40 0 75 2t66 6q-5 -95 -7.5 -157t-1.5 -105h10q36 141 116.5 214t198.5 73h10q-6 -37 -9 -74t-3 -74q0 -38 3 -76.5t9 -76.5q-42 15 -74.5 22.5t-58.5 7.5q-101 0 -146.5 -69t-45.5 -222 q0 -118 4.5 -230t13.5 -214q-41 5 -78.5 7.5t-73.5 2.5q-34 0 -70.5 -2.5t-80.5 -6.5z" />
<glyph unicode="s" horiz-adv-x="895" d="M86 670q0 150 102.5 242t272.5 92q79 0 152 -21.5t143 -64.5q-21 -47 -36 -95t-24 -98h-20q-45 94 -105.5 141t-136.5 47q-64 0 -105.5 -35.5t-41.5 -91.5q0 -46 30 -76.5t144 -74.5q223 -87 278.5 -149t55.5 -164q0 -156 -107.5 -252.5t-281.5 -96.5q-96 0 -170 19.5 t-135 60.5q5 37 22 191l4 37h29q33 -101 102.5 -156t161.5 -55q73 0 113 36t40 101q0 83 -198 165q-27 11 -41 17q-141 59 -194.5 121.5t-53.5 159.5z" />
<glyph unicode="t" horiz-adv-x="659" d="M15 860q2 11 2.5 21t0.5 32t-1 33.5t-2 20.5q4 -1 12 -2q73 -7 104 -7l23 1q1 14 1.5 30t0.5 49q0 40 -2 85t-6 112q71 27 140 57t134 62l22 -17q-6 -117 -9 -195.5t-3 -119.5v-64q56 0 104.5 2t94.5 6q-3 -23 -3.5 -33t-0.5 -20q0 -17 3 -47q1 -4 0 -6q-24 1 -63 1.5 t-139 0.5q0 -15 -1 -47q-7 -211 -7 -301v-82q0 -234 23 -290t89 -56q33 0 118 22l1 1v-76q-67 -30 -124.5 -44t-110.5 -14q-131 0 -200 69.5t-69 201.5q0 5 3.5 174.5t3.5 333.5v108h-37q-41 0 -62.5 -0.5t-39.5 -1.5z" />
<glyph unicode="u" horiz-adv-x="1161" d="M121 981q34 -4 72 -6t81 -2q44 0 81.5 2t70.5 6q-8 -129 -12 -245.5t-4 -217.5q0 -228 35.5 -297t127.5 -69q91 0 128.5 70t37.5 249v326q0 32 -1.5 78.5t-3.5 105.5q34 -4 70.5 -6t78.5 -2q41 0 77.5 2t69.5 6q-6 -123 -9 -245.5t-3 -243.5q0 -123 3 -246t9 -246 q-39 5 -73.5 7.5t-65.5 2.5q-32 0 -67 -2.5t-74 -7.5v139q-66 -82 -141.5 -120.5t-172.5 -38.5q-158 0 -230.5 89t-72.5 285v113q0 116 -3 244t-9 270z" />
<glyph unicode="v" horiz-adv-x="991" d="M8 981q36 -4 75.5 -6t84.5 -2q46 0 86 2t76 6l239 -707q55 148 114 315t136 392q20 -4 40 -6t44 -2q23 0 43.5 2t38.5 6q-109 -248 -205 -493.5t-178 -487.5q-30 5 -58.5 7.5t-54.5 2.5q-25 0 -52 -2.5t-60 -7.5q-78 228 -170.5 474t-198.5 507z" />
<glyph unicode="w" horiz-adv-x="1491" d="M4 981q33 -4 70 -6t80 -2q42 0 79 2t70 6q64 -227 112 -394t87 -298q60 186 110.5 358.5t92.5 333.5q26 -4 55 -6t63 -2q33 0 62 2t55 6q43 -160 93 -333t106 -359q66 215 116 383.5t91 308.5q17 -4 37 -6t42 -2t41 2t37 6q-90 -238 -173 -483t-159 -498q-30 5 -58 7.5 t-54 2.5q-25 0 -52.5 -2.5t-59.5 -7.5q-39 138 -88 300.5t-114 365.5q-51 -160 -102 -325.5t-102 -339.5q-31 4 -59.5 6.5t-55.5 2.5q-26 0 -53.5 -2.5t-61.5 -6.5q-62 216 -136 453.5t-171 526.5z" />
<glyph unicode="x" horiz-adv-x="961" d="M7 1q13 16 133 169t214 272q-77 132 -163 266.5t-181 272.5q40 -4 83 -6t91 -2q49 0 91 2t79 6l181 -342q57 80 114 165.5t113 176.5q22 -4 45.5 -6t50.5 -2t50.5 2t43.5 6q-93 -107 -179.5 -213t-164.5 -209l348 -559q-46 5 -87 7.5t-78 2.5t-77.5 -2.5t-88.5 -7.5 l-201 365q-82 -122 -138 -208t-99 -156q-27 4 -48.5 6.5t-42.5 2.5q-20 0 -42.5 -2.5t-46.5 -6.5z" />
<glyph unicode="y" horiz-adv-x="981" d="M8 981q36 -4 75.5 -6t84.5 -2t84.5 2t75.5 6q50 -150 111 -308t132 -325l238 633q19 -4 40 -6t44 -2q24 0 45 2t39 6q-177 -392 -340.5 -777t-313.5 -763q-19 3 -40.5 4.5t-44.5 1.5t-46.5 -1.5t-49.5 -4.5q30 47 62.5 106.5t69.5 139.5l152 313z" />
<glyph unicode="z" horiz-adv-x="952" d="M12 33q115 173 358 545l191 292q-64 3 -99.5 3.5t-68.5 0.5q-83 0 -263 -7q-16 0 -23 -1q2 11 3 22t1 34t-1 35t-3 22q92 -4 192.5 -6t214.5 -2q115 0 213 2t186 6v-25q-72 -108 -200.5 -305.5t-345.5 -533.5q74 -3 110.5 -3.5t69.5 -0.5q93 0 181.5 3.5t174.5 9.5 q-2 -19 -3 -33t-1 -25t1 -25t3 -41q-90 5 -194.5 7.5t-241.5 2.5q-136 0 -246 -2.5t-208 -7.5z" />
<glyph unicode="{" d="M162 442v179q7 0 21.5 -1.5t21.5 -1.5q126 0 178.5 59t52.5 202v247q0 145 23 206.5t80 94.5q44 27 109 38.5t181 11.5h45v-179q-8 0 -24 1t-23 1q-109 0 -147.5 -41.5t-38.5 -173.5v-241q0 -155 -44 -220.5t-159 -93.5q114 -27 158.5 -92.5t44.5 -220.5v-240 q0 -132 39.5 -174.5t148.5 -42.5q7 0 22 1t23 1v-176h-63q-102 0 -165.5 12t-106.5 37q-57 34 -80 96t-23 203v248q0 144 -52.5 203t-178.5 59q-7 0 -21.5 -1t-21.5 -1z" />
<glyph unicode="|" d="M424 -483v2048h178v-2048h-178z" />
<glyph unicode="}" d="M152 -238q8 0 23 -1t22 -1q109 0 147.5 42t38.5 175v240q0 153 45 219t160 94q-115 28 -160 93.5t-45 220.5v241q0 132 -38 173.5t-146 41.5q-7 0 -23 -1t-24 -1v179h45q115 0 179.5 -11.5t108.5 -38.5q57 -33 80 -95t23 -206v-247q0 -144 52 -202.5t179 -58.5 q6 0 21 1.5t22 1.5v-179q-7 0 -21.5 1t-21.5 1q-126 0 -178.5 -59t-52.5 -203v-248q0 -143 -23 -204t-80 -95q-43 -26 -108 -37.5t-180 -11.5h-45v176z" />
<glyph unicode="~" horiz-adv-x="1706" d="M178 434v187q106 72 202 107.5t185 35.5q62 0 125.5 -12t168.5 -48q13 -4 42 -15q164 -58 250 -58q85 0 177 37t202 116v-184q-103 -71 -197.5 -106t-183.5 -35q-44 0 -92.5 8.5t-98.5 26.5q-25 8 -76 26q-212 74 -319 74q-82 0 -174 -38t-211 -122z" />
<glyph unicode="&#xa1;" horiz-adv-x="668" d="M170 150q0 18 2 41v6l127 747h72l127 -747v-6q2 -23 2 -41q0 -88 -41.5 -131.5t-124.5 -43.5t-123.5 43.5t-40.5 131.5zM178 1262q0 67 47.5 115t114.5 48q69 0 116.5 -47t47.5 -116t-48 -116.5t-116 -47.5t-115 47.5t-47 116.5z" />
<glyph unicode="&#xa2;" horiz-adv-x="1124" d="M127 506q0 226 132.5 364t360.5 152q-1 47 -4 92.5t-7 89.5h112q-3 -36 -4.5 -82.5t-1.5 -101.5q81 -2 152.5 -23t133.5 -61q-25 -58 -44 -108.5t-33 -96.5l-29 12q-23 85 -69 133t-111 56v-811q5 -1 13 -1.5t26 -0.5q68 0 117 25.5t81 76.5l13 -4q-5 -31 -9.5 -66.5 t-9.5 -78.5q-48 -31 -105.5 -48t-125.5 -20q1 -17 1.5 -55t0.5 -158h-100q3 50 4.5 101.5t1.5 105.5q-241 20 -368.5 150.5t-127.5 357.5zM416 532q0 -168 50 -265t157 -138v799q-96 -18 -151.5 -124t-55.5 -272z" />
<glyph unicode="&#xa3;" horiz-adv-x="1124" d="M76 0q2 23 3 48.5t1 74.5q0 48 -1 71t-3 41q136 4 187.5 57.5t51.5 192.5q0 53 -1 81.5t-3 54.5h-22q-36 0 -110 -8q-23 -2 -34 -3q5 14 7 29.5t2 34.5q0 17 -2 34t-6 33q26 -5 53.5 -7.5t60.5 -2.5h37v6q-4 67 -4 99q0 270 111 400t341 130q104 0 184.5 -27t139.5 -82 q-33 -43 -60.5 -91t-50.5 -101l-28 2q-2 100 -47 155.5t-123 55.5q-88 0 -128 -62t-40 -200q0 -64 3.5 -133.5t10.5 -146.5l121 -1q51 0 104 1.5t109 4.5q0 -10 -1 -31.5t-1 -31.5q0 -11 1 -33t1 -34q-24 5 -54 7.5t-93 2.5h-66h-129v-23q0 -101 -56.5 -186t-174.5 -164h77 q140 0 294 4.5t323 13.5q-4 -29 -6 -61t-2 -70t2 -71.5t5 -63.5q-111 7 -231.5 10.5t-253.5 3.5t-257 -3.5t-242 -10.5z" />
<glyph unicode="&#xa4;" horiz-adv-x="1241" d="M76 432l203 205q-40 53 -60 115.5t-20 132.5q0 69 20 131.5t60 116.5l-203 204l92 93l203 -203q55 41 117 61.5t133 20.5t134 -20.5t117 -61.5l203 203l94 -93l-204 -204q39 -54 59 -116.5t20 -131.5q0 -70 -20 -132.5t-59 -115.5l204 -205l-94 -92l-203 205 q-57 -42 -118 -62t-131 -20q-72 0 -135 20.5t-117 61.5l-203 -205zM332 885q0 -120 84.5 -204.5t206.5 -84.5q121 0 205.5 84.5t84.5 204.5q0 119 -85.5 205t-204.5 86q-120 0 -205.5 -86t-85.5 -205z" />
<glyph unicode="&#xa5;" horiz-adv-x="1147" d="M45 1333h6q113 -8 166 -8q31 0 66.5 1.5t98.5 6.5q66 -141 132.5 -272.5t136.5 -255.5q76 127 138 259t110 269q12 -1 43.5 -4.5t48.5 -3.5q18 0 50.5 3.5t45.5 4.5q-85 -134 -169.5 -281.5t-169.5 -312.5q99 0 179 2t148 7v-111h-6q-157 10 -274 10h-93v-147 q161 0 236 2t137 6v-111q-2 0 -6 1q-157 10 -278 10h-89v-56q0 -83 4.5 -170.5t11.5 -181.5q-40 5 -77 7.5t-72 2.5q-33 0 -69.5 -2.5t-77.5 -6.5q11 99 16.5 191t5.5 179v37q-114 0 -201.5 -2.5t-164.5 -7.5v110q97 -5 156 -6.5t112 -1.5h98v147q-115 0 -202.5 -2.5 t-163.5 -7.5v111q69 -5 144.5 -7t162.5 -2q-70 131 -154.5 279t-185.5 315z" />
<glyph unicode="&#xa6;" d="M424 -350v758h178v-758h-178zM424 674v758h178v-758h-178z" />
<glyph unicode="&#xa7;" horiz-adv-x="1114" d="M139 598q0 87 36.5 157.5t113.5 131.5q-40 38 -60 88.5t-20 111.5q0 146 109.5 242t279.5 96q82 0 155 -22.5t140 -69.5q-23 -42 -39 -87.5t-25 -92.5l-32 6q-20 83 -77.5 128.5t-141.5 45.5q-76 0 -123 -41.5t-47 -107.5q0 -57 41 -98t202 -113q198 -88 263 -162 t65 -186q0 -85 -38.5 -157.5t-109.5 -121.5q46 -45 68.5 -99t22.5 -118q0 -164 -124.5 -268.5t-324.5 -104.5q-91 0 -167 20.5t-140 61.5q18 55 29 115t14 122l29 1q33 -107 105.5 -165t170.5 -58q88 0 142.5 44.5t54.5 116.5q0 66 -40 111.5t-159 101.5l-24 12 q-349 163 -349 359zM307 748q0 -62 46 -111t153 -100q18 -9 57 -27q151 -69 225 -123q15 22 22 46t7 54q0 65 -35 108.5t-123 84.5q-16 8 -49 23q-184 83 -270 145q-16 -23 -24.5 -48.5t-8.5 -51.5z" />
<glyph unicode="&#xa8;" d="M195 1303q0 50 39.5 89.5t91.5 39.5q53 0 91 -38t38 -91q0 -59 -36 -95.5t-93 -36.5q-56 0 -93.5 38t-37.5 94zM569 1303q0 50 39.5 89.5t91.5 39.5q54 0 91.5 -38t37.5 -91q0 -59 -35.5 -95.5t-93.5 -36.5q-55 0 -93 38t-38 94z" />
<glyph unicode="&#xa9;" horiz-adv-x="1706" d="M113 731q0 145 57 280.5t164 243.5q105 107 235.5 161t282.5 54t286 -55t240 -162q105 -105 160 -238.5t55 -283.5q0 -153 -54.5 -286t-158.5 -234q-108 -107 -244.5 -164t-283.5 -57q-146 0 -280 56.5t-240 162.5q-107 106 -163 240.5t-56 281.5zM223 731 q0 -126 48 -240t139 -204q90 -91 204.5 -139t239.5 -48t240 48.5t209 140.5q89 88 135.5 200.5t46.5 241.5t-47 243.5t-135 203.5q-91 90 -205 137t-244 47t-243 -46.5t-201 -135.5q-90 -92 -138.5 -208t-48.5 -241zM457 725q0 208 109.5 331.5t291.5 123.5q147 0 243 -77 t105 -200h-166q-10 74 -60 114t-130 40q-99 0 -155 -86.5t-56 -239.5q0 -152 57.5 -234.5t163.5 -82.5q80 0 129 43.5t60 124.5h165q-7 -135 -106.5 -217t-253.5 -82q-183 0 -290 119t-107 323z" />
<glyph unicode="&#xaa;" horiz-adv-x="774" d="M43 893q0 71 41 118.5t125 73.5q27 9 77 23q119 34 160 59q0 4 1.5 11.5t1.5 11.5q0 59 -38 95t-100 36q-52 0 -94 -29.5t-80 -93.5q-16 44 -25.5 69.5t-16.5 44.5q69 58 140 86.5t144 28.5q142 0 218.5 -62t76.5 -177v-4l-4 -250v-37q0 -79 20 -101t78 -22h8v-47 q-42 -17 -85.5 -26t-84.5 -9q-55 0 -91 23.5t-50 68.5q-31 -44 -86 -70t-119 -26q-100 0 -158.5 55.5t-58.5 149.5zM96 428v123h627v-123h-627zM268 913q0 -57 21.5 -85.5t64.5 -28.5q48 0 72.5 31.5t24.5 93.5v157q-98 -20 -140.5 -59t-42.5 -109z" />
<glyph unicode="&#xab;" horiz-adv-x="918" d="M80 492l330 483l71 -68l-215 -418l211 -411l-67 -72zM436 492l330 483l74 -68l-217 -418l211 -411l-68 -72z" />
<glyph unicode="&#xac;" horiz-adv-x="1706" d="M254 696v166h1198v-502h-166v336h-1032z" />
<glyph unicode="&#xad;" horiz-adv-x="684" d="M90 393v219h504v-219h-504z" />
<glyph unicode="&#xae;" horiz-adv-x="1706" d="M113 731q0 147 57.5 284t165.5 245q104 104 234.5 157t281.5 53q153 0 288.5 -56t241.5 -165q103 -104 157 -236.5t54 -281.5q0 -153 -55.5 -287t-161.5 -237q-108 -105 -243 -161t-281 -56q-147 0 -282.5 57.5t-241.5 165.5q-105 106 -160 239t-55 279zM223 731 q0 -125 47 -238.5t136 -203.5q90 -91 204 -140t234 -49q130 0 246.5 47t209.5 138q89 86 137 198.5t48 237.5q0 133 -45.5 247.5t-134.5 205.5q-93 92 -207.5 140t-243.5 48t-240 -45.5t-200 -134.5q-92 -94 -141.5 -210t-49.5 -241zM551 330v829h319q173 0 262 -57t89 -168 q0 -91 -48 -150.5t-137 -78.5l185 -375h-199l-164 346h-129v-346h-178zM729 786h117q100 0 146 30.5t46 96.5q0 69 -48 101.5t-152 32.5h-109v-261z" />
<glyph unicode="&#xaf;" d="M225 1223v155h574v-155h-574z" />
<glyph unicode="&#xb0;" horiz-adv-x="674" d="M43 1163q0 125 86 211t209 86q121 0 208 -87t87 -210q0 -121 -87 -208t-210 -87t-208 85.5t-85 209.5zM152 1165q0 -76 54.5 -131t131.5 -55t130.5 54.5t53.5 131.5t-53.5 131t-130.5 54t-131.5 -54t-54.5 -131z" />
<glyph unicode="&#xb1;" horiz-adv-x="1706" d="M254 14v168h1198v-168h-1198zM254 707v165h514v334h170v-334h514v-165h-514v-334h-170v334h-514z" />
<glyph unicode="&#xb2;" horiz-adv-x="741" d="M49 1198q46 79 118.5 116.5t180.5 37.5q153 0 236.5 -59t83.5 -167q0 -59 -27 -110t-84 -101q-28 -24 -127 -96.5t-157 -128.5q22 -1 49 -1.5t81 -0.5q77 0 145 2t130 6q-2 -27 -3 -45t-1 -35q0 -14 0.5 -31t3.5 -52q-81 3 -159.5 4.5t-156.5 1.5q-77 0 -154 -1.5 t-155 -4.5v65q217 156 310.5 278t93.5 246q0 87 -33.5 129.5t-101.5 42.5q-72 0 -116 -48.5t-50 -133.5q-22 28 -48.5 49.5t-58.5 36.5z" />
<glyph unicode="&#xb3;" horiz-adv-x="741" d="M41 594q25 33 49.5 68.5t50.5 74.5q10 -85 48.5 -126.5t107.5 -41.5t107 46.5t38 129.5q0 90 -38 134.5t-115 44.5q-24 0 -33.5 -0.5t-17.5 -1.5v61q1 0 4 -1q16 -3 24 -3q78 0 115 40.5t37 125.5q0 75 -28.5 113t-84.5 38q-52 0 -84.5 -41.5t-33.5 -112.5l3 -3 q-40 30 -120 92q46 60 114.5 90.5t159.5 30.5q128 0 199 -52.5t71 -146.5q0 -68 -42.5 -110t-141.5 -72v-10q113 -14 167 -60.5t54 -130.5q0 -116 -93 -186t-249 -70q-82 0 -150 20t-118 60z" />
<glyph unicode="&#xb4;" d="M299 1116l293 303q49 51 81 69.5t64 18.5q43 0 71 -28t28 -70q0 -34 -21 -58.5t-74 -52.5l-348 -182h-94z" />
<glyph unicode="&#xb5;" horiz-adv-x="1208" d="M-92 -430l297 1511h229l-125 -635q-6 -29 -9 -55t-3 -49q0 -96 46.5 -146.5t135.5 -50.5q122 0 193.5 88.5t111.5 292.5l109 555h225l-145 -739q-10 -49 -14.5 -81.5t-4.5 -51.5q0 -36 15.5 -51t52.5 -15q13 0 20.5 0.5t13.5 1.5l-32 -159q-32 -9 -68.5 -13t-81.5 -4 q-74 0 -111.5 31.5t-37.5 93.5v15q-41 -67 -108 -104.5t-146 -37.5q-81 0 -137.5 26t-97.5 83l-99 -506h-229z" />
<glyph unicode="&#xb6;" d="M55 1130q0 158 107 253.5t284 95.5h523v-99h-117v-1380h-129v1380h-168v-1380h-131v784q-168 6 -268.5 101t-100.5 245z" />
<glyph unicode="&#xb7;" horiz-adv-x="561" d="M109 666q0 72 49.5 122t122.5 50q72 0 122 -50.5t50 -121.5q0 -72 -50.5 -122t-121.5 -50q-72 0 -122 50t-50 122z" />
<glyph unicode="&#xb8;" d="M203 -403l35 94q86 -26 147.5 -38.5t101.5 -12.5q56 0 80.5 19.5t24.5 64.5q0 38 -23.5 57.5t-70.5 19.5q-14 0 -30 -1.5t-32 -3.5v204h78v-114q7 0 16 0.5t25 0.5q103 0 157 -43t54 -125q0 -87 -62 -136.5t-174 -49.5q-70 0 -151.5 16t-175.5 48z" />
<glyph unicode="&#xb9;" horiz-adv-x="741" d="M82 1212q100 32 196 71t191 87l24 -12q-5 -52 -7.5 -131t-2.5 -285q0 -158 2.5 -253.5t7.5 -155.5q-23 2 -50 4t-52 2q-26 0 -51.5 -1.5t-50.5 -4.5q8 117 12 227t4 217q0 61 -3 120t-9 113q-34 -13 -71 -30t-77 -37z" />
<glyph unicode="&#xba;" horiz-adv-x="854" d="M33 1057q0 173 104.5 270.5t290.5 97.5q188 0 290.5 -96t102.5 -272q0 -175 -105 -272t-294 -97q-182 0 -285.5 98t-103.5 271zM90 428v123h674v-123h-674zM276 1057q0 -159 35 -225t117 -66q81 0 115.5 65t34.5 226t-34 226t-116 65t-117 -66t-35 -225z" />
<glyph unicode="&#xbb;" horiz-adv-x="918" d="M78 907l72 68l329 -483l-329 -486l-68 72l211 411zM434 907l72 68l332 -483l-332 -486l-68 72l213 411z" />
<glyph unicode="&#xbc;" horiz-adv-x="1757" d="M78 1221q91 27 183 63t185 82l25 -10q-4 -47 -6 -121t-2 -268q0 -139 2 -230.5t6 -150.5q-23 3 -48 4.5t-50 1.5t-49 -1.5t-47 -4.5q7 96 10.5 198.5t3.5 214.5q0 69 -2.5 121.5t-8.5 97.5q-41 -15 -75.5 -30.5t-65.5 -32.5zM367 -190l911 1712h113l-910 -1712h-114z M1094 176q2 12 3 26t1 40q0 24 -1 35.5t-3 21.5q99 126 186 241.5t166 223.5q15 -2 32.5 -3t53.5 -1q34 0 51.5 1t32.5 2q-4 -150 -6 -268.5t-2 -158.5v-31q33 2 60 3.5t48 2.5q-2 -27 -3 -41.5t-1 -25.5t1 -24l3 -41q-7 0 -22 1q-51 4 -86 4v-34q0 -63 2 -93.5t5 -56.5 q-22 3 -46 4.5t-49 1.5q-24 0 -48 -1.5t-46 -4.5q5 48 7.5 85t2.5 67v32q-15 0 -43 1t-41 1q-61 0 -124.5 -2.5t-133.5 -7.5zM1182 301q57 0 205 3q32 1 49 1v334q-79 -96 -140.5 -177.5t-113.5 -160.5z" />
<glyph unicode="&#xbd;" horiz-adv-x="1757" d="M78 1221q91 27 183 63t185 82l25 -10q-4 -47 -6 -121t-2 -268q0 -139 2 -230.5t6 -150.5q-23 3 -48 4.5t-50 1.5t-49 -1.5t-47 -4.5q7 96 10.5 198.5t3.5 214.5q0 69 -2.5 121.5t-8.5 97.5q-41 -15 -75.5 -30.5t-65.5 -32.5zM367 -190l911 1712h113l-910 -1712h-114z M1098 623q45 74 114 108.5t172 34.5q145 0 224.5 -56t79.5 -157q0 -54 -25 -101t-80 -96q-28 -23 -122 -90.5t-150 -117.5q22 -2 47.5 -2.5t77.5 -0.5q73 0 137.5 2t124.5 6q-3 -30 -3.5 -45t-0.5 -28q0 -15 0.5 -31t2.5 -49q-76 3 -151 4.5t-149 1.5q-76 0 -149.5 -1.5 t-145.5 -4.5v61q207 147 296 260.5t89 229.5q0 81 -32 120.5t-97 39.5q-68 0 -111 -45.5t-49 -124.5q-20 26 -44.5 46t-55.5 36z" />
<glyph unicode="&#xbe;" horiz-adv-x="1759" d="M41 643l13 19q55 76 81 116q8 -79 44.5 -118t103.5 -39t103 42.5t36 120.5q0 83 -37 124.5t-111 41.5h-47v55q4 0 10 -0.5t17 -0.5q75 0 110 37t35 116q0 69 -27.5 105t-80.5 36q-50 0 -80.5 -38.5t-32.5 -103.5l4 -5q-39 29 -114 88q43 56 107.5 83.5t152.5 27.5 q123 0 191.5 -49t68.5 -136q0 -62 -41 -101.5t-137 -70.5v-8q110 -14 161.5 -56.5t51.5 -119.5q0 -108 -90 -174t-238 -66q-79 0 -143 18.5t-111 55.5zM367 -190l911 1712h113l-910 -1712h-114zM1094 176q2 12 3 26t1 40q0 24 -1 35.5t-3 21.5q99 126 186 241.5t166 223.5 q15 -2 32.5 -3t53.5 -1q34 0 51.5 1t32.5 2q-4 -150 -6 -268.5t-2 -158.5v-31q33 2 60 3.5t48 2.5q-2 -27 -3 -41.5t-1 -25.5t1 -24l3 -41q-7 0 -22 1q-51 4 -86 4v-34q0 -63 2 -93.5t5 -56.5q-22 3 -46 4.5t-49 1.5q-24 0 -48 -1.5t-46 -4.5q5 48 7.5 85t2.5 67v32 q-15 0 -43 1t-41 1q-61 0 -124.5 -2.5t-133.5 -7.5zM1182 301q57 0 205 3q32 1 49 1v334q-79 -96 -140.5 -177.5t-113.5 -160.5z" />
<glyph unicode="&#xbf;" horiz-adv-x="901" d="M139 258q0 74 30.5 138t100.5 136l125 127q35 37 49.5 64.5t14.5 56.5q0 43 -25 66.5t-69 23.5q-31 0 -60.5 -6t-54.5 -18l35 96q42 6 77 9t60 3q123 0 197.5 -67.5t74.5 -177.5q0 -63 -27.5 -123t-82.5 -117l-95 -94q-45 -47 -64 -85.5t-19 -80.5q0 -57 44.5 -94 t114.5 -37q56 0 99 26.5t73 79.5l27 -2l4 -127q-45 -39 -111 -59.5t-147 -20.5q-166 0 -268.5 79t-102.5 204zM297 1262q0 68 48 115.5t116 47.5q69 0 116.5 -47t47.5 -116q0 -70 -47.5 -117t-116.5 -47q-68 0 -116 47.5t-48 116.5z" />
<glyph unicode="&#xc0;" horiz-adv-x="1245" d="M-29 0q149 329 291.5 683.5t280.5 741.5q22 -3 42 -4.5t40 -1.5q19 0 37.5 1.5t35.5 4.5q124 -340 266 -696t304 -729q-39 4 -82.5 6t-93.5 2t-93 -2t-84 -6q-24 77 -52.5 163.5t-82.5 248.5q-42 2 -91.5 3t-147.5 1q-99 0 -148.5 -1t-91.5 -3q-59 -174 -89.5 -259 t-55.5 -153q-29 4 -49.5 6t-38.5 2q-28 0 -86 -7q-7 -1 -11 -1zM358 547h6q117 -4 177 -4q32 0 68.5 0.5t113.5 3.5q-40 122 -84.5 239.5t-93.5 229.5q-51 -109 -97.5 -226t-89.5 -243zM299 1829q0 42 28 70t71 28q32 0 64 -18.5t81 -69.5l293 -303h-94l-348 182 q-53 28 -74 52.5t-21 58.5z" />
<glyph unicode="&#xc1;" horiz-adv-x="1245" d="M-29 0q149 329 291.5 683.5t280.5 741.5q22 -3 42 -4.5t40 -1.5q19 0 37.5 1.5t35.5 4.5q124 -340 266 -696t304 -729q-39 4 -82.5 6t-93.5 2t-93 -2t-84 -6q-24 77 -52.5 163.5t-82.5 248.5q-42 2 -91.5 3t-147.5 1q-99 0 -148.5 -1t-91.5 -3q-59 -174 -89.5 -259 t-55.5 -153q-29 4 -49.5 6t-38.5 2q-28 0 -86 -7q-7 -1 -11 -1zM358 547h6q117 -4 177 -4q32 0 68.5 0.5t113.5 3.5q-40 122 -84.5 239.5t-93.5 229.5q-51 -109 -97.5 -226t-89.5 -243zM410 1536l293 303q49 51 81 69.5t64 18.5q43 0 71 -28t28 -70q0 -34 -21 -58.5 t-74 -52.5l-348 -182h-94z" />
<glyph unicode="&#xc2;" horiz-adv-x="1245" d="M-29 0q149 329 291.5 683.5t280.5 741.5q22 -3 42 -4.5t40 -1.5q19 0 37.5 1.5t35.5 4.5q124 -340 266 -696t304 -729q-39 4 -82.5 6t-93.5 2t-93 -2t-84 -6q-24 77 -52.5 163.5t-82.5 248.5q-42 2 -91.5 3t-147.5 1q-99 0 -148.5 -1t-91.5 -3q-59 -174 -89.5 -259 t-55.5 -153q-29 4 -49.5 6t-38.5 2q-28 0 -86 -7q-7 -1 -11 -1zM358 547h6q117 -4 177 -4q32 0 68.5 0.5t113.5 3.5q-40 122 -84.5 239.5t-93.5 229.5q-51 -109 -97.5 -226t-89.5 -243zM306 1536l233 371h168l231 -371h-88l-227 187l-227 -187h-90z" />
<glyph unicode="&#xc3;" horiz-adv-x="1245" d="M-29 0q149 329 291.5 683.5t280.5 741.5q22 -3 42 -4.5t40 -1.5q19 0 37.5 1.5t35.5 4.5q124 -340 266 -696t304 -729q-39 4 -82.5 6t-93.5 2t-93 -2t-84 -6q-24 77 -52.5 163.5t-82.5 248.5q-42 2 -91.5 3t-147.5 1q-99 0 -148.5 -1t-91.5 -3q-59 -174 -89.5 -259 t-55.5 -153q-29 4 -49.5 6t-38.5 2q-28 0 -86 -7q-7 -1 -11 -1zM358 547h6q117 -4 177 -4q32 0 68.5 0.5t113.5 3.5q-40 122 -84.5 239.5t-93.5 229.5q-51 -109 -97.5 -226t-89.5 -243zM310 1569q23 132 77 195t144 63q16 0 34 -2.5t41 -7.5l117 -31q15 -3 24.5 -4.5 t16.5 -1.5q37 0 60.5 23t36.5 71h75q-21 -125 -77 -191.5t-142 -66.5q-18 0 -34 2t-31 6l-113 31q-18 4 -31.5 6t-23.5 2q-38 0 -62.5 -23.5t-36.5 -70.5h-75z" />
<glyph unicode="&#xc4;" horiz-adv-x="1245" d="M-29 0q149 329 291.5 683.5t280.5 741.5q22 -3 42 -4.5t40 -1.5q19 0 37.5 1.5t35.5 4.5q124 -340 266 -696t304 -729q-39 4 -82.5 6t-93.5 2t-93 -2t-84 -6q-24 77 -52.5 163.5t-82.5 248.5q-42 2 -91.5 3t-147.5 1q-99 0 -148.5 -1t-91.5 -3q-59 -174 -89.5 -259 t-55.5 -153q-29 4 -49.5 6t-38.5 2q-28 0 -86 -7q-7 -1 -11 -1zM358 547h6q117 -4 177 -4q32 0 68.5 0.5t113.5 3.5q-40 122 -84.5 239.5t-93.5 229.5q-51 -109 -97.5 -226t-89.5 -243zM306 1723q0 50 39.5 89.5t91.5 39.5q53 0 91 -38t38 -91q0 -59 -36 -95.5t-93 -36.5 q-56 0 -93.5 38t-37.5 94zM680 1723q0 50 39.5 89.5t91.5 39.5q54 0 91.5 -38t37.5 -91q0 -59 -35.5 -95.5t-93.5 -36.5q-55 0 -93 38t-38 94z" />
<glyph unicode="&#xc5;" horiz-adv-x="1245" d="M-29 0q149 329 291.5 683.5t280.5 741.5q22 -3 42 -4.5t40 -1.5q19 0 37.5 1.5t35.5 4.5q124 -340 266 -696t304 -729q-39 4 -82.5 6t-93.5 2t-93 -2t-84 -6q-24 77 -52.5 163.5t-82.5 248.5q-42 2 -91.5 3t-147.5 1q-99 0 -148.5 -1t-91.5 -3q-59 -174 -89.5 -259 t-55.5 -153q-29 4 -49.5 6t-38.5 2q-28 0 -86 -7q-7 -1 -11 -1zM358 547h6q117 -4 177 -4q32 0 68.5 0.5t113.5 3.5q-40 122 -84.5 239.5t-93.5 229.5q-51 -109 -97.5 -226t-89.5 -243zM358 1716q0 107 77 180.5t188 73.5q112 0 181.5 -65t69.5 -170q0 -109 -76.5 -182.5 t-189.5 -73.5q-109 0 -179.5 66.5t-70.5 170.5zM467 1712q0 -80 38 -124t107 -44q72 0 114 52t42 141q0 78 -40 124t-107 46q-72 0 -113 -52t-41 -143z" />
<glyph unicode="&#xc6;" horiz-adv-x="1694" d="M-98 0q228 372 435 721.5t393 677.5q173 -5 261 -6.5t164 -1.5q140 0 426 7l12 1q-2 -9 -3 -19t-1 -30v-33v-33q0 -21 1 -32t3 -19q-124 7 -219 11.5t-127 4.5h-114v-438h84q68 0 162.5 3.5t205.5 10.5q-3 -22 -4.5 -43.5t-1.5 -42.5q0 -22 1.5 -44t4.5 -43 q-136 9 -228 13.5t-140 4.5h-84v-516h65q29 0 115.5 4.5t279.5 17.5q-2 -32 -3 -49t-1 -31q0 -17 1 -38.5t3 -57.5q-108 5 -204.5 7.5t-184.5 2.5q-87 0 -181 -2.5t-203 -7.5q5 64 8 137.5t3 155.5q0 59 -3 188q-1 4 -1 6q-59 3 -118 5t-115 2q-70 0 -129.5 -2t-110.5 -7 l-45 -77q-14 -26 -138 -273l-69 -135q-30 5 -54.5 7.5t-47.5 2.5t-47 -2.5t-51 -7.5zM434 625q44 -5 91 -8t96 -3h208v639h-16z" />
<glyph unicode="&#xc7;" horiz-adv-x="1352" d="M72 705q0 328 215.5 525t576.5 197q114 0 226.5 -25t228.5 -77q-18 -56 -31.5 -117.5t-21.5 -130.5l-29 -4q-33 109 -131 169.5t-244 60.5q-221 0 -344 -155t-123 -435q0 -302 125.5 -460.5t364.5 -158.5q103 0 207.5 40t189.5 112l25 -6l-47 -172q-98 -48 -204.5 -71.5 t-224.5 -23.5q-359 0 -559 193t-200 539zM469 -403l35 94q86 -26 147.5 -38.5t101.5 -12.5q56 0 80.5 19.5t24.5 64.5q0 38 -23.5 57.5t-70.5 19.5q-14 0 -30 -1.5t-32 -3.5v204h78v-114q7 0 16 0.5t25 0.5q103 0 157 -43t54 -125q0 -87 -62 -136.5t-174 -49.5 q-70 0 -151.5 16t-175.5 48z" />
<glyph unicode="&#xc8;" horiz-adv-x="1030" d="M152 0q13 108 18.5 247.5t5.5 450.5v103q0 232 -5.5 363t-18.5 235q96 -4 198 -6t213 -2q112 0 204.5 2t174.5 6q-5 -34 -6.5 -53t-1.5 -35t1.5 -33.5t6.5 -52.5q-153 10 -265 15.5t-195 6.5q-4 -37 -5.5 -79t-1.5 -124v-98l1 -139q65 2 221.5 7.5t236.5 8.5 q-5 -31 -6.5 -49.5t-1.5 -36.5q0 -27 7 -82q1 -4 1 -6q-188 11 -286.5 15t-172.5 4v-246q0 -132 2 -185t6 -89q94 3 208.5 10.5t250.5 19.5q-3 -20 -4.5 -39.5t-1.5 -40.5t3 -55.5t3 -42.5q-205 6 -315 8t-178 2q-92 0 -163.5 -2.5t-133.5 -7.5zM223 1829q0 42 28 70t71 28 q32 0 64 -18.5t81 -69.5l293 -303h-94l-348 182q-53 28 -74 52.5t-21 58.5z" />
<glyph unicode="&#xc9;" horiz-adv-x="1030" d="M152 0q13 108 18.5 247.5t5.5 450.5v103q0 232 -5.5 363t-18.5 235q96 -4 198 -6t213 -2q112 0 204.5 2t174.5 6q-5 -34 -6.5 -53t-1.5 -35t1.5 -33.5t6.5 -52.5q-153 10 -265 15.5t-195 6.5q-4 -37 -5.5 -79t-1.5 -124v-98l1 -139q65 2 221.5 7.5t236.5 8.5 q-5 -31 -6.5 -49.5t-1.5 -36.5q0 -27 7 -82q1 -4 1 -6q-188 11 -286.5 15t-172.5 4v-246q0 -132 2 -185t6 -89q94 3 208.5 10.5t250.5 19.5q-3 -20 -4.5 -39.5t-1.5 -40.5t3 -55.5t3 -42.5q-205 6 -315 8t-178 2q-92 0 -163.5 -2.5t-133.5 -7.5zM334 1536l293 303 q49 51 81 69.5t64 18.5q43 0 71 -28t28 -70q0 -34 -21 -58.5t-74 -52.5l-348 -182h-94z" />
<glyph unicode="&#xca;" horiz-adv-x="1030" d="M152 0q13 108 18.5 247.5t5.5 450.5v103q0 232 -5.5 363t-18.5 235q96 -4 198 -6t213 -2q112 0 204.5 2t174.5 6q-5 -34 -6.5 -53t-1.5 -35t1.5 -33.5t6.5 -52.5q-153 10 -265 15.5t-195 6.5q-4 -37 -5.5 -79t-1.5 -124v-98l1 -139q65 2 221.5 7.5t236.5 8.5 q-5 -31 -6.5 -49.5t-1.5 -36.5q0 -27 7 -82q1 -4 1 -6q-188 11 -286.5 15t-172.5 4v-246q0 -132 2 -185t6 -89q94 3 208.5 10.5t250.5 19.5q-3 -20 -4.5 -39.5t-1.5 -40.5t3 -55.5t3 -42.5q-205 6 -315 8t-178 2q-92 0 -163.5 -2.5t-133.5 -7.5zM230 1536l233 371h168 l231 -371h-88l-227 187l-227 -187h-90z" />
<glyph unicode="&#xcb;" horiz-adv-x="1030" d="M152 0q13 108 18.5 247.5t5.5 450.5v103q0 232 -5.5 363t-18.5 235q96 -4 198 -6t213 -2q112 0 204.5 2t174.5 6q-5 -34 -6.5 -53t-1.5 -35t1.5 -33.5t6.5 -52.5q-153 10 -265 15.5t-195 6.5q-4 -37 -5.5 -79t-1.5 -124v-98l1 -139q65 2 221.5 7.5t236.5 8.5 q-5 -31 -6.5 -49.5t-1.5 -36.5q0 -27 7 -82q1 -4 1 -6q-188 11 -286.5 15t-172.5 4v-246q0 -132 2 -185t6 -89q94 3 208.5 10.5t250.5 19.5q-3 -20 -4.5 -39.5t-1.5 -40.5t3 -55.5t3 -42.5q-205 6 -315 8t-178 2q-92 0 -163.5 -2.5t-133.5 -7.5zM230 1723q0 50 39.5 89.5 t91.5 39.5q53 0 91 -38t38 -91q0 -59 -36 -95.5t-93 -36.5q-56 0 -93.5 38t-37.5 94zM604 1723q0 50 39.5 89.5t91.5 39.5q54 0 91.5 -38t37.5 -91q0 -59 -35.5 -95.5t-93.5 -36.5q-55 0 -93 38t-38 94z" />
<glyph unicode="&#xcc;" horiz-adv-x="662" d="M154 0q11 135 16.5 291t5.5 407q0 243 -5.5 407.5t-16.5 293.5q44 -6 88.5 -9.5t89.5 -3.5t89 3.5t87 9.5q-12 -131 -17.5 -296t-5.5 -405q0 -261 5.5 -415.5t16.5 -282.5q-49 5 -92.5 7.5t-82.5 2.5q-41 0 -84.5 -2.5t-93.5 -7.5zM8 1829q0 42 28 70t71 28 q32 0 64 -18.5t81 -69.5l293 -303h-94l-348 182q-53 28 -74 52.5t-21 58.5z" />
<glyph unicode="&#xcd;" horiz-adv-x="662" d="M154 0q11 135 16.5 291t5.5 407q0 243 -5.5 407.5t-16.5 293.5q44 -6 88.5 -9.5t89.5 -3.5t89 3.5t87 9.5q-12 -131 -17.5 -296t-5.5 -405q0 -261 5.5 -415.5t16.5 -282.5q-49 5 -92.5 7.5t-82.5 2.5q-41 0 -84.5 -2.5t-93.5 -7.5zM119 1536l293 303q49 51 81 69.5 t64 18.5q43 0 71 -28t28 -70q0 -34 -21 -58.5t-74 -52.5l-348 -182h-94z" />
<glyph unicode="&#xce;" horiz-adv-x="662" d="M154 0q11 135 16.5 291t5.5 407q0 243 -5.5 407.5t-16.5 293.5q44 -6 88.5 -9.5t89.5 -3.5t89 3.5t87 9.5q-12 -131 -17.5 -296t-5.5 -405q0 -261 5.5 -415.5t16.5 -282.5q-49 5 -92.5 7.5t-82.5 2.5q-41 0 -84.5 -2.5t-93.5 -7.5zM15 1536l233 371h168l231 -371h-88 l-227 187l-227 -187h-90z" />
<glyph unicode="&#xcf;" horiz-adv-x="662" d="M154 0q11 135 16.5 291t5.5 407q0 243 -5.5 407.5t-16.5 293.5q44 -6 88.5 -9.5t89.5 -3.5t89 3.5t87 9.5q-12 -131 -17.5 -296t-5.5 -405q0 -261 5.5 -415.5t16.5 -282.5q-49 5 -92.5 7.5t-82.5 2.5q-41 0 -84.5 -2.5t-93.5 -7.5zM15 1723q0 50 39.5 89.5t91.5 39.5 q53 0 91 -38t38 -91q0 -59 -36 -95.5t-93 -36.5q-56 0 -93.5 38t-37.5 94zM389 1723q0 50 39.5 89.5t91.5 39.5q54 0 91.5 -38t37.5 -91q0 -59 -35.5 -95.5t-93.5 -36.5q-55 0 -93 38t-38 94z" />
<glyph unicode="&#xd0;" horiz-adv-x="1585" d="M0 695v122q30 -3 67.5 -4.5t114.5 -1.5q0 18 1 55t1 56q0 116 -6 234t-18 243q39 -4 78 -6t81 -2q66 0 205 4t213 4q205 0 324 -30t207 -99q110 -87 169.5 -226.5t59.5 -312.5q0 -365 -210 -548t-630 -183q-75 0 -190.5 3t-157.5 3q-40 0 -113 -4q-24 -1 -36 -2 q13 111 19.5 244t6.5 291q0 67 -0.5 102.5t-1.5 64.5q-33 0 -71 -1.5t-113 -5.5zM485 702q0 -163 1.5 -307.5t5.5 -269.5q38 -6 73 -9t66 -3q267 0 401.5 150t134.5 450q0 301 -125.5 434t-410.5 133q-18 0 -84 -2q-34 -1 -53 -2q-4 -80 -5.5 -155.5t-1.5 -149.5 q0 -66 0.5 -98.5t2.5 -61.5q117 2 199 3.5t128 2.5v-123q-92 5 -172 6.5t-160 1.5z" />
<glyph unicode="&#xd1;" horiz-adv-x="1516" d="M133 1398q25 -3 52 -5t59 -2q31 0 58 2t52 6q209 -234 422.5 -469t431.5 -471v241q0 67 -2 260t-6 438q19 -3 40 -5t44 -2q26 0 47.5 2t40.5 5q-9 -87 -12.5 -268.5t-3.5 -584.5v-113q0 -164 3.5 -260t12.5 -172q-24 5 -45.5 7.5t-42.5 2.5q-20 0 -42.5 -2.5t-47.5 -7.5 q-191 218 -409 457.5t-484 523.5v-598q0 -37 2 -142t6 -241q-26 5 -47 7.5t-41 2.5q-19 0 -40.5 -2.5t-46.5 -7.5q10 147 16 317t6 369q0 188 -6 367t-17 345zM445 1569q23 132 77 195t144 63q16 0 34 -2.5t41 -7.5l117 -31q15 -3 24.5 -4.5t16.5 -1.5q37 0 60.5 23t36.5 71 h75q-21 -125 -77 -191.5t-142 -66.5q-18 0 -34 2t-31 6l-113 31q-18 4 -31.5 6t-23.5 2q-38 0 -62.5 -23.5t-36.5 -70.5h-75z" />
<glyph unicode="&#xd2;" horiz-adv-x="1692" d="M72 678q0 350 211 548.5t585 198.5q360 0 556 -189t196 -538q0 -330 -211 -527.5t-563 -197.5q-373 0 -573.5 183t-200.5 522zM401 698q0 -286 118 -447t327 -161q206 0 324 162t118 446q0 288 -118 450.5t-324 162.5q-208 0 -326.5 -163t-118.5 -450zM522 1829 q0 42 28 70t71 28q32 0 64 -18.5t81 -69.5l293 -303h-94l-348 182q-53 28 -74 52.5t-21 58.5z" />
<glyph unicode="&#xd3;" horiz-adv-x="1692" d="M72 678q0 350 211 548.5t585 198.5q360 0 556 -189t196 -538q0 -330 -211 -527.5t-563 -197.5q-373 0 -573.5 183t-200.5 522zM401 698q0 -286 118 -447t327 -161q206 0 324 162t118 446q0 288 -118 450.5t-324 162.5q-208 0 -326.5 -163t-118.5 -450zM633 1536l293 303 q49 51 81 69.5t64 18.5q43 0 71 -28t28 -70q0 -34 -21 -58.5t-74 -52.5l-348 -182h-94z" />
<glyph unicode="&#xd4;" horiz-adv-x="1692" d="M72 678q0 350 211 548.5t585 198.5q360 0 556 -189t196 -538q0 -330 -211 -527.5t-563 -197.5q-373 0 -573.5 183t-200.5 522zM401 698q0 -286 118 -447t327 -161q206 0 324 162t118 446q0 288 -118 450.5t-324 162.5q-208 0 -326.5 -163t-118.5 -450zM529 1536l233 371 h168l231 -371h-88l-227 187l-227 -187h-90z" />
<glyph unicode="&#xd5;" horiz-adv-x="1692" d="M72 678q0 350 211 548.5t585 198.5q360 0 556 -189t196 -538q0 -330 -211 -527.5t-563 -197.5q-373 0 -573.5 183t-200.5 522zM401 698q0 -286 118 -447t327 -161q206 0 324 162t118 446q0 288 -118 450.5t-324 162.5q-208 0 -326.5 -163t-118.5 -450zM533 1569 q23 132 77 195t144 63q16 0 34 -2.5t41 -7.5l117 -31q15 -3 24.5 -4.5t16.5 -1.5q37 0 60.5 23t36.5 71h75q-21 -125 -77 -191.5t-142 -66.5q-18 0 -34 2t-31 6l-113 31q-18 4 -31.5 6t-23.5 2q-38 0 -62.5 -23.5t-36.5 -70.5h-75z" />
<glyph unicode="&#xd6;" horiz-adv-x="1692" d="M72 678q0 350 211 548.5t585 198.5q360 0 556 -189t196 -538q0 -330 -211 -527.5t-563 -197.5q-373 0 -573.5 183t-200.5 522zM401 698q0 -286 118 -447t327 -161q206 0 324 162t118 446q0 288 -118 450.5t-324 162.5q-208 0 -326.5 -163t-118.5 -450zM529 1723 q0 50 39.5 89.5t91.5 39.5q53 0 91 -38t38 -91q0 -59 -36 -95.5t-93 -36.5q-56 0 -93.5 38t-37.5 94zM903 1723q0 50 39.5 89.5t91.5 39.5q54 0 91.5 -38t37.5 -91q0 -59 -35.5 -95.5t-93.5 -36.5q-55 0 -93 38t-38 94z" />
<glyph unicode="&#xd7;" horiz-adv-x="1706" d="M287 152l458 458l-458 461l116 117l459 -459l461 459l117 -117l-459 -461l459 -458l-117 -119l-461 461l-459 -461z" />
<glyph unicode="&#xd8;" horiz-adv-x="1692" d="M72 -20q71 64 117 108t85 86q-102 109 -152 233t-50 271q0 342 207 543.5t559 201.5q147 0 268 -31.5t213 -93.5q66 67 116.5 125t71.5 93q31 -33 56.5 -56.5t50.5 -42.5q-49 -40 -97.5 -89t-97.5 -107q99 -98 150 -231t51 -294q0 -328 -210 -524.5t-560 -196.5 q-143 0 -261.5 30.5t-211.5 90.5q-63 -57 -114 -110.5t-89 -104.5q-18 27 -43.5 51.5t-58.5 47.5zM403 713q0 -92 13.5 -175.5t40.5 -162.5q155 161 334.5 353t384.5 415q-61 85 -138.5 125.5t-181.5 40.5q-213 0 -333 -157.5t-120 -438.5zM514 262q56 -88 140 -132t196 -44 q202 0 321 164.5t119 443.5q0 85 -14.5 169.5t-42.5 160.5q-184 -189 -364 -379.5t-355 -382.5z" />
<glyph unicode="&#xd9;" horiz-adv-x="1544" d="M152 1399q39 -4 83 -6t93 -2q48 0 89 2t79 6q-16 -161 -23.5 -343t-7.5 -401q0 -177 9.5 -251t31.5 -130q33 -85 113 -131.5t194 -46.5q110 0 193.5 39.5t132.5 114.5q40 62 56.5 161.5t16.5 325.5q0 189 -6 353.5t-18 308.5q23 -4 48.5 -6t53.5 -2q30 0 55.5 2t46.5 6 q-9 -140 -13.5 -251.5t-4.5 -193.5q0 -48 2 -149t2 -154q0 -201 -29 -312t-96 -187q-78 -90 -198.5 -134.5t-284.5 -44.5q-180 0 -311 50t-197 143q-49 68 -69.5 177t-20.5 345v180q0 193 -5 311.5t-15 219.5zM489 1829q0 42 28 70t71 28q32 0 64 -18.5t81 -69.5l293 -303 h-94l-348 182q-53 28 -74 52.5t-21 58.5z" />
<glyph unicode="&#xda;" horiz-adv-x="1544" d="M152 1399q39 -4 83 -6t93 -2q48 0 89 2t79 6q-16 -161 -23.5 -343t-7.5 -401q0 -177 9.5 -251t31.5 -130q33 -85 113 -131.5t194 -46.5q110 0 193.5 39.5t132.5 114.5q40 62 56.5 161.5t16.5 325.5q0 189 -6 353.5t-18 308.5q23 -4 48.5 -6t53.5 -2q30 0 55.5 2t46.5 6 q-9 -140 -13.5 -251.5t-4.5 -193.5q0 -48 2 -149t2 -154q0 -201 -29 -312t-96 -187q-78 -90 -198.5 -134.5t-284.5 -44.5q-180 0 -311 50t-197 143q-49 68 -69.5 177t-20.5 345v180q0 193 -5 311.5t-15 219.5zM600 1536l293 303q49 51 81 69.5t64 18.5q43 0 71 -28t28 -70 q0 -34 -21 -58.5t-74 -52.5l-348 -182h-94z" />
<glyph unicode="&#xdb;" horiz-adv-x="1544" d="M152 1399q39 -4 83 -6t93 -2q48 0 89 2t79 6q-16 -161 -23.5 -343t-7.5 -401q0 -177 9.5 -251t31.5 -130q33 -85 113 -131.5t194 -46.5q110 0 193.5 39.5t132.5 114.5q40 62 56.5 161.5t16.5 325.5q0 189 -6 353.5t-18 308.5q23 -4 48.5 -6t53.5 -2q30 0 55.5 2t46.5 6 q-9 -140 -13.5 -251.5t-4.5 -193.5q0 -48 2 -149t2 -154q0 -201 -29 -312t-96 -187q-78 -90 -198.5 -134.5t-284.5 -44.5q-180 0 -311 50t-197 143q-49 68 -69.5 177t-20.5 345v180q0 193 -5 311.5t-15 219.5zM496 1536l233 371h168l231 -371h-88l-227 187l-227 -187h-90z " />
<glyph unicode="&#xdc;" horiz-adv-x="1544" d="M152 1399q39 -4 83 -6t93 -2q48 0 89 2t79 6q-16 -161 -23.5 -343t-7.5 -401q0 -177 9.5 -251t31.5 -130q33 -85 113 -131.5t194 -46.5q110 0 193.5 39.5t132.5 114.5q40 62 56.5 161.5t16.5 325.5q0 189 -6 353.5t-18 308.5q23 -4 48.5 -6t53.5 -2q30 0 55.5 2t46.5 6 q-9 -140 -13.5 -251.5t-4.5 -193.5q0 -48 2 -149t2 -154q0 -201 -29 -312t-96 -187q-78 -90 -198.5 -134.5t-284.5 -44.5q-180 0 -311 50t-197 143q-49 68 -69.5 177t-20.5 345v180q0 193 -5 311.5t-15 219.5zM496 1723q0 50 39.5 89.5t91.5 39.5q53 0 91 -38t38 -91 q0 -59 -36 -95.5t-93 -36.5q-56 0 -93.5 38t-37.5 94zM870 1723q0 50 39.5 89.5t91.5 39.5q54 0 91.5 -38t37.5 -91q0 -59 -35.5 -95.5t-93.5 -36.5q-55 0 -93 38t-38 94z" />
<glyph unicode="&#xdd;" horiz-adv-x="1133" d="M-27 1399q43 -4 90 -6t101 -2q52 0 99 2t89 6q73 -162 152.5 -319t167.5 -310q88 152 163 309t138 320q25 -4 52 -6t58 -2q30 0 57 2t52 6q-122 -187 -233.5 -383t-212.5 -401q-4 -55 -5.5 -109.5t-1.5 -110.5q0 -89 4.5 -188t11.5 -207q-47 5 -89 7.5t-80 2.5 q-39 0 -81.5 -2.5t-90.5 -7.5q10 104 15 207t5 205q0 32 -0.5 68.5t-3.5 102.5q-97 177 -207 374t-250 442zM354 1536l293 303q49 51 81 69.5t64 18.5q43 0 71 -28t28 -70q0 -34 -21 -58.5t-74 -52.5l-348 -182h-94z" />
<glyph unicode="&#xde;" horiz-adv-x="1147" d="M152 0q12 137 18 300t6 398q0 197 -6 372t-18 329q1 0 5 -1q109 -7 165 -7q29 0 64 1.5t105 6.5q-4 -69 -7 -132.5t-4 -121.5q36 4 75.5 6t81.5 2q239 0 351 -89.5t112 -281.5q0 -217 -139 -322.5t-424 -105.5q-12 0 -34.5 1t-33.5 1v-51q0 -30 5 -100.5t17 -204.5 q-48 5 -90 7.5t-82 2.5q-39 0 -80 -2.5t-87 -7.5zM467 467h8q159 0 230 72t71 233q0 134 -57 199t-174 65q-19 0 -58 -3q-4 -1 -5 -1q-8 -66 -11.5 -121t-3.5 -106v-338z" />
<glyph unicode="&#xdf;" horiz-adv-x="1120" d="M107 0q3 92 4.5 177t1.5 167v184v535q0 144 27 218t91 134q64 58 148.5 87.5t185.5 29.5q165 0 249.5 -65t84.5 -191q0 -84 -97 -194l-7 -8q-62 -68 -81.5 -103.5t-19.5 -67.5q0 -61 134 -164q5 -4 8 -6l84 -63q79 -60 112 -122.5t33 -150.5q0 -172 -125.5 -299 t-294.5 -127q-47 0 -88 10.5t-76 30.5q18 48 30 94.5t17 94.5l29 -2q34 -54 80.5 -82.5t99.5 -28.5q61 0 99 39t38 100q0 50 -37.5 103t-113.5 110l-98 76q-64 48 -92.5 98.5t-28.5 114.5q0 57 21 108.5t89 139.5q87 111 111.5 169t24.5 122q0 85 -49 135.5t-132 50.5 q-109 0 -152.5 -74.5t-43.5 -289.5v-60l6 -483v-20q4 -327 14 -527q-35 3 -71 4.5t-72 1.5q-37 0 -72.5 -1.5t-70.5 -4.5z" />
<glyph unicode="&#xe0;" horiz-adv-x="1034" d="M70 260q0 97 52 160t163 100q36 12 104 33q160 48 219 88q1 6 1.5 13.5t0.5 21.5q0 93 -53 148t-141 55q-69 0 -125.5 -39t-104.5 -119q-15 48 -25 77t-20 54q91 79 180 117.5t185 38.5q184 0 282.5 -85t98.5 -243v-10l-6 -357v-39q0 -125 27.5 -160.5t107.5 -35.5h6v-51 q-52 -22 -108 -33.5t-107 -11.5q-74 0 -121 37.5t-63 109.5q-44 -74 -115.5 -114t-161.5 -40q-129 0 -202.5 76.5t-73.5 208.5zM346 287q0 -88 32 -132t95 -44q68 0 104.5 49t36.5 141v238q-142 -29 -205 -88t-63 -164zM194 1409q0 42 28 70t71 28q32 0 64 -18.5t81 -69.5 l293 -303h-94l-348 182q-53 28 -74 52.5t-21 58.5z" />
<glyph unicode="&#xe1;" horiz-adv-x="1034" d="M70 260q0 97 52 160t163 100q36 12 104 33q160 48 219 88q1 6 1.5 13.5t0.5 21.5q0 93 -53 148t-141 55q-69 0 -125.5 -39t-104.5 -119q-15 48 -25 77t-20 54q91 79 180 117.5t185 38.5q184 0 282.5 -85t98.5 -243v-10l-6 -357v-39q0 -125 27.5 -160.5t107.5 -35.5h6v-51 q-52 -22 -108 -33.5t-107 -11.5q-74 0 -121 37.5t-63 109.5q-44 -74 -115.5 -114t-161.5 -40q-129 0 -202.5 76.5t-73.5 208.5zM346 287q0 -88 32 -132t95 -44q68 0 104.5 49t36.5 141v238q-142 -29 -205 -88t-63 -164zM305 1116l293 303q49 51 81 69.5t64 18.5q43 0 71 -28 t28 -70q0 -34 -21 -58.5t-74 -52.5l-348 -182h-94z" />
<glyph unicode="&#xe2;" horiz-adv-x="1034" d="M70 260q0 97 52 160t163 100q36 12 104 33q160 48 219 88q1 6 1.5 13.5t0.5 21.5q0 93 -53 148t-141 55q-69 0 -125.5 -39t-104.5 -119q-15 48 -25 77t-20 54q91 79 180 117.5t185 38.5q184 0 282.5 -85t98.5 -243v-10l-6 -357v-39q0 -125 27.5 -160.5t107.5 -35.5h6v-51 q-52 -22 -108 -33.5t-107 -11.5q-74 0 -121 37.5t-63 109.5q-44 -74 -115.5 -114t-161.5 -40q-129 0 -202.5 76.5t-73.5 208.5zM346 287q0 -88 32 -132t95 -44q68 0 104.5 49t36.5 141v238q-142 -29 -205 -88t-63 -164zM201 1116l233 371h168l231 -371h-88l-227 187 l-227 -187h-90z" />
<glyph unicode="&#xe3;" horiz-adv-x="1034" d="M70 260q0 97 52 160t163 100q36 12 104 33q160 48 219 88q1 6 1.5 13.5t0.5 21.5q0 93 -53 148t-141 55q-69 0 -125.5 -39t-104.5 -119q-15 48 -25 77t-20 54q91 79 180 117.5t185 38.5q184 0 282.5 -85t98.5 -243v-10l-6 -357v-39q0 -125 27.5 -160.5t107.5 -35.5h6v-51 q-52 -22 -108 -33.5t-107 -11.5q-74 0 -121 37.5t-63 109.5q-44 -74 -115.5 -114t-161.5 -40q-129 0 -202.5 76.5t-73.5 208.5zM346 287q0 -88 32 -132t95 -44q68 0 104.5 49t36.5 141v238q-142 -29 -205 -88t-63 -164zM205 1149q23 132 77 195t144 63q16 0 34 -2.5t41 -7.5 l117 -31q15 -3 24.5 -4.5t16.5 -1.5q37 0 60.5 23t36.5 71h75q-21 -125 -77 -191.5t-142 -66.5q-18 0 -34 2t-31 6l-113 31q-18 4 -31.5 6t-23.5 2q-38 0 -62.5 -23.5t-36.5 -70.5h-75z" />
<glyph unicode="&#xe4;" horiz-adv-x="1034" d="M70 260q0 97 52 160t163 100q36 12 104 33q160 48 219 88q1 6 1.5 13.5t0.5 21.5q0 93 -53 148t-141 55q-69 0 -125.5 -39t-104.5 -119q-15 48 -25 77t-20 54q91 79 180 117.5t185 38.5q184 0 282.5 -85t98.5 -243v-10l-6 -357v-39q0 -125 27.5 -160.5t107.5 -35.5h6v-51 q-52 -22 -108 -33.5t-107 -11.5q-74 0 -121 37.5t-63 109.5q-44 -74 -115.5 -114t-161.5 -40q-129 0 -202.5 76.5t-73.5 208.5zM346 287q0 -88 32 -132t95 -44q68 0 104.5 49t36.5 141v238q-142 -29 -205 -88t-63 -164zM201 1303q0 50 39.5 89.5t91.5 39.5q53 0 91 -38 t38 -91q0 -59 -36 -95.5t-93 -36.5q-56 0 -93.5 38t-37.5 94zM575 1303q0 50 39.5 89.5t91.5 39.5q54 0 91.5 -38t37.5 -91q0 -59 -35.5 -95.5t-93.5 -36.5q-55 0 -93 38t-38 94z" />
<glyph unicode="&#xe5;" horiz-adv-x="1034" d="M70 260q0 97 52 160t163 100q36 12 104 33q160 48 219 88q1 6 1.5 13.5t0.5 21.5q0 93 -53 148t-141 55q-69 0 -125.5 -39t-104.5 -119q-15 48 -25 77t-20 54q91 79 180 117.5t185 38.5q184 0 282.5 -85t98.5 -243v-10l-6 -357v-39q0 -125 27.5 -160.5t107.5 -35.5h6v-51 q-52 -22 -108 -33.5t-107 -11.5q-74 0 -121 37.5t-63 109.5q-44 -74 -115.5 -114t-161.5 -40q-129 0 -202.5 76.5t-73.5 208.5zM264 1309q0 106 77 180t187 74q113 0 182.5 -65.5t69.5 -170.5q0 -108 -76.5 -182t-189.5 -74q-110 0 -180 67t-70 171zM346 287q0 -88 32 -132 t95 -44q68 0 104.5 49t36.5 141v238q-142 -29 -205 -88t-63 -164zM375 1305q0 -81 37.5 -124.5t105.5 -43.5q72 0 114 51.5t42 140.5q0 79 -39 124.5t-107 45.5q-71 0 -112 -51.5t-41 -142.5z" />
<glyph unicode="&#xe6;" horiz-adv-x="1575" d="M68 236q0 99 46.5 167.5t137.5 102.5q32 12 164.5 51t222.5 78q0 5 1 16.5t1 16.5q0 108 -47.5 163.5t-140.5 55.5q-65 0 -123.5 -35t-106.5 -102q-12 26 -27 54.5t-32 57.5q79 76 160 113t170 37q91 0 164 -29t133 -88q59 57 127 84t157 27q203 0 311.5 -116.5 t108.5 -334.5q0 -27 -0.5 -41.5t-2.5 -26.5h-605q0 -178 82 -281.5t221 -103.5q70 0 133 24t121 73l18 -15l-43 -116q-62 -46 -147.5 -69.5t-188.5 -23.5q-142 0 -242.5 55.5t-150.5 162.5q-53 -109 -139.5 -166.5t-196.5 -57.5q-132 0 -209 72t-77 195zM350 276 q0 -82 32 -121.5t97 -39.5q87 0 122.5 56t35.5 218q0 23 -1 73.5t-1 76.5q-158 -28 -221.5 -87t-63.5 -176zM889 588h330v47q0 141 -39 212t-117 71q-82 0 -128 -80t-46 -224v-26z" />
<glyph unicode="&#xe7;" horiz-adv-x="958" d="M51 485q0 234 145 377.5t382 143.5q107 0 195.5 -23t154.5 -68q-32 -72 -50 -118.5t-30 -85.5l-27 12q-26 96 -81 143t-140 47q-120 0 -189 -107t-69 -294q0 -202 76.5 -308t222.5 -106q66 0 129.5 24t120.5 71l14 -9q-7 -50 -10.5 -74t-5.5 -42q-70 -46 -147.5 -68.5 t-166.5 -22.5q-241 0 -382.5 137t-141.5 371zM207 -403l35 94q86 -26 147.5 -38.5t101.5 -12.5q56 0 80.5 19.5t24.5 64.5q0 38 -23.5 57.5t-70.5 19.5q-14 0 -30 -1.5t-32 -3.5v204h78v-114q7 0 16 0.5t25 0.5q103 0 157 -43t54 -125q0 -87 -62 -136.5t-174 -49.5 q-70 0 -151.5 16t-175.5 48z" />
<glyph unicode="&#xe8;" horiz-adv-x="1042" d="M59 506q0 224 135 362t357 138q211 0 323.5 -117t112.5 -336q0 -26 -0.5 -40t-1.5 -25l-627 -1q0 -177 84.5 -281t227.5 -104q71 0 136 24t126 73l20 -15l-45 -116q-64 -45 -150.5 -69t-187.5 -24q-239 0 -374.5 141t-135.5 390zM358 588h347q0 11 1 27.5t1 21.5 q0 139 -40.5 210t-119.5 71q-90 0 -139.5 -81t-49.5 -231v-18zM198 1409q0 42 28 70t71 28q32 0 64 -18.5t81 -69.5l293 -303h-94l-348 182q-53 28 -74 52.5t-21 58.5z" />
<glyph unicode="&#xe9;" horiz-adv-x="1042" d="M59 506q0 224 135 362t357 138q211 0 323.5 -117t112.5 -336q0 -26 -0.5 -40t-1.5 -25l-627 -1q0 -177 84.5 -281t227.5 -104q71 0 136 24t126 73l20 -15l-45 -116q-64 -45 -150.5 -69t-187.5 -24q-239 0 -374.5 141t-135.5 390zM358 588h347q0 11 1 27.5t1 21.5 q0 139 -40.5 210t-119.5 71q-90 0 -139.5 -81t-49.5 -231v-18zM309 1116l293 303q49 51 81 69.5t64 18.5q43 0 71 -28t28 -70q0 -34 -21 -58.5t-74 -52.5l-348 -182h-94z" />
<glyph unicode="&#xea;" horiz-adv-x="1042" d="M59 506q0 224 135 362t357 138q211 0 323.5 -117t112.5 -336q0 -26 -0.5 -40t-1.5 -25l-627 -1q0 -177 84.5 -281t227.5 -104q71 0 136 24t126 73l20 -15l-45 -116q-64 -45 -150.5 -69t-187.5 -24q-239 0 -374.5 141t-135.5 390zM358 588h347q0 11 1 27.5t1 21.5 q0 139 -40.5 210t-119.5 71q-90 0 -139.5 -81t-49.5 -231v-18zM205 1116l233 371h168l231 -371h-88l-227 187l-227 -187h-90z" />
<glyph unicode="&#xeb;" horiz-adv-x="1042" d="M59 506q0 224 135 362t357 138q211 0 323.5 -117t112.5 -336q0 -26 -0.5 -40t-1.5 -25l-627 -1q0 -177 84.5 -281t227.5 -104q71 0 136 24t126 73l20 -15l-45 -116q-64 -45 -150.5 -69t-187.5 -24q-239 0 -374.5 141t-135.5 390zM358 588h347q0 11 1 27.5t1 21.5 q0 139 -40.5 210t-119.5 71q-90 0 -139.5 -81t-49.5 -231v-18zM205 1303q0 50 39.5 89.5t91.5 39.5q53 0 91 -38t38 -91q0 -59 -36 -95.5t-93 -36.5q-56 0 -93.5 38t-37.5 94zM579 1303q0 50 39.5 89.5t91.5 39.5q54 0 91.5 -38t37.5 -91q0 -59 -35.5 -95.5t-93.5 -36.5 q-55 0 -93 38t-38 94z" />
<glyph unicode="&#xec;" horiz-adv-x="569" d="M131 981q35 -4 72.5 -6t81.5 -2q45 0 82.5 2t70.5 6q-8 -121 -12 -244t-4 -248q0 -111 4 -232t12 -257q-41 5 -79 7.5t-74 2.5q-35 0 -73 -2.5t-80 -7.5q7 136 11 257t4 232q0 125 -4 248t-12 244zM-39 1409q0 42 28 70t71 28q32 0 64 -18.5t81 -69.5l293 -303h-94 l-348 182q-53 28 -74 52.5t-21 58.5z" />
<glyph unicode="&#xed;" horiz-adv-x="569" d="M131 981q35 -4 72.5 -6t81.5 -2q45 0 82.5 2t70.5 6q-8 -121 -12 -244t-4 -248q0 -111 4 -232t12 -257q-41 5 -79 7.5t-74 2.5q-35 0 -73 -2.5t-80 -7.5q7 136 11 257t4 232q0 125 -4 248t-12 244zM72 1116l293 303q49 51 81 69.5t64 18.5q43 0 71 -28t28 -70 q0 -34 -21 -58.5t-74 -52.5l-348 -182h-94z" />
<glyph unicode="&#xee;" horiz-adv-x="569" d="M131 981q35 -4 72.5 -6t81.5 -2q45 0 82.5 2t70.5 6q-8 -121 -12 -244t-4 -248q0 -111 4 -232t12 -257q-41 5 -79 7.5t-74 2.5q-35 0 -73 -2.5t-80 -7.5q7 136 11 257t4 232q0 125 -4 248t-12 244zM-32 1116l233 371h168l231 -371h-88l-227 187l-227 -187h-90z" />
<glyph unicode="&#xef;" horiz-adv-x="569" d="M131 981q35 -4 72.5 -6t81.5 -2q45 0 82.5 2t70.5 6q-8 -121 -12 -244t-4 -248q0 -111 4 -232t12 -257q-41 5 -79 7.5t-74 2.5q-35 0 -73 -2.5t-80 -7.5q7 136 11 257t4 232q0 125 -4 248t-12 244zM-32 1303q0 50 39.5 89.5t91.5 39.5q53 0 91 -38t38 -91 q0 -59 -36 -95.5t-93 -36.5q-56 0 -93.5 38t-37.5 94zM342 1303q0 50 39.5 89.5t91.5 39.5q54 0 91.5 -38t37.5 -91q0 -59 -35.5 -95.5t-93.5 -36.5q-55 0 -93 38t-38 94z" />
<glyph unicode="&#xf0;" horiz-adv-x="1139" d="M68 475q0 222 126.5 359t329.5 137q27 0 60.5 -4t74.5 -13l-227 226q-54 -48 -101.5 -94.5t-82.5 -86.5l-82 78q38 29 89.5 72.5t109.5 95.5q-50 49 -120.5 116.5t-88.5 86.5l153 141q35 -43 82.5 -96t110.5 -117q66 55 117 105.5t77 87.5l92 -76q-30 -23 -88 -73.5 t-125 -112.5l226 -226q152 -152 210 -281.5t58 -299.5q0 -253 -131 -389t-373 -136q-232 0 -364.5 133.5t-132.5 366.5zM360 473q0 -224 47.5 -317t157.5 -93t156.5 92t46.5 318t-46.5 318t-156.5 92t-157.5 -93t-47.5 -317z" />
<glyph unicode="&#xf1;" horiz-adv-x="1165" d="M125 0q8 136 12 257t4 232q0 125 -4 248t-12 244q32 -4 66.5 -6t74.5 -2t73.5 2t63.5 6v-143q63 83 141 123t175 40q75 0 137 -25.5t105 -74.5q34 -40 48.5 -98.5t14.5 -200.5q0 -20 -1 -105.5t-1 -150.5q0 -96 3.5 -181t10.5 -165q-43 5 -80.5 7.5t-72.5 2.5t-71.5 -2.5 t-79.5 -7.5q7 87 11.5 208t4.5 269q0 223 -35.5 287.5t-128.5 64.5t-133.5 -77t-40.5 -260q0 -86 3 -209t8 -283q-38 5 -75 7.5t-72 2.5q-34 0 -71 -2.5t-78 -7.5zM271 1149q23 132 77 195t144 63q16 0 34 -2.5t41 -7.5l117 -31q15 -3 24.5 -4.5t16.5 -1.5q37 0 60.5 23 t36.5 71h75q-21 -125 -77 -191.5t-142 -66.5q-18 0 -34 2t-31 6l-113 31q-18 4 -31.5 6t-23.5 2q-38 0 -62.5 -23.5t-36.5 -70.5h-75z" />
<glyph unicode="&#xf2;" horiz-adv-x="1139" d="M57 489q0 245 136 381t378 136q246 0 379 -134.5t133 -382.5q0 -243 -135.5 -378.5t-378.5 -135.5q-244 0 -378 135t-134 379zM358 489q0 -233 48.5 -328t162.5 -95q115 0 164 95.5t49 327.5q0 233 -49 329.5t-164 96.5q-114 0 -162.5 -95.5t-48.5 -330.5zM245 1409 q0 42 28 70t71 28q32 0 64 -18.5t81 -69.5l293 -303h-94l-348 182q-53 28 -74 52.5t-21 58.5z" />
<glyph unicode="&#xf3;" horiz-adv-x="1139" d="M57 489q0 245 136 381t378 136q246 0 379 -134.5t133 -382.5q0 -243 -135.5 -378.5t-378.5 -135.5q-244 0 -378 135t-134 379zM358 489q0 -233 48.5 -328t162.5 -95q115 0 164 95.5t49 327.5q0 233 -49 329.5t-164 96.5q-114 0 -162.5 -95.5t-48.5 -330.5zM356 1116 l293 303q49 51 81 69.5t64 18.5q43 0 71 -28t28 -70q0 -34 -21 -58.5t-74 -52.5l-348 -182h-94z" />
<glyph unicode="&#xf4;" horiz-adv-x="1139" d="M57 489q0 245 136 381t378 136q246 0 379 -134.5t133 -382.5q0 -243 -135.5 -378.5t-378.5 -135.5q-244 0 -378 135t-134 379zM358 489q0 -233 48.5 -328t162.5 -95q115 0 164 95.5t49 327.5q0 233 -49 329.5t-164 96.5q-114 0 -162.5 -95.5t-48.5 -330.5zM252 1116 l233 371h168l231 -371h-88l-227 187l-227 -187h-90z" />
<glyph unicode="&#xf5;" horiz-adv-x="1139" d="M57 489q0 245 136 381t378 136q246 0 379 -134.5t133 -382.5q0 -243 -135.5 -378.5t-378.5 -135.5q-244 0 -378 135t-134 379zM358 489q0 -233 48.5 -328t162.5 -95q115 0 164 95.5t49 327.5q0 233 -49 329.5t-164 96.5q-114 0 -162.5 -95.5t-48.5 -330.5zM256 1149 q23 132 77 195t144 63q16 0 34 -2.5t41 -7.5l117 -31q15 -3 24.5 -4.5t16.5 -1.5q37 0 60.5 23t36.5 71h75q-21 -125 -77 -191.5t-142 -66.5q-18 0 -34 2t-31 6l-113 31q-18 4 -31.5 6t-23.5 2q-38 0 -62.5 -23.5t-36.5 -70.5h-75z" />
<glyph unicode="&#xf6;" horiz-adv-x="1139" d="M57 489q0 245 136 381t378 136q246 0 379 -134.5t133 -382.5q0 -243 -135.5 -378.5t-378.5 -135.5q-244 0 -378 135t-134 379zM358 489q0 -233 48.5 -328t162.5 -95q115 0 164 95.5t49 327.5q0 233 -49 329.5t-164 96.5q-114 0 -162.5 -95.5t-48.5 -330.5zM252 1303 q0 50 39.5 89.5t91.5 39.5q53 0 91 -38t38 -91q0 -59 -36 -95.5t-93 -36.5q-56 0 -93.5 38t-37.5 94zM626 1303q0 50 39.5 89.5t91.5 39.5q54 0 91.5 -38t37.5 -91q0 -59 -35.5 -95.5t-93.5 -36.5q-55 0 -93 38t-38 94z" />
<glyph unicode="&#xf7;" horiz-adv-x="1706" d="M254 528v166h1198v-166h-1198zM717 229q0 57 40.5 97.5t96.5 40.5q57 0 97 -40.5t40 -97.5q0 -56 -39.5 -95.5t-97.5 -39.5t-97.5 39t-39.5 96zM717 989q0 57 40.5 98t96.5 41q57 0 97 -41t40 -98q0 -56 -39.5 -95.5t-97.5 -39.5t-97.5 39t-39.5 96z" />
<glyph unicode="&#xf8;" horiz-adv-x="1139" d="M10 -86q63 73 107.5 125t66.5 80q-65 71 -96 160.5t-31 209.5q0 244 136.5 380.5t377.5 136.5q82 0 151.5 -16.5t127.5 -49.5q51 64 88 113t55 77q18 -21 41.5 -39t55.5 -34q-33 -35 -71.5 -80.5t-80.5 -97.5q74 -61 108.5 -159t34.5 -243q0 -232 -137 -367t-375 -135 q-92 0 -166 19t-137 57q-51 -64 -91 -117.5t-64 -91.5q-23 23 -48.5 41t-52.5 31zM356 489q0 -32 2 -69t7 -78l376 463q-21 53 -65.5 81.5t-106.5 28.5q-112 0 -162.5 -99t-50.5 -327zM389 199q18 -66 65.5 -101t118.5 -35q114 0 161.5 101t47.5 350q0 54 -2.5 91.5 t-7.5 65.5z" />
<glyph unicode="&#xf9;" horiz-adv-x="1161" d="M121 981q34 -4 72 -6t81 -2q44 0 81.5 2t70.5 6q-8 -129 -12 -245.5t-4 -217.5q0 -228 35.5 -297t127.5 -69q91 0 128.5 70t37.5 249v326q0 32 -1.5 78.5t-3.5 105.5q34 -4 70.5 -6t78.5 -2q41 0 77.5 2t69.5 6q-6 -123 -9 -245.5t-3 -243.5q0 -123 3 -246t9 -246 q-39 5 -73.5 7.5t-65.5 2.5q-32 0 -67 -2.5t-74 -7.5v139q-66 -82 -141.5 -120.5t-172.5 -38.5q-158 0 -230.5 89t-72.5 285v113q0 116 -3 244t-9 270zM258 1409q0 42 28 70t71 28q32 0 64 -18.5t81 -69.5l293 -303h-94l-348 182q-53 28 -74 52.5t-21 58.5z" />
<glyph unicode="&#xfa;" horiz-adv-x="1161" d="M121 981q34 -4 72 -6t81 -2q44 0 81.5 2t70.5 6q-8 -129 -12 -245.5t-4 -217.5q0 -228 35.5 -297t127.5 -69q91 0 128.5 70t37.5 249v326q0 32 -1.5 78.5t-3.5 105.5q34 -4 70.5 -6t78.5 -2q41 0 77.5 2t69.5 6q-6 -123 -9 -245.5t-3 -243.5q0 -123 3 -246t9 -246 q-39 5 -73.5 7.5t-65.5 2.5q-32 0 -67 -2.5t-74 -7.5v139q-66 -82 -141.5 -120.5t-172.5 -38.5q-158 0 -230.5 89t-72.5 285v113q0 116 -3 244t-9 270zM369 1116l293 303q49 51 81 69.5t64 18.5q43 0 71 -28t28 -70q0 -34 -21 -58.5t-74 -52.5l-348 -182h-94z" />
<glyph unicode="&#xfb;" horiz-adv-x="1161" d="M121 981q34 -4 72 -6t81 -2q44 0 81.5 2t70.5 6q-8 -129 -12 -245.5t-4 -217.5q0 -228 35.5 -297t127.5 -69q91 0 128.5 70t37.5 249v326q0 32 -1.5 78.5t-3.5 105.5q34 -4 70.5 -6t78.5 -2q41 0 77.5 2t69.5 6q-6 -123 -9 -245.5t-3 -243.5q0 -123 3 -246t9 -246 q-39 5 -73.5 7.5t-65.5 2.5q-32 0 -67 -2.5t-74 -7.5v139q-66 -82 -141.5 -120.5t-172.5 -38.5q-158 0 -230.5 89t-72.5 285v113q0 116 -3 244t-9 270zM265 1116l233 371h168l231 -371h-88l-227 187l-227 -187h-90z" />
<glyph unicode="&#xfc;" horiz-adv-x="1161" d="M121 981q34 -4 72 -6t81 -2q44 0 81.5 2t70.5 6q-8 -129 -12 -245.5t-4 -217.5q0 -228 35.5 -297t127.5 -69q91 0 128.5 70t37.5 249v326q0 32 -1.5 78.5t-3.5 105.5q34 -4 70.5 -6t78.5 -2q41 0 77.5 2t69.5 6q-6 -123 -9 -245.5t-3 -243.5q0 -123 3 -246t9 -246 q-39 5 -73.5 7.5t-65.5 2.5q-32 0 -67 -2.5t-74 -7.5v139q-66 -82 -141.5 -120.5t-172.5 -38.5q-158 0 -230.5 89t-72.5 285v113q0 116 -3 244t-9 270zM265 1303q0 50 39.5 89.5t91.5 39.5q53 0 91 -38t38 -91q0 -59 -36 -95.5t-93 -36.5q-56 0 -93.5 38t-37.5 94zM639 1303 q0 50 39.5 89.5t91.5 39.5q54 0 91.5 -38t37.5 -91q0 -59 -35.5 -95.5t-93.5 -36.5q-55 0 -93 38t-38 94z" />
<glyph unicode="&#xfd;" horiz-adv-x="981" d="M8 981q36 -4 75.5 -6t84.5 -2t84.5 2t75.5 6q50 -150 111 -308t132 -325l238 633q19 -4 40 -6t44 -2q24 0 45 2t39 6q-177 -392 -340.5 -777t-313.5 -763q-19 3 -40.5 4.5t-44.5 1.5t-46.5 -1.5t-49.5 -4.5q30 47 62.5 106.5t69.5 139.5l152 313zM279 1116l293 303 q49 51 81 69.5t64 18.5q43 0 71 -28t28 -70q0 -34 -21 -58.5t-74 -52.5l-348 -182h-94z" />
<glyph unicode="&#xfe;" horiz-adv-x="1186" d="M127 1536q36 -8 72.5 -12t72.5 -4q35 0 73 4t77 12q-10 -84 -15.5 -180t-5.5 -207v-315q61 87 136 129.5t168 42.5q186 0 294.5 -139t108.5 -378q0 -242 -108 -378t-300 -136q-105 0 -173 35t-107 109v-213q0 -117 3 -233.5t9 -231.5q-36 7 -74 10.5t-79 3.5 q-42 0 -79 -3.5t-71 -10.5q9 126 12.5 283t3.5 503q0 465 -4.5 792t-13.5 517zM416 485q0 -196 48 -288.5t150 -92.5t147.5 89t45.5 292q0 199 -48 291t-151 92q-96 0 -144 -95.5t-48 -287.5z" />
<glyph unicode="&#xff;" horiz-adv-x="981" d="M8 981q36 -4 75.5 -6t84.5 -2t84.5 2t75.5 6q50 -150 111 -308t132 -325l238 633q19 -4 40 -6t44 -2q24 0 45 2t39 6q-177 -392 -340.5 -777t-313.5 -763q-19 3 -40.5 4.5t-44.5 1.5t-46.5 -1.5t-49.5 -4.5q30 47 62.5 106.5t69.5 139.5l152 313zM175 1303 q0 50 39.5 89.5t91.5 39.5q53 0 91 -38t38 -91q0 -59 -36 -95.5t-93 -36.5q-56 0 -93.5 38t-37.5 94zM549 1303q0 50 39.5 89.5t91.5 39.5q54 0 91.5 -38t37.5 -91q0 -59 -35.5 -95.5t-93.5 -36.5q-55 0 -93 38t-38 94z" />
<glyph unicode="&#x131;" horiz-adv-x="569" d="M131 981q35 -4 72.5 -6t81.5 -2q45 0 82.5 2t70.5 6q-8 -121 -12 -244t-4 -248q0 -111 4 -232t12 -257q-41 5 -79 7.5t-74 2.5q-35 0 -73 -2.5t-80 -7.5q7 136 11 257t4 232q0 125 -4 248t-12 244z" />
<glyph unicode="&#x152;" horiz-adv-x="2044" d="M70 680q0 347 191 547t521 200q154 0 273 -56.5t182 -158.5v189q71 -4 149.5 -6t169.5 -2q134 0 412 7l12 1q-6 -17 -9 -35.5t-3 -38.5q0 -16 2.5 -35.5t9.5 -56.5q-84 10 -177.5 14t-231.5 4h-43v-440h35q56 0 151 4t258 12v-5q-4 -48 -4 -70q0 -18 1 -40.5t3 -59.5 q-130 10 -232.5 15t-189.5 5h-22v-522h39q64 0 173.5 5.5t247.5 16.5q-2 -20 -4 -43t-2 -45q0 -21 2 -43t4 -43q-91 3 -185 4.5t-191 1.5q-96 0 -194 -1.5t-195 -4.5l10 180q-95 -107 -213.5 -157t-278.5 -50q-321 0 -496 184t-175 523zM397 692q0 -276 113 -440t301 -164 q205 0 314.5 157.5t109.5 454.5q0 288 -109 448.5t-303 160.5q-190 0 -308 -170t-118 -447z" />
<glyph unicode="&#x153;" horiz-adv-x="1757" d="M55 469q0 252 135.5 393.5t374.5 141.5q129 0 220 -40.5t159 -125.5q59 84 142 125t196 41q204 0 316 -117.5t112 -331.5q0 -28 -0.5 -42t-1.5 -25l-633 -1q0 -178 85 -281.5t229 -103.5q70 0 137 24.5t129 72.5l20 -15l-45 -116q-65 -45 -153 -69t-189 -24 q-119 0 -212 43t-148 123q-83 -87 -176 -126.5t-217 -39.5q-232 0 -356 127.5t-124 366.5zM350 494q0 -212 56.5 -319t166.5 -107q112 0 169 107.5t57 318.5q0 209 -57.5 317.5t-168.5 108.5q-110 0 -166.5 -107.5t-56.5 -318.5zM1069 588h363v49q0 139 -42.5 211t-123.5 72 q-94 0 -145.5 -82.5t-51.5 -233.5v-16z" />
<glyph unicode="&#x178;" horiz-adv-x="1133" d="M-27 1399q43 -4 90 -6t101 -2q52 0 99 2t89 6q73 -162 152.5 -319t167.5 -310q88 152 163 309t138 320q25 -4 52 -6t58 -2q30 0 57 2t52 6q-122 -187 -233.5 -383t-212.5 -401q-4 -55 -5.5 -109.5t-1.5 -110.5q0 -89 4.5 -188t11.5 -207q-47 5 -89 7.5t-80 2.5 q-39 0 -81.5 -2.5t-90.5 -7.5q10 104 15 207t5 205q0 32 -0.5 68.5t-3.5 102.5q-97 177 -207 374t-250 442zM250 1723q0 50 39.5 89.5t91.5 39.5q53 0 91 -38t38 -91q0 -59 -36 -95.5t-93 -36.5q-56 0 -93.5 38t-37.5 94zM624 1723q0 50 39.5 89.5t91.5 39.5q54 0 91.5 -38 t37.5 -91q0 -59 -35.5 -95.5t-93.5 -36.5q-55 0 -93 38t-38 94z" />
<glyph unicode="&#x2c6;" d="M195 1116l233 371h168l231 -371h-88l-227 187l-227 -187h-90z" />
<glyph unicode="&#x2dc;" d="M199 1149q23 132 77 195t144 63q16 0 34 -2.5t41 -7.5l117 -31q15 -3 24.5 -4.5t16.5 -1.5q37 0 60.5 23t36.5 71h75q-21 -125 -77 -191.5t-142 -66.5q-18 0 -34 2t-31 6l-113 31q-18 4 -31.5 6t-23.5 2q-38 0 -62.5 -23.5t-36.5 -70.5h-75z" />
<glyph unicode="&#x2000;" horiz-adv-x="985" />
<glyph unicode="&#x2001;" horiz-adv-x="1970" />
<glyph unicode="&#x2002;" horiz-adv-x="985" />
<glyph unicode="&#x2003;" horiz-adv-x="1970" />
<glyph unicode="&#x2004;" horiz-adv-x="656" />
<glyph unicode="&#x2005;" horiz-adv-x="492" />
<glyph unicode="&#x2006;" horiz-adv-x="328" />
<glyph unicode="&#x2007;" horiz-adv-x="328" />
<glyph unicode="&#x2008;" horiz-adv-x="246" />
<glyph unicode="&#x2009;" horiz-adv-x="394" />
<glyph unicode="&#x200a;" horiz-adv-x="109" />
<glyph unicode="&#x2010;" horiz-adv-x="684" d="M90 393v219h504v-219h-504z" />
<glyph unicode="&#x2011;" horiz-adv-x="684" d="M90 393v219h504v-219h-504z" />
<glyph unicode="&#x2012;" horiz-adv-x="684" d="M90 393v219h504v-219h-504z" />
<glyph unicode="&#x2013;" d="M0 416v174h1038v-174h-1038z" />
<glyph unicode="&#x2014;" horiz-adv-x="2048" d="M0 416v174h2048v-174h-2048z" />
<glyph unicode="&#x2018;" horiz-adv-x="553" d="M76 897q0 31 14.5 64t48.5 79l291 385l45 -24l-117 -463q-22 -90 -57 -129t-90 -39t-95 37.5t-40 89.5z" />
<glyph unicode="&#x2019;" horiz-adv-x="553" d="M92 797l117 456q22 91 58 132.5t91 41.5q56 0 88.5 -34t32.5 -93q0 -30 -10 -59.5t-29 -54.5l-301 -414z" />
<glyph unicode="&#x201a;" horiz-adv-x="553" d="M51 -315l117 456q23 95 57.5 134.5t91.5 39.5q54 0 87.5 -35t33.5 -92q0 -28 -9 -55.5t-26 -50.5l-307 -422z" />
<glyph unicode="&#x201c;" horiz-adv-x="1014" d="M88 891q0 30 10 60.5t27 54.5l305 419l47 -24l-117 -459q-24 -96 -58.5 -134t-94.5 -38q-53 0 -86 33.5t-33 87.5zM524 891q0 30 10 60.5t27 54.5l305 419l47 -24l-116 -459q-24 -96 -59 -134t-95 -38q-52 0 -85.5 33.5t-33.5 87.5z" />
<glyph unicode="&#x201d;" horiz-adv-x="1014" d="M115 797l114 456q22 89 59 131.5t91 42.5q56 0 89.5 -34.5t33.5 -92.5q0 -29 -10.5 -58.5t-30.5 -55.5l-301 -414zM551 797l115 456q22 89 58.5 131.5t90.5 42.5t88.5 -32.5t34.5 -83.5q0 -35 -10 -66t-31 -59l-301 -414z" />
<glyph unicode="&#x201e;" horiz-adv-x="1014" d="M72 -315l116 456q22 88 59 130t91 42q56 0 88.5 -33.5t32.5 -91.5q0 -31 -10 -60.5t-29 -53.5l-301 -414zM508 -317l117 458q22 88 58.5 130t90.5 42q56 0 88.5 -33.5t32.5 -91.5q0 -31 -10 -61.5t-29 -54.5l-301 -412z" />
<glyph unicode="&#x2022;" horiz-adv-x="1208" d="M307 762q0 123 87 209t210 86q122 0 208.5 -86.5t86.5 -208.5t-87.5 -209.5t-209.5 -87.5q-123 0 -209 87t-86 210z" />
<glyph unicode="&#x2026;" horiz-adv-x="2048" d="M176 143q0 70 47.5 117t118.5 47q70 0 117.5 -47t47.5 -117q0 -69 -48.5 -118.5t-116.5 -49.5q-69 0 -117.5 49.5t-48.5 118.5zM858 143q0 70 47.5 117t118.5 47q70 0 117.5 -47t47.5 -117q0 -69 -48.5 -118.5t-116.5 -49.5q-69 0 -117.5 49.5t-48.5 118.5zM1542 143 q0 70 47.5 117t118.5 47q70 0 117.5 -47t47.5 -117q0 -69 -48.5 -118.5t-116.5 -49.5q-69 0 -117.5 49.5t-48.5 118.5z" />
<glyph unicode="&#x202f;" horiz-adv-x="394" />
<glyph unicode="&#x2039;" horiz-adv-x="559" d="M80 492l330 483l67 -72l-211 -411l215 -418l-71 -68z" />
<glyph unicode="&#x203a;" horiz-adv-x="559" d="M80 907l72 68l329 -483l-329 -486l-68 72l211 411z" />
<glyph unicode="&#x205f;" horiz-adv-x="492" />
<glyph unicode="&#x2122;" horiz-adv-x="1706" d="M225 1366v94h467v-94h-168v-448h-129v448h-170zM809 918v542h170l141 -360l133 360h170v-542h-114v428l-160 -428h-59l-166 428v-428h-115z" />
<glyph unicode="&#xe000;" horiz-adv-x="980" d="M0 980h980v-980h-980v980z" />
<glyph unicode="&#xfb01;" horiz-adv-x="1208" d="M770 1348q0 65 45 110t111 45q64 0 108.5 -45.5t44.5 -109.5q0 -65 -45 -109.5t-110 -44.5t-109.5 44.5t-44.5 109.5zM773 0q7 157 10 272.5t3 216.5q0 116 -3.5 236.5t-9.5 253.5q35 -3 73 -4.5t78 -1.5t78.5 1.5t72.5 4.5q-7 -133 -10.5 -253.5t-3.5 -236.5 q0 -101 3.5 -217t10.5 -272q-39 5 -76.5 7.5t-74.5 2.5q-36 0 -73.5 -2.5t-77.5 -7.5zM19 862q2 12 4 25t2 26q0 12 -2 26.5t-4 27.5q28 -3 54.5 -4.5t51.5 -1.5h33q0 99 29 194.5t87 185.5q66 103 135 149t158 46q31 0 65 -5.5t70 -17.5q-12 -59 -22.5 -123.5t-20.5 -135.5 q-49 38 -94 56.5t-88 18.5q-54 0 -87.5 -29.5t-33.5 -74.5q0 -33 28 -121.5t40 -142.5h47q38 0 76 1.5t75 4.5q-2 -24 -2.5 -34.5t-1.5 -21.5q1 -9 1.5 -18.5t2.5 -30.5q-19 1 -55 1.5t-139 0.5v-12q-4 -200 -4 -295q0 -154 4.5 -293t13.5 -264q-41 5 -77 7.5t-70 2.5 q-35 0 -71.5 -2.5t-77.5 -7.5q9 127 13.5 265.5t4.5 289.5q0 95 -4 295v12q-14 1 -30 1.5t-46 0.5q-28 0 -41.5 -0.5t-23.5 -1.5z" />
<glyph unicode="&#xfb02;" horiz-adv-x="1198" d="M766 0q8 173 12 361t4 403q0 228 -4 416.5t-12 355.5q49 -8 84 -11t68 -3t70 3.5t83 10.5q-8 -173 -12 -361t-4 -403q0 -228 4 -416.5t12 -355.5q-34 7 -72 10.5t-79 3.5t-79 -3.5t-75 -10.5zM19 862q2 12 4 25t2 26q0 12 -2 26.5t-4 27.5q28 -3 54.5 -4.5t51.5 -1.5h33 q0 99 29 194.5t87 185.5q66 103 135 149t158 46q31 0 65 -5.5t70 -17.5q-12 -59 -22.5 -123.5t-20.5 -135.5q-49 38 -94 56.5t-88 18.5q-54 0 -87.5 -29.5t-33.5 -74.5q0 -33 28 -121.5t40 -142.5h47q38 0 76 1.5t75 4.5q-2 -24 -2.5 -34.5t-1.5 -21.5q1 -9 1.5 -18.5 t2.5 -30.5q-19 1 -55 1.5t-139 0.5v-12q-4 -200 -4 -295q0 -154 4.5 -293t13.5 -264q-41 5 -77 7.5t-70 2.5q-35 0 -71.5 -2.5t-77.5 -7.5q9 127 13.5 265.5t4.5 289.5q0 95 -4 295v12q-14 1 -30 1.5t-46 0.5q-28 0 -41.5 -0.5t-23.5 -1.5z" />
<glyph unicode="&#xfb03;" horiz-adv-x="1847" d="M1409 1348q0 65 45 110t111 45q64 0 108.5 -45.5t44.5 -109.5q0 -65 -45 -109.5t-110 -44.5t-109.5 44.5t-44.5 109.5zM1412 0q7 157 10 272.5t3 216.5q0 116 -3.5 236.5t-9.5 253.5q35 -3 73 -4.5t78 -1.5t78.5 1.5t72.5 4.5q-7 -133 -10.5 -253.5t-3.5 -236.5 q0 -101 3.5 -217t10.5 -272q-39 5 -76.5 7.5t-74.5 2.5q-36 0 -73.5 -2.5t-77.5 -7.5zM658 862q2 12 4 25t2 26q0 12 -2 26.5t-4 27.5q28 -3 54.5 -4.5t51.5 -1.5h33q0 99 29 194.5t87 185.5q66 103 135 149t158 46q31 0 65 -5.5t70 -17.5q-12 -59 -22.5 -123.5 t-20.5 -135.5q-49 38 -94 56.5t-88 18.5q-54 0 -87.5 -29.5t-33.5 -74.5q0 -33 28 -121.5t40 -142.5h47q38 0 76 1.5t75 4.5q-2 -24 -2.5 -34.5t-1.5 -21.5q1 -9 1.5 -18.5t2.5 -30.5q-19 1 -55 1.5t-139 0.5v-12q-4 -200 -4 -295q0 -154 4.5 -293t13.5 -264q-41 5 -77 7.5 t-70 2.5q-35 0 -71.5 -2.5t-77.5 -7.5q9 127 13.5 265.5t4.5 289.5q0 95 -4 295v12q-14 1 -30 1.5t-46 0.5q-28 0 -41.5 -0.5t-23.5 -1.5zM19 862q2 12 4 25t2 26q0 12 -2 26.5t-4 27.5q28 -3 54.5 -4.5t51.5 -1.5h33q0 99 29 194.5t87 185.5q66 103 135 149t158 46 q31 0 65 -5.5t70 -17.5q-12 -59 -22.5 -123.5t-20.5 -135.5q-49 38 -94 56.5t-88 18.5q-54 0 -87.5 -29.5t-33.5 -74.5q0 -33 28 -121.5t40 -142.5h47q38 0 76 1.5t75 4.5q-2 -24 -2.5 -34.5t-1.5 -21.5q1 -9 1.5 -18.5t2.5 -30.5q-19 1 -55 1.5t-139 0.5v-12 q-4 -200 -4 -295q0 -154 4.5 -293t13.5 -264q-41 5 -77 7.5t-70 2.5q-35 0 -71.5 -2.5t-77.5 -7.5q9 127 13.5 265.5t4.5 289.5q0 95 -4 295v12q-14 1 -30 1.5t-46 0.5q-28 0 -41.5 -0.5t-23.5 -1.5z" />
<glyph unicode="&#xfb04;" horiz-adv-x="1837" d="M1405 0q8 173 12 361t4 403q0 228 -4 416.5t-12 355.5q49 -8 84 -11t68 -3t70 3.5t83 10.5q-8 -173 -12 -361t-4 -403q0 -228 4 -416.5t12 -355.5q-34 7 -72 10.5t-79 3.5t-79 -3.5t-75 -10.5zM658 862q2 12 4 25t2 26q0 12 -2 26.5t-4 27.5q28 -3 54.5 -4.5t51.5 -1.5 h33q0 99 29 194.5t87 185.5q66 103 135 149t158 46q31 0 65 -5.5t70 -17.5q-12 -59 -22.5 -123.5t-20.5 -135.5q-49 38 -94 56.5t-88 18.5q-54 0 -87.5 -29.5t-33.5 -74.5q0 -33 28 -121.5t40 -142.5h47q38 0 76 1.5t75 4.5q-2 -24 -2.5 -34.5t-1.5 -21.5q1 -9 1.5 -18.5 t2.5 -30.5q-19 1 -55 1.5t-139 0.5v-12q-4 -200 -4 -295q0 -154 4.5 -293t13.5 -264q-41 5 -77 7.5t-70 2.5q-35 0 -71.5 -2.5t-77.5 -7.5q9 127 13.5 265.5t4.5 289.5q0 95 -4 295v12q-14 1 -30 1.5t-46 0.5q-28 0 -41.5 -0.5t-23.5 -1.5zM19 862q2 12 4 25t2 26 q0 12 -2 26.5t-4 27.5q28 -3 54.5 -4.5t51.5 -1.5h33q0 99 29 194.5t87 185.5q66 103 135 149t158 46q31 0 65 -5.5t70 -17.5q-12 -59 -22.5 -123.5t-20.5 -135.5q-49 38 -94 56.5t-88 18.5q-54 0 -87.5 -29.5t-33.5 -74.5q0 -33 28 -121.5t40 -142.5h47q38 0 76 1.5t75 4.5 q-2 -24 -2.5 -34.5t-1.5 -21.5q1 -9 1.5 -18.5t2.5 -30.5q-19 1 -55 1.5t-139 0.5v-12q-4 -200 -4 -295q0 -154 4.5 -293t13.5 -264q-41 5 -77 7.5t-70 2.5q-35 0 -71.5 -2.5t-77.5 -7.5q9 127 13.5 265.5t4.5 289.5q0 95 -4 295v12q-14 1 -30 1.5t-46 0.5q-28 0 -41.5 -0.5 t-23.5 -1.5z" />
</font>
</defs>
</svg>
